<svg width="860" height="360" viewBox="0 0 860 360" fill="none" xmlns="http://www.w3.org/2000/svg" role="img" aria-label="Illustration of a animal"><rect width="860" height="360" fill="#EAE6DC"></rect><path d="M0 296 H860 V360 H0 Z" fill="#DED9CC"></path><ellipse cx="430" cy="312" rx="120" ry="16" fill="#D4CEBE"></ellipse><path d="M330 300 L330 240 Q330 224 350 224 L470 224 Q478 204 496 202 L500 176 Q504 166 512 170 Q518 174 514 186 L512 202 Q520 214 520 240 L520 300 L502 300 L502 252 L470 252 L470 300 L452 300 L452 252 L398 252 L398 300 L380 300 L380 252 L348 252 L348 300 Z" fill="#C99A63" stroke="#26456A" stroke-width="3" stroke-linejoin="round"></path><path d="M500 176 L494 156 L506 168 M512 176 L522 158 L520 172" fill="#C99A63" stroke="#26456A" stroke-width="2.5" stroke-linejoin="round"></path><circle cx="506" cy="190" r="3" fill="#26456A"></circle><path d="M330 246 Q312 252 318 268" stroke="#26456A" stroke-width="5" stroke-linecap="round" fill="none"></path></svg>