<svg width="860" height="360" viewBox="0 0 860 360" fill="none" xmlns="http://www.w3.org/2000/svg" role="img" aria-label="Illustration of an apartment building"><rect width="860" height="360" fill="#EAE6DC"></rect><circle cx="140" cy="86" r="30" fill="#E7B45A" opacity="0.85"></circle><path d="M0 296 H860 V360 H0 Z" fill="#DED9CC"></path><ellipse cx="430" cy="300" rx="150" ry="18" fill="#D4CEBE"></ellipse><rect x="338" y="118" width="184" height="178" fill="#FBFAF6" stroke="#26456A" stroke-width="3"></rect><rect x="354" y="132" width="42" height="22" fill="#CFE0EE" stroke="#26456A" stroke-width="2.5"></rect><rect x="352" y="154" width="46" height="4" fill="#26456A" opacity="0.5"></rect><rect x="410" y="132" width="42" height="22" fill="#CFE0EE" stroke="#26456A" stroke-width="2.5"></rect><rect x="408" y="154" width="46" height="4" fill="#26456A" opacity="0.5"></rect><rect x="466" y="132" width="42" height="22" fill="#CFE0EE" stroke="#26456A" stroke-width="2.5"></rect><rect x="464" y="154" width="46" height="4" fill="#26456A" opacity="0.5"></rect><rect x="354" y="164" width="42" height="22" fill="#CFE0EE" stroke="#26456A" stroke-width="2.5"></rect><rect x="352" y="186" width="46" height="4" fill="#26456A" opacity="0.5"></rect><rect x="410" y="164" width="42" height="22" fill="#CFE0EE" stroke="#26456A" stroke-width="2.5"></rect><rect x="408" y="186" width="46" height="4" fill="#26456A" opacity="0.5"></rect><rect x="466" y="164" width="42" height="22" fill="#CFE0EE" stroke="#26456A" stroke-width="2.5"></rect><rect x="464" y="186" width="46" height="4" fill="#26456A" opacity="0.5"></rect><rect x="354" y="196" width="42" height="22" fill="#CFE0EE" stroke="#26456A" stroke-width="2.5"></rect><rect x="352" y="218" width="46" height="4" fill="#26456A" opacity="0.5"></rect><rect x="410" y="196" width="42" height="22" fill="#CFE0EE" stroke="#26456A" stroke-width="2.5"></rect><rect x="408" y="218" width="46" height="4" fill="#26456A" opacity="0.5"></rect><rect x="466" y="196" width="42" height="22" fill="#CFE0EE" stroke="#26456A" stroke-width="2.5"></rect><rect x="464" y="218" width="46" height="4" fill="#26456A" opacity="0.5"></rect><rect x="354" y="228" width="42" height="22" fill="#CFE0EE" stroke="#26456A" stroke-width="2.5"></rect><rect x="352" y="250" width="46" height="4" fill="#26456A" opacity="0.5"></rect><rect x="410" y="228" width="42" height="22" fill="#CFE0EE" stroke="#26456A" stroke-width="2.5"></rect><rect x="408" y="250" width="46" height="4" fill="#26456A" opacity="0.5"></rect><rect x="466" y="228" width="42" height="22" fill="#CFE0EE" stroke="#26456A" stroke-width="2.5"></rect><rect x="464" y="250" width="46" height="4" fill="#26456A" opacity="0.5"></rect><rect x="354" y="260" width="42" height="22" fill="#CFE0EE" stroke="#26456A" stroke-width="2.5"></rect><rect x="352" y="282" width="46" height="4" fill="#26456A" opacity="0.5"></rect><rect x="410" y="260" width="42" height="22" fill="#CFE0EE" stroke="#26456A" stroke-width="2.5"></rect><rect x="408" y="282" width="46" height="4" fill="#26456A" opacity="0.5"></rect><rect x="466" y="260" width="42" height="22" fill="#CFE0EE" stroke="#26456A" stroke-width="2.5"></rect><rect x="464" y="282" width="46" height="4" fill="#26456A" opacity="0.5"></rect><rect x="406" y="276" width="48" height="20" fill="#7A5A3C" stroke="#26456A" stroke-width="3"></rect></svg>