<svg width="860" height="360" viewBox="0 0 860 360" fill="none" xmlns="http://www.w3.org/2000/svg" role="img" aria-label="Illustration of an apartment at night"><rect width="860" height="360" fill="#101A26"></rect><defs><linearGradient id="apt" x1="0" y1="0" x2="0" y2="1"><stop offset="0" stop-color="#16263A"></stop><stop offset="1" stop-color="#0E1722"></stop></linearGradient></defs><rect width="860" height="296" fill="url(#apt)"></rect><g fill="#A7C4E0"><circle cx="120" cy="60" r="1.6"></circle><circle cx="250" cy="108" r="1.2"></circle><circle cx="330" cy="56" r="1.4"></circle><circle cx="610" cy="100" r="1.4"></circle><circle cx="700" cy="60" r="1.2"></circle><circle cx="790" cy="120" r="1.6"></circle></g><g><circle cx="712" cy="78" r="28" fill="#D6E2EF"></circle><circle cx="726" cy="70" r="24" fill="#16263A"></circle></g><path d="M0 296 H860 V360 H0 Z" fill="#0C141D"></path><ellipse cx="430" cy="300" rx="150" ry="18" fill="#10202E"></ellipse><rect x="338" y="118" width="184" height="178" fill="#2A3D50" stroke="#5C84B0" stroke-width="3"></rect><rect x="354" y="132" width="42" height="22" fill="#1E2E3C" stroke="#5C84B0" stroke-width="2.5"></rect><rect x="352" y="154" width="46" height="4" fill="#5C84B0" opacity="0.5"></rect><rect x="410" y="132" width="42" height="22" fill="#F0C56E" stroke="#5C84B0" stroke-width="2.5"></rect><rect x="408" y="154" width="46" height="4" fill="#5C84B0" opacity="0.5"></rect><rect x="466" y="132" width="42" height="22" fill="#1E2E3C" stroke="#5C84B0" stroke-width="2.5"></rect><rect x="464" y="154" width="46" height="4" fill="#5C84B0" opacity="0.5"></rect><rect x="354" y="164" width="42" height="22" fill="#F0C56E" stroke="#5C84B0" stroke-width="2.5"></rect><rect x="352" y="186" width="46" height="4" fill="#5C84B0" opacity="0.5"></rect><rect x="410" y="164" width="42" height="22" fill="#1E2E3C" stroke="#5C84B0" stroke-width="2.5"></rect><rect x="408" y="186" width="46" height="4" fill="#5C84B0" opacity="0.5"></rect><rect x="466" y="164" width="42" height="22" fill="#1E2E3C" stroke="#5C84B0" stroke-width="2.5"></rect><rect x="464" y="186" width="46" height="4" fill="#5C84B0" opacity="0.5"></rect><rect x="354" y="196" width="42" height="22" fill="#F0C56E" stroke="#5C84B0" stroke-width="2.5"></rect><rect x="352" y="218" width="46" height="4" fill="#5C84B0" opacity="0.5"></rect><rect x="410" y="196" width="42" height="22" fill="#1E2E3C" stroke="#5C84B0" stroke-width="2.5"></rect><rect x="408" y="218" width="46" height="4" fill="#5C84B0" opacity="0.5"></rect><rect x="466" y="196" width="42" height="22" fill="#F0C56E" stroke="#5C84B0" stroke-width="2.5"></rect><rect x="464" y="218" width="46" height="4" fill="#5C84B0" opacity="0.5"></rect><rect x="354" y="228" width="42" height="22" fill="#F0C56E" stroke="#5C84B0" stroke-width="2.5"></rect><rect x="352" y="250" width="46" height="4" fill="#5C84B0" opacity="0.5"></rect><rect x="410" y="228" width="42" height="22" fill="#1E2E3C" stroke="#5C84B0" stroke-width="2.5"></rect><rect x="408" y="250" width="46" height="4" fill="#5C84B0" opacity="0.5"></rect><rect x="466" y="228" width="42" height="22" fill="#1E2E3C" stroke="#5C84B0" stroke-width="2.5"></rect><rect x="464" y="250" width="46" height="4" fill="#5C84B0" opacity="0.5"></rect><rect x="354" y="260" width="42" height="22" fill="#1E2E3C" stroke="#5C84B0" stroke-width="2.5"></rect><rect x="352" y="282" width="46" height="4" fill="#5C84B0" opacity="0.5"></rect><rect x="410" y="260" width="42" height="22" fill="#F0C56E" stroke="#5C84B0" stroke-width="2.5"></rect><rect x="408" y="282" width="46" height="4" fill="#5C84B0" opacity="0.5"></rect><rect x="466" y="260" width="42" height="22" fill="#1E2E3C" stroke="#5C84B0" stroke-width="2.5"></rect><rect x="464" y="282" width="46" height="4" fill="#5C84B0" opacity="0.5"></rect><rect x="406" y="276" width="48" height="20" fill="#241A22" stroke="#5C84B0" stroke-width="3"></rect></svg>