<svg width="860" height="360" viewBox="0 0 860 360" fill="none" xmlns="http://www.w3.org/2000/svg" role="img" aria-label="Illustration of a baby"><rect width="860" height="360" fill="#EAE6DC"></rect><path d="M0 296 H860 V360 H0 Z" fill="#DED9CC"></path><ellipse cx="430" cy="322" rx="52" ry="14" fill="#D4CEBE"></ellipse><path d="M372 320 Q360 270 384 254 Q430 238 476 254 Q500 270 488 320 Z" fill="#CFE0EE" stroke="#26456A" stroke-width="3" stroke-linejoin="round"></path><circle cx="430" cy="208" r="42" fill="#E8C4A0" stroke="#26456A" stroke-width="3"></circle><path d="M392 200 Q394 174 430 174 Q466 174 468 200 Q450 184 430 184 Q410 184 392 200 Z" fill="#6A4A2E" stroke="#26456A" stroke-width="2"></path><circle cx="430" cy="172" r="6" fill="#6A4A2E"></circle><g fill="#26456A"><circle cx="416" cy="210" r="3.5"></circle><circle cx="444" cy="210" r="3.5"></circle></g><path d="M420 226 Q430 232 440 226" fill="none" stroke="#26456A" stroke-width="2.5"></path><circle cx="406" cy="222" r="6" fill="#E59A9A" opacity="0.6"></circle><circle cx="454" cy="222" r="6" fill="#E59A9A" opacity="0.6"></circle></svg>