<svg width="860" height="360" viewBox="0 0 860 360" fill="none" xmlns="http://www.w3.org/2000/svg" role="img" aria-label="Illustration of a bar"><rect width="860" height="360" fill="#ECE5D5"></rect><rect y="262" width="860" height="98" fill="#C9A36B"></rect><line x1="0" y1="262" x2="860" y2="262" stroke="#26456A" stroke-width="2.5" opacity="0.5"></line><rect x="120" y="120" width="620" height="92" fill="#8A6238" stroke="#26456A" stroke-width="3"></rect><rect x="150" y="138" width="22" height="58" rx="4" fill="#9E2B3A" stroke="#26456A" stroke-width="2"></rect><rect x="218" y="138" width="22" height="58" rx="4" fill="#3E7D5A" stroke="#26456A" stroke-width="2"></rect><rect x="286" y="138" width="22" height="58" rx="4" fill="#C98F33" stroke="#26456A" stroke-width="2"></rect><rect x="354" y="138" width="22" height="58" rx="4" fill="#2C5E8C" stroke="#26456A" stroke-width="2"></rect><rect x="422" y="138" width="22" height="58" rx="4" fill="#7E2230" stroke="#26456A" stroke-width="2"></rect><rect x="490" y="138" width="22" height="58" rx="4" fill="#6E8A66" stroke="#26456A" stroke-width="2"></rect><rect x="558" y="138" width="22" height="58" rx="4" fill="#9E2B3A" stroke="#26456A" stroke-width="2"></rect><rect x="626" y="138" width="22" height="58" rx="4" fill="#3E7D5A" stroke="#26456A" stroke-width="2"></rect><line x1="300" y1="40" x2="300" y2="96" stroke="#26456A" stroke-width="2.5"></line><path d="M278 118 L288 96 L312 96 L322 118 Z" fill="#CFE0EE" stroke="#26456A" stroke-width="3" stroke-linejoin="round"></path><line x1="560" y1="40" x2="560" y2="96" stroke="#26456A" stroke-width="2.5"></line><path d="M538 118 L548 96 L572 96 L582 118 Z" fill="#CFE0EE" stroke="#26456A" stroke-width="3" stroke-linejoin="round"></path><rect x="120" y="248" width="620" height="20" fill="#8A6238" stroke="#26456A" stroke-width="3"></rect><rect x="160" y="268" width="540" height="14" fill="#6A4E2C"></rect><rect x="248" y="282" width="24" height="30" rx="4" fill="#8A6238" stroke="#26456A" stroke-width="2.5"></rect><circle cx="260" cy="280" r="16" fill="#9E2B3A" stroke="#26456A" stroke-width="2.5"></circle><rect x="418" y="282" width="24" height="30" rx="4" fill="#8A6238" stroke="#26456A" stroke-width="2.5"></rect><circle cx="430" cy="280" r="16" fill="#9E2B3A" stroke="#26456A" stroke-width="2.5"></circle><rect x="588" y="282" width="24" height="30" rx="4" fill="#8A6238" stroke="#26456A" stroke-width="2.5"></rect><circle cx="600" cy="280" r="16" fill="#9E2B3A" stroke="#26456A" stroke-width="2.5"></circle></svg>