<svg width="860" height="360" viewBox="0 0 860 360" fill="none" xmlns="http://www.w3.org/2000/svg" role="img" aria-label="Illustration of a glass of beer"><rect width="860" height="360" fill="#EAE6DC"></rect><path d="M0 296 H860 V360 H0 Z" fill="#DED9CC"></path><ellipse cx="430" cy="306" rx="72" ry="16" fill="#D4CEBE"></ellipse><path d="M388 196 L468 196 L462 300 Q460 308 452 308 L404 308 Q396 308 394 300 Z" fill="#E7A93A" stroke="#26456A" stroke-width="3" stroke-linejoin="round"></path><path d="M388 198 Q388 176 408 174 Q430 170 446 180 Q470 178 466 200 Q446 188 424 190 Q400 188 388 198 Z" fill="#FBFAF6" stroke="#26456A" stroke-width="3" stroke-linejoin="round"></path><path d="M466 214 Q502 214 502 250 Q502 288 470 288" fill="none" stroke="#26456A" stroke-width="14" stroke-linecap="round"></path><path d="M466 214 Q502 214 502 250 Q502 288 470 288" fill="none" stroke="#E7A93A" stroke-width="8" stroke-linecap="round"></path><g stroke="#C98F33" stroke-width="2" opacity="0.5"><line x1="408" y1="224" x2="406" y2="296"></line><line x1="430" y1="224" x2="430" y2="298"></line></g></svg>