<svg width="860" height="360" viewBox="0 0 860 360" fill="none" xmlns="http://www.w3.org/2000/svg" role="img" aria-label="Illustration of a boy"><rect width="860" height="360" fill="#EAE6DC"></rect><path d="M0 296 H860 V360 H0 Z" fill="#DED9CC"></path><ellipse cx="430" cy="322" rx="40" ry="14" fill="#D4CEBE"></ellipse><rect x="413" y="288" width="15" height="34" rx="6" fill="#33424E" stroke="#26456A" stroke-width="3"></rect><rect x="432" y="288" width="15" height="34" rx="6" fill="#33424E" stroke="#26456A" stroke-width="3"></rect><path d="M403 292 Q398 246 413 240 Q430 234 447 240 Q462 246 457 292 Z" fill="#2C5E8C" stroke="#26456A" stroke-width="3" stroke-linejoin="round"></path><path d="M404 252 Q390 276 394 296" fill="none" stroke="#2C5E8C" stroke-width="12" stroke-linecap="round"></path><path d="M456 252 Q470 276 466 296" fill="none" stroke="#2C5E8C" stroke-width="12" stroke-linecap="round"></path><rect x="423" y="232" width="14" height="16" fill="#E8C4A0" stroke="#26456A" stroke-width="3"></rect><circle cx="430" cy="214" r="24" fill="#E8C4A0" stroke="#26456A" stroke-width="3"></circle><path d="M406 208 Q406 186 430 186 Q454 186 454 208 Q441 198 430 198 Q419 198 406 208 Z" fill="#3A2A1E" stroke="#26456A" stroke-width="2" stroke-linejoin="round"></path><g fill="#26456A"><circle cx="422" cy="214" r="2.6"></circle><circle cx="438" cy="214" r="2.6"></circle></g><path d="M424 226 Q430 231 436 226" fill="none" stroke="#26456A" stroke-width="2.2"></path></svg>