<svg width="860" height="360" viewBox="0 0 860 360" fill="none" xmlns="http://www.w3.org/2000/svg" role="img" aria-label="Illustration of a brain"><rect width="860" height="360" fill="#EAE6DC"></rect><path d="M0 296 H860 V360 H0 Z" fill="#DED9CC"></path><ellipse cx="430" cy="316" rx="96" ry="16" fill="#D4CEBE"></ellipse><path d="M430 168 Q470 156 488 184 Q518 188 514 222 Q530 240 510 262 Q510 292 474 296 Q452 312 430 300 Q408 312 386 296 Q350 292 350 262 Q330 240 346 222 Q342 188 372 184 Q390 156 430 168 Z" fill="#D98C92" stroke="#26456A" stroke-width="3" stroke-linejoin="round"></path><line x1="430" y1="174" x2="430" y2="300" stroke="#26456A" stroke-width="3"></line><g stroke="#26456A" stroke-width="2.5" fill="none" opacity="0.7"><path d="M392 196 Q406 206 396 220 Q386 234 400 246"></path><path d="M468 196 Q454 206 464 220 Q474 234 460 246"></path><path d="M378 264 Q396 270 388 284"></path><path d="M482 264 Q464 270 472 284"></path></g></svg>