<svg width="860" height="360" viewBox="0 0 860 360" fill="none" xmlns="http://www.w3.org/2000/svg" role="img" aria-label="Illustration of a building"><rect width="860" height="360" fill="#EAE6DC"></rect><circle cx="140" cy="86" r="30" fill="#E7B45A" opacity="0.85"></circle><path d="M0 296 H860 V360 H0 Z" fill="#DED9CC"></path><ellipse cx="430" cy="300" rx="130" ry="18" fill="#D4CEBE"></ellipse><rect x="350" y="150" width="160" height="146" fill="#FBFAF6" stroke="#26456A" stroke-width="3"></rect><rect x="366" y="168" width="32" height="20" fill="#CFE0EE" stroke="#26456A" stroke-width="2.5"></rect><rect x="412" y="168" width="32" height="20" fill="#CFE0EE" stroke="#26456A" stroke-width="2.5"></rect><rect x="458" y="168" width="32" height="20" fill="#CFE0EE" stroke="#26456A" stroke-width="2.5"></rect><rect x="366" y="198" width="32" height="20" fill="#CFE0EE" stroke="#26456A" stroke-width="2.5"></rect><rect x="412" y="198" width="32" height="20" fill="#CFE0EE" stroke="#26456A" stroke-width="2.5"></rect><rect x="458" y="198" width="32" height="20" fill="#CFE0EE" stroke="#26456A" stroke-width="2.5"></rect><rect x="366" y="228" width="32" height="20" fill="#CFE0EE" stroke="#26456A" stroke-width="2.5"></rect><rect x="412" y="228" width="32" height="20" fill="#CFE0EE" stroke="#26456A" stroke-width="2.5"></rect><rect x="458" y="228" width="32" height="20" fill="#CFE0EE" stroke="#26456A" stroke-width="2.5"></rect><rect x="366" y="258" width="32" height="20" fill="#CFE0EE" stroke="#26456A" stroke-width="2.5"></rect><rect x="412" y="258" width="32" height="20" fill="#CFE0EE" stroke="#26456A" stroke-width="2.5"></rect><rect x="458" y="258" width="32" height="20" fill="#CFE0EE" stroke="#26456A" stroke-width="2.5"></rect><rect x="412" y="276" width="36" height="20" fill="#7A5A3C" stroke="#26456A" stroke-width="3"></rect></svg>