<svg width="860" height="360" viewBox="0 0 860 360" fill="none" xmlns="http://www.w3.org/2000/svg" role="img" aria-label="Illustration of a camp"><rect width="860" height="360" fill="#EAE6DC"></rect><circle cx="140" cy="86" r="30" fill="#E7B45A" opacity="0.85"></circle><path d="M0 296 H860 V360 H0 Z" fill="#6E8472"></path><g opacity="0.92"><rect x="150" y="232" width="9" height="64" fill="#5E6F66"></rect><circle cx="154" cy="220" r="32" fill="#728C77" stroke="#26456A" stroke-width="2.5"></circle></g><path d="M270 296 L340 196 L410 296 Z" fill="#9E2B3A" stroke="#26456A" stroke-width="3" stroke-linejoin="round"></path><path d="M340 196 L340 296" stroke="#26456A" stroke-width="2.5"></path><path d="M326 296 Q340 256 354 296 Z" fill="#7E1F2C"></path><path d="M470 296 L532 206 L594 296 Z" fill="#2C5E8C" stroke="#26456A" stroke-width="3" stroke-linejoin="round"></path><path d="M532 206 L532 296" stroke="#26456A" stroke-width="2.5"></path><rect x="404" y="290" width="52" height="9" rx="4" fill="#7A5A3C" stroke="#26456A" stroke-width="2.5" transform="rotate(-14 430 295)"></rect><rect x="404" y="290" width="52" height="9" rx="4" fill="#6A4E34" stroke="#26456A" stroke-width="2.5" transform="rotate(14 430 295)"></rect><path d="M430 250 C448 274 446 290 430 296 C414 290 412 274 430 250 Z" fill="#E7702A"></path><path d="M430 266 C440 282 438 292 430 296 C422 292 420 282 430 266 Z" fill="#E7B45A"></path></svg>