<svg width="860" height="360" viewBox="0 0 860 360" fill="none" xmlns="http://www.w3.org/2000/svg" role="img" aria-label="Illustration of a camp at night"><rect width="860" height="360" fill="#101A26"></rect><defs><linearGradient id="cmp1" x1="0" y1="0" x2="0" y2="1"><stop offset="0" stop-color="#16263A"></stop><stop offset="1" stop-color="#0E1722"></stop></linearGradient></defs><rect width="860" height="360" fill="url(#cmp1)"></rect><g fill="#A7C4E0"><circle cx="120" cy="60" r="1.6"></circle><circle cx="250" cy="108" r="1.2"></circle><circle cx="330" cy="56" r="1.4"></circle><circle cx="610" cy="100" r="1.4"></circle><circle cx="700" cy="60" r="1.2"></circle><circle cx="790" cy="120" r="1.6"></circle><circle cx="180" cy="170" r="1.1"></circle><circle cx="540" cy="150" r="1.2"></circle></g><g><circle cx="712" cy="78" r="30" fill="#D6E2EF"></circle><circle cx="727" cy="70" r="26" fill="#16263A"></circle></g><path d="M0 296 H860 V360 H0 Z" fill="#0C141D"></path><g opacity="0.92"><rect x="150" y="232" width="9" height="64" fill="#22343F"></rect><circle cx="154" cy="220" r="32" fill="#26414F" stroke="#26456A" stroke-width="2.5"></circle></g><path d="M270 296 L340 196 L410 296 Z" fill="#3A4A38" stroke="#26456A" stroke-width="3" stroke-linejoin="round"></path><path d="M340 196 L340 296" stroke="#26456A" stroke-width="2.5"></path><path d="M326 296 Q340 256 354 296 Z" fill="#F0C56E"></path><path d="M470 296 L532 206 L594 296 Z" fill="#33455A" stroke="#26456A" stroke-width="3" stroke-linejoin="round"></path><path d="M532 206 L532 296" stroke="#26456A" stroke-width="2.5"></path><ellipse cx="430" cy="300" rx="60" ry="16" fill="#F0C56E" opacity="0.2"></ellipse><rect x="404" y="290" width="52" height="9" rx="4" fill="#7A5A3C" stroke="#26456A" stroke-width="2.5" transform="rotate(-14 430 295)"></rect><rect x="404" y="290" width="52" height="9" rx="4" fill="#6A4E34" stroke="#26456A" stroke-width="2.5" transform="rotate(14 430 295)"></rect><path d="M430 250 C448 274 446 290 430 296 C414 290 412 274 430 250 Z" fill="#F0A83A"></path><path d="M430 266 C440 282 438 292 430 296 C422 292 420 282 430 266 Z" fill="#E7B45A"></path></svg>