<svg width="860" height="360" viewBox="0 0 860 360" fill="none" xmlns="http://www.w3.org/2000/svg" role="img" aria-label="Illustration of a castle at night"><rect width="860" height="360" fill="#101A26"></rect><defs><linearGradient id="cassky" x1="0" y1="0" x2="0" y2="1"><stop offset="0" stop-color="#16263A"></stop><stop offset="1" stop-color="#0E1722"></stop></linearGradient></defs><rect width="860" height="296" fill="url(#cassky)"></rect><g fill="#A7C4E0"><circle cx="120" cy="60" r="1.6"></circle><circle cx="250" cy="108" r="1.2"></circle><circle cx="330" cy="56" r="1.4"></circle><circle cx="610" cy="100" r="1.4"></circle><circle cx="700" cy="60" r="1.2"></circle><circle cx="790" cy="120" r="1.6"></circle></g><g><circle cx="712" cy="78" r="28" fill="#D6E2EF"></circle><circle cx="726" cy="70" r="24" fill="#16263A"></circle></g><path d="M0 296 H860 V360 H0 Z" fill="#0C141D"></path><ellipse cx="430" cy="300" rx="260" ry="18" fill="#10202E"></ellipse><rect x="316" y="160" width="60" height="136" fill="#33424E" stroke="#5C84B0" stroke-width="3"></rect><rect x="484" y="160" width="60" height="136" fill="#33424E" stroke="#5C84B0" stroke-width="3"></rect><rect x="376" y="200" width="108" height="96" fill="#33424E" stroke="#5C84B0" stroke-width="3"></rect><rect x="316" y="146" width="10" height="14" fill="#33424E" stroke="#5C84B0" stroke-width="2.5"></rect><rect x="334" y="146" width="10" height="14" fill="#33424E" stroke="#5C84B0" stroke-width="2.5"></rect><rect x="352" y="146" width="10" height="14" fill="#33424E" stroke="#5C84B0" stroke-width="2.5"></rect><rect x="370" y="146" width="10" height="14" fill="#33424E" stroke="#5C84B0" stroke-width="2.5"></rect><rect x="484" y="146" width="10" height="14" fill="#33424E" stroke="#5C84B0" stroke-width="2.5"></rect><rect x="502" y="146" width="10" height="14" fill="#33424E" stroke="#5C84B0" stroke-width="2.5"></rect><rect x="520" y="146" width="10" height="14" fill="#33424E" stroke="#5C84B0" stroke-width="2.5"></rect><rect x="538" y="146" width="10" height="14" fill="#33424E" stroke="#5C84B0" stroke-width="2.5"></rect><line x1="486" y1="138" x2="486" y2="112" stroke="#5C84B0" stroke-width="2.5"></line><path d="M486 114 L520 122 L486 130 Z" fill="#3A2530" stroke="#5C84B0" stroke-width="2"></path><path d="M404 296 L404 244 Q404 220 430 220 Q456 220 456 244 L456 296 Z" fill="#241A22" stroke="#5C84B0" stroke-width="3"></path><rect x="332" y="184" width="24" height="30" fill="#F0C56E" stroke="#5C84B0" stroke-width="2.5"></rect><rect x="498" y="184" width="24" height="30" fill="#1E2E3C" stroke="#5C84B0" stroke-width="2.5"></rect><rect x="396" y="224" width="20" height="26" fill="#F0C56E" stroke="#5C84B0" stroke-width="2.5"></rect><rect x="444" y="224" width="20" height="26" fill="#1E2E3C" stroke="#5C84B0" stroke-width="2.5"></rect></svg>