<svg width="860" height="360" viewBox="0 0 860 360" fill="none" xmlns="http://www.w3.org/2000/svg" role="img" aria-label="Illustration of a castle"><rect width="860" height="360" fill="#EAE6DC"></rect><circle cx="140" cy="86" r="30" fill="#E7B45A" opacity="0.85"></circle><path d="M0 296 H860 V360 H0 Z" fill="#DED9CC"></path><ellipse cx="430" cy="300" rx="260" ry="18" fill="#D4CEBE"></ellipse><rect x="316" y="160" width="60" height="136" fill="#D8D2C4" stroke="#26456A" stroke-width="3"></rect><rect x="484" y="160" width="60" height="136" fill="#D8D2C4" stroke="#26456A" stroke-width="3"></rect><rect x="376" y="200" width="108" height="96" fill="#D8D2C4" stroke="#26456A" stroke-width="3"></rect><rect x="316" y="146" width="10" height="14" fill="#D8D2C4" stroke="#26456A" stroke-width="2.5"></rect><rect x="334" y="146" width="10" height="14" fill="#D8D2C4" stroke="#26456A" stroke-width="2.5"></rect><rect x="352" y="146" width="10" height="14" fill="#D8D2C4" stroke="#26456A" stroke-width="2.5"></rect><rect x="370" y="146" width="10" height="14" fill="#D8D2C4" stroke="#26456A" stroke-width="2.5"></rect><rect x="484" y="146" width="10" height="14" fill="#D8D2C4" stroke="#26456A" stroke-width="2.5"></rect><rect x="502" y="146" width="10" height="14" fill="#D8D2C4" stroke="#26456A" stroke-width="2.5"></rect><rect x="520" y="146" width="10" height="14" fill="#D8D2C4" stroke="#26456A" stroke-width="2.5"></rect><rect x="538" y="146" width="10" height="14" fill="#D8D2C4" stroke="#26456A" stroke-width="2.5"></rect><line x1="486" y1="138" x2="486" y2="112" stroke="#26456A" stroke-width="2.5"></line><path d="M486 114 L520 122 L486 130 Z" fill="#9E2B3A" stroke="#26456A" stroke-width="2"></path><path d="M404 296 L404 244 Q404 220 430 220 Q456 220 456 244 L456 296 Z" fill="#7A5A3C" stroke="#26456A" stroke-width="3"></path><rect x="332" y="184" width="24" height="30" fill="#CFE0EE" stroke="#26456A" stroke-width="2.5"></rect><rect x="498" y="184" width="24" height="30" fill="#CFE0EE" stroke="#26456A" stroke-width="2.5"></rect><rect x="396" y="224" width="20" height="26" fill="#CFE0EE" stroke="#26456A" stroke-width="2.5"></rect><rect x="444" y="224" width="20" height="26" fill="#CFE0EE" stroke="#26456A" stroke-width="2.5"></rect></svg>