<svg width="860" height="360" viewBox="0 0 860 360" fill="none" xmlns="http://www.w3.org/2000/svg" role="img" aria-label="Illustration of a cat">
  <rect width="860" height="360" fill="#EAE6DC"></rect>

  
  <circle cx="140" cy="86" r="30" fill="#E7B45A" opacity="0.85"></circle>

  
  <path d="M0 296 H860 V360 H0 Z" fill="#DED9CC"></path>
  <ellipse cx="430" cy="302" rx="120" ry="16" fill="#D4CEBE"></ellipse>

  
  <g stroke="#26456A" stroke-width="3" stroke-linejoin="round">
    <path d="M398 158 L390 112 L428 146 Z" fill="#5A6B78"></path>
    <path d="M462 158 L470 112 L432 146 Z" fill="#5A6B78"></path>
  </g>

  
  <path d="M388 298 C372 230 392 192 430 192 C468 192 488 230 472 298 Z" fill="#5A6B78" stroke="#26456A" stroke-width="3" stroke-linejoin="round"></path>
  
  <path d="M430 232 C414 254 416 286 428 298" fill="none" stroke="#728493" stroke-width="14" stroke-linecap="round" opacity="0.6"></path>

  
  <path d="M470 296 C520 300 528 246 494 230" fill="none" stroke="#26456A" stroke-width="18" stroke-linecap="round"></path>
  <path d="M470 296 C520 300 528 246 494 230" fill="none" stroke="#5A6B78" stroke-width="12" stroke-linecap="round"></path>

  
  <ellipse cx="410" cy="296" rx="16" ry="9" fill="#5A6B78" stroke="#26456A" stroke-width="3"></ellipse>
  <ellipse cx="450" cy="296" rx="16" ry="9" fill="#5A6B78" stroke="#26456A" stroke-width="3"></ellipse>

  
  <circle cx="430" cy="178" r="44" fill="#5A6B78" stroke="#26456A" stroke-width="3"></circle>

  
  <g>
    <ellipse cx="413" cy="176" rx="8" ry="12" fill="#2E7D5B"></ellipse>
    <ellipse cx="447" cy="176" rx="8" ry="12" fill="#2E7D5B"></ellipse>
    <rect x="411.5" y="166" width="3" height="20" rx="1.5" fill="#142A20"></rect>
    <rect x="445.5" y="166" width="3" height="20" rx="1.5" fill="#142A20"></rect>
  </g>
  
  <path d="M424 194 L436 194 L430 201 Z" fill="#9E2B3A"></path>
  
  <g stroke="#41525F" stroke-width="2" stroke-linecap="round" opacity="0.75">
    <line x1="404" y1="196" x2="368" y2="190"></line>
    <line x1="404" y1="200" x2="370" y2="204"></line>
    <line x1="456" y1="196" x2="492" y2="190"></line>
    <line x1="456" y1="200" x2="490" y2="204"></line>
  </g>
</svg>