<svg width="860" height="360" viewBox="0 0 860 360" fill="none" xmlns="http://www.w3.org/2000/svg" role="img" aria-label="Illustration of Christmas"><rect width="860" height="360" fill="#EAE6DC"></rect><circle cx="140" cy="86" r="30" fill="#E7B45A" opacity="0.85"></circle><path d="M0 296 H860 V360 H0 Z" fill="#E8E6DF"></path><rect x="420" y="276" width="20" height="22" fill="#6A4E34" stroke="#26456A" stroke-width="3"></rect><path d="M364 280 L430 168 L496 280 Z" fill="#3E7D5A" stroke="#26456A" stroke-width="3" stroke-linejoin="round"></path><path d="M374 232 L430 134 L486 232 Z" fill="#4E8C5A" stroke="#26456A" stroke-width="3" stroke-linejoin="round"></path><path d="M384 188 L430 108 L476 188 Z" fill="#3E7D5A" stroke="#26456A" stroke-width="3" stroke-linejoin="round"></path><circle cx="430" cy="150" r="6" fill="#9E2B3A"></circle><circle cx="408" cy="200" r="6" fill="#E7B45A"></circle><circle cx="452" cy="206" r="6" fill="#2C5E8C"></circle><circle cx="396" cy="250" r="6" fill="#FBFAF6"></circle><circle cx="430" cy="244" r="6" fill="#9E2B3A"></circle><circle cx="466" cy="250" r="6" fill="#E7B45A"></circle><circle cx="418" cy="272" r="6" fill="#2C5E8C"></circle><circle cx="448" cy="270" r="6" fill="#FBFAF6"></circle><path d="M430 92 l5 12 13 1 -9 9 2 13 -11 -6 -11 6 2 -13 -9 -9 13 -1 Z" fill="#E7B45A" stroke="#26456A" stroke-width="2" stroke-linejoin="round"></path><rect x="320" y="270" width="40" height="28" fill="#9E2B3A" stroke="#26456A" stroke-width="2.5"></rect><rect x="336" y="270" width="8" height="28" fill="#E7B45A"></rect><rect x="500" y="266" width="46" height="32" fill="#2C5E8C" stroke="#26456A" stroke-width="2.5"></rect><rect x="519" y="266" width="8" height="32" fill="#E7B45A"></rect></svg>