<svg width="860" height="360" viewBox="0 0 860 360" fill="none" xmlns="http://www.w3.org/2000/svg" role="img" aria-label="Illustration of a church at night"><rect width="860" height="360" fill="#101A26"></rect><defs><linearGradient id="chusky" x1="0" y1="0" x2="0" y2="1"><stop offset="0" stop-color="#16263A"></stop><stop offset="1" stop-color="#0E1722"></stop></linearGradient></defs><rect width="860" height="296" fill="url(#chusky)"></rect><g fill="#A7C4E0"><circle cx="120" cy="60" r="1.6"></circle><circle cx="250" cy="108" r="1.2"></circle><circle cx="330" cy="56" r="1.4"></circle><circle cx="610" cy="100" r="1.4"></circle><circle cx="700" cy="60" r="1.2"></circle><circle cx="790" cy="120" r="1.6"></circle></g><g><circle cx="712" cy="78" r="28" fill="#D6E2EF"></circle><circle cx="726" cy="70" r="24" fill="#16263A"></circle></g><path d="M0 296 H860 V360 H0 Z" fill="#0C141D"></path><ellipse cx="430" cy="300" rx="180" ry="18" fill="#10202E"></ellipse><rect x="338" y="208" width="184" height="88" fill="#2A3D50" stroke="#5C84B0" stroke-width="3"></rect><rect x="392" y="120" width="76" height="88" fill="#2A3D50" stroke="#5C84B0" stroke-width="3"></rect><path d="M388 120 L430 56 L472 120 Z" fill="#2C4358" stroke="#5C84B0" stroke-width="3" stroke-linejoin="round"></path><g stroke="#5C84B0" stroke-width="3"><line x1="430" y1="56" x2="430" y2="34"></line><line x1="420" y1="44" x2="440" y2="44"></line></g><circle cx="430" cy="156" r="16" fill="#F0C56E" stroke="#5C84B0" stroke-width="2.5"></circle><path d="M404 296 L404 252 Q404 236 430 236 Q456 236 456 252 L456 296 Z" fill="#241A22" stroke="#5C84B0" stroke-width="3"></path><path d="M356 296 L356 244 Q356 230 372 230 Q388 230 388 244 L388 296 Z" fill="#F0C56E" stroke="#5C84B0" stroke-width="2.5"></path><path d="M472 296 L472 244 Q472 230 488 230 Q504 230 504 244 L504 296 Z" fill="#F0C56E" stroke="#5C84B0" stroke-width="2.5"></path></svg>