<svg width="860" height="360" viewBox="0 0 860 360" fill="none" xmlns="http://www.w3.org/2000/svg" role="img" aria-label="Illustration of a church"><rect width="860" height="360" fill="#EAE6DC"></rect><circle cx="140" cy="86" r="30" fill="#E7B45A" opacity="0.85"></circle><path d="M0 296 H860 V360 H0 Z" fill="#DED9CC"></path><ellipse cx="430" cy="300" rx="180" ry="18" fill="#D4CEBE"></ellipse><rect x="338" y="208" width="184" height="88" fill="#FBFAF6" stroke="#26456A" stroke-width="3"></rect><rect x="392" y="120" width="76" height="88" fill="#FBFAF6" stroke="#26456A" stroke-width="3"></rect><path d="M388 120 L430 56 L472 120 Z" fill="#2C5E8C" stroke="#26456A" stroke-width="3" stroke-linejoin="round"></path><g stroke="#26456A" stroke-width="3"><line x1="430" y1="56" x2="430" y2="34"></line><line x1="420" y1="44" x2="440" y2="44"></line></g><circle cx="430" cy="156" r="16" fill="#CFE0EE" stroke="#26456A" stroke-width="2.5"></circle><path d="M404 296 L404 252 Q404 236 430 236 Q456 236 456 252 L456 296 Z" fill="#7A5A3C" stroke="#26456A" stroke-width="3"></path><path d="M356 296 L356 244 Q356 230 372 230 Q388 230 388 244 L388 296 Z" fill="#CFE0EE" stroke="#26456A" stroke-width="2.5"></path><path d="M472 296 L472 244 Q472 230 488 230 Q504 230 504 244 L504 296 Z" fill="#CFE0EE" stroke="#26456A" stroke-width="2.5"></path></svg>