<svg width="860" height="360" viewBox="0 0 860 360" fill="none" xmlns="http://www.w3.org/2000/svg" role="img" aria-label="Illustration of a classroom at night"><rect width="860" height="360" fill="#19262F"></rect><rect y="262" width="860" height="98" fill="#13202A"></rect><line x1="0" y1="262" x2="860" y2="262" stroke="#5C84B0" stroke-width="2.5" opacity="0.4"></line><rect x="110" y="120" width="210" height="120" fill="#2E5346" stroke="#5C84B0" stroke-width="3"></rect><g stroke="#CFE0D6" stroke-width="3" opacity="0.8" stroke-linecap="round"><line x1="134" y1="156" x2="290" y2="156"></line><line x1="134" y1="182" x2="270" y2="182"></line><line x1="134" y1="208" x2="290" y2="208"></line></g><rect x="610" y="124" width="150" height="112" fill="#16263A" stroke="#5C84B0" stroke-width="3"></rect><g fill="#A7C4E0"><circle cx="655" cy="157.6" r="1.4"></circle><circle cx="700" cy="180" r="1.2"></circle></g><g><circle cx="718" cy="155.36" r="13" fill="#D6E2EF"></circle><circle cx="727" cy="150.88" r="11" fill="#16263A"></circle></g><line x1="685" y1="124" x2="685" y2="236" stroke="#5C84B0" stroke-width="2.5"></line><line x1="610" y1="180" x2="760" y2="180" stroke="#5C84B0" stroke-width="2.5"></line><line x1="440" y1="40" x2="440" y2="108" stroke="#5C84B0" stroke-width="2.5"></line><path d="M418 130 L428 108 L452 108 L462 130 Z" fill="#F0C56E" stroke="#5C84B0" stroke-width="3" stroke-linejoin="round"></path><ellipse cx="440" cy="152" rx="64" ry="40" fill="#F0C56E" opacity="0.16"></ellipse><rect x="300" y="244" width="96" height="14" fill="#241A12" stroke="#5C84B0" stroke-width="3"></rect><rect x="306" y="258" width="10" height="34" fill="#241A12"></rect><rect x="380" y="258" width="10" height="34" fill="#241A12"></rect><rect x="334" y="262" width="34" height="30" rx="4" fill="#2C4358" stroke="#5C84B0" stroke-width="2.5"></rect><rect x="430" y="244" width="96" height="14" fill="#241A12" stroke="#5C84B0" stroke-width="3"></rect><rect x="436" y="258" width="10" height="34" fill="#241A12"></rect><rect x="510" y="258" width="10" height="34" fill="#241A12"></rect><rect x="464" y="262" width="34" height="30" rx="4" fill="#2C4358" stroke="#5C84B0" stroke-width="2.5"></rect><rect x="560" y="244" width="96" height="14" fill="#241A12" stroke="#5C84B0" stroke-width="3"></rect><rect x="566" y="258" width="10" height="34" fill="#241A12"></rect><rect x="640" y="258" width="10" height="34" fill="#241A12"></rect><rect x="594" y="262" width="34" height="30" rx="4" fill="#2C4358" stroke="#5C84B0" stroke-width="2.5"></rect></svg>