<svg width="860" height="360" viewBox="0 0 860 360" fill="none" xmlns="http://www.w3.org/2000/svg" role="img" aria-label="Illustration of a classroom"><rect width="860" height="360" fill="#ECE5D5"></rect><rect y="262" width="860" height="98" fill="#C9A36B"></rect><line x1="0" y1="262" x2="860" y2="262" stroke="#26456A" stroke-width="2.5" opacity="0.5"></line><rect x="110" y="120" width="210" height="120" fill="#2E5346" stroke="#26456A" stroke-width="3"></rect><g stroke="#CFE0D6" stroke-width="3" opacity="0.8" stroke-linecap="round"><line x1="134" y1="156" x2="290" y2="156"></line><line x1="134" y1="182" x2="270" y2="182"></line><line x1="134" y1="208" x2="290" y2="208"></line></g><rect x="610" y="124" width="150" height="112" fill="#BFD8EE" stroke="#26456A" stroke-width="3"></rect><circle cx="715" cy="157.6" r="14" fill="#E7B45A"></circle><path d="M610 202.39999999999998 Q670 180 760 204.64 L760 236 L610 236 Z" fill="#8FA593"></path><line x1="685" y1="124" x2="685" y2="236" stroke="#26456A" stroke-width="2.5"></line><line x1="610" y1="180" x2="760" y2="180" stroke="#26456A" stroke-width="2.5"></line><line x1="440" y1="40" x2="440" y2="108" stroke="#26456A" stroke-width="2.5"></line><path d="M418 130 L428 108 L452 108 L462 130 Z" fill="#CFE0EE" stroke="#26456A" stroke-width="3" stroke-linejoin="round"></path><rect x="300" y="244" width="96" height="14" fill="#8A6238" stroke="#26456A" stroke-width="3"></rect><rect x="306" y="258" width="10" height="34" fill="#8A6238"></rect><rect x="380" y="258" width="10" height="34" fill="#8A6238"></rect><rect x="334" y="262" width="34" height="30" rx="4" fill="#CFE0EE" stroke="#26456A" stroke-width="2.5"></rect><rect x="430" y="244" width="96" height="14" fill="#8A6238" stroke="#26456A" stroke-width="3"></rect><rect x="436" y="258" width="10" height="34" fill="#8A6238"></rect><rect x="510" y="258" width="10" height="34" fill="#8A6238"></rect><rect x="464" y="262" width="34" height="30" rx="4" fill="#CFE0EE" stroke="#26456A" stroke-width="2.5"></rect><rect x="560" y="244" width="96" height="14" fill="#8A6238" stroke="#26456A" stroke-width="3"></rect><rect x="566" y="258" width="10" height="34" fill="#8A6238"></rect><rect x="640" y="258" width="10" height="34" fill="#8A6238"></rect><rect x="594" y="262" width="34" height="30" rx="4" fill="#CFE0EE" stroke="#26456A" stroke-width="2.5"></rect></svg>