<svg width="860" height="360" viewBox="0 0 860 360" fill="none" xmlns="http://www.w3.org/2000/svg" role="img" aria-label="Illustration of a college"><rect width="860" height="360" fill="#EAE6DC"></rect><circle cx="140" cy="86" r="30" fill="#E7B45A" opacity="0.85"></circle><path d="M0 296 H860 V360 H0 Z" fill="#DED9CC"></path><ellipse cx="430" cy="300" rx="250" ry="18" fill="#D4CEBE"></ellipse><rect x="312" y="200" width="236" height="96" fill="#FBFAF6" stroke="#26456A" stroke-width="3"></rect><path d="M296 200 L430 142 L564 200 Z" fill="#CFE0EE" stroke="#26456A" stroke-width="3" stroke-linejoin="round"></path><g fill="#FBFAF6" stroke="#26456A" stroke-width="3"><rect x="332" y="210" width="16" height="86"></rect><rect x="380" y="210" width="16" height="86"></rect><rect x="464" y="210" width="16" height="86"></rect><rect x="512" y="210" width="16" height="86"></rect></g><rect x="410" y="234" width="40" height="62" fill="#7A5A3C" stroke="#26456A" stroke-width="3"></rect><rect x="398" y="120" width="64" height="40" fill="#CFE0EE" stroke="#26456A" stroke-width="3"></rect><path d="M398 120 Q430 92 462 120 Z" fill="#2C5E8C" stroke="#26456A" stroke-width="3" stroke-linejoin="round"></path><line x1="430" y1="92" x2="430" y2="74" stroke="#26456A" stroke-width="2.5"></line></svg>