<svg width="860" height="360" viewBox="0 0 860 360" fill="none" xmlns="http://www.w3.org/2000/svg" role="img" aria-label="Illustration of a college at night"><rect width="860" height="360" fill="#101A26"></rect><defs><linearGradient id="colsky" x1="0" y1="0" x2="0" y2="1"><stop offset="0" stop-color="#16263A"></stop><stop offset="1" stop-color="#0E1722"></stop></linearGradient></defs><rect width="860" height="296" fill="url(#colsky)"></rect><g fill="#A7C4E0"><circle cx="120" cy="60" r="1.6"></circle><circle cx="250" cy="108" r="1.2"></circle><circle cx="330" cy="56" r="1.4"></circle><circle cx="610" cy="100" r="1.4"></circle><circle cx="700" cy="60" r="1.2"></circle><circle cx="790" cy="120" r="1.6"></circle></g><g><circle cx="712" cy="78" r="28" fill="#D6E2EF"></circle><circle cx="726" cy="70" r="24" fill="#16263A"></circle></g><path d="M0 296 H860 V360 H0 Z" fill="#0C141D"></path><ellipse cx="430" cy="300" rx="250" ry="18" fill="#10202E"></ellipse><rect x="312" y="200" width="236" height="96" fill="#2A3D50" stroke="#5C84B0" stroke-width="3"></rect><path d="M296 200 L430 142 L564 200 Z" fill="#243646" stroke="#5C84B0" stroke-width="3" stroke-linejoin="round"></path><g fill="#2A3D50" stroke="#5C84B0" stroke-width="3"><rect x="332" y="210" width="16" height="86"></rect><rect x="380" y="210" width="16" height="86"></rect><rect x="464" y="210" width="16" height="86"></rect><rect x="512" y="210" width="16" height="86"></rect></g><rect x="410" y="234" width="40" height="62" fill="#241A22" stroke="#5C84B0" stroke-width="3"></rect><rect x="398" y="120" width="64" height="40" fill="#243646" stroke="#5C84B0" stroke-width="3"></rect><path d="M398 120 Q430 92 462 120 Z" fill="#2C4358" stroke="#5C84B0" stroke-width="3" stroke-linejoin="round"></path><line x1="430" y1="92" x2="430" y2="74" stroke="#5C84B0" stroke-width="2.5"></line></svg>