<svg width="860" height="360" viewBox="0 0 860 360" fill="none" xmlns="http://www.w3.org/2000/svg" role="img" aria-label="Illustration of a doctor"><rect width="860" height="360" fill="#EAE6DC"></rect><path d="M0 296 H860 V360 H0 Z" fill="#DED9CC"></path><ellipse cx="430" cy="322" rx="48" ry="14" fill="#D4CEBE"></ellipse><rect x="407" y="250" width="19" height="72" rx="7" fill="#5A6470" stroke="#26456A" stroke-width="3"></rect><rect x="434" y="250" width="19" height="72" rx="7" fill="#5A6470" stroke="#26456A" stroke-width="3"></rect><path d="M396 256 Q390 196 408 188 Q430 180 452 188 Q470 196 464 256 Z" fill="#FBFAF6" stroke="#26456A" stroke-width="3" stroke-linejoin="round"></path><path d="M398 202 Q378 232 384 264" fill="none" stroke="#FBFAF6" stroke-width="15" stroke-linecap="round"></path><path d="M462 202 Q482 232 476 264" fill="none" stroke="#FBFAF6" stroke-width="15" stroke-linecap="round"></path><circle cx="382" cy="268" r="7" fill="#E8C4A0" stroke="#26456A" stroke-width="2.5"></circle><circle cx="478" cy="268" r="7" fill="#E8C4A0" stroke="#26456A" stroke-width="2.5"></circle><rect x="421" y="170" width="18" height="22" fill="#E8C4A0" stroke="#26456A" stroke-width="3"></rect><circle cx="430" cy="148" r="30" fill="#E8C4A0" stroke="#26456A" stroke-width="3"></circle><path d="M400 142 Q398 114 430 114 Q462 114 460 142 Q444 130 430 130 Q416 130 400 142 Z" fill="#1A1A1A" stroke="#26456A" stroke-width="2" stroke-linejoin="round"></path><g fill="#26456A"><circle cx="420" cy="148" r="3"></circle><circle cx="440" cy="148" r="3"></circle></g><path d="M422 162 Q430 168 438 162" fill="none" stroke="#26456A" stroke-width="2.5"></path><path d="M412 192 Q412 220 396 226 M448 192 Q448 224 426 230 Q414 232 414 244" fill="none" stroke="#5A6B78" stroke-width="3.5"></path><circle cx="414" cy="250" r="7" fill="#5A6B78" stroke="#26456A" stroke-width="2.5"></circle><rect x="446" y="200" width="18" height="18" fill="#9E2B3A"></rect><rect x="450" y="196" width="10" height="26" fill="#9E2B3A"></rect></svg>