<svg width="860" height="360" viewBox="0 0 860 360" fill="none" xmlns="http://www.w3.org/2000/svg" role="img" aria-label="Illustration of a dragon"><rect width="860" height="360" fill="#EAE6DC"></rect><path d="M0 296 H860 V360 H0 Z" fill="#DED9CC"></path><ellipse cx="430" cy="312" rx="122" ry="16" fill="#D4CEBE"></ellipse><path d="M452 206 C430 150 410 116 392 102 C386 130 388 162 398 190 C410 182 422 190 428 202 C434 192 446 198 450 208 Z" fill="#3E7049" stroke="#26456A" stroke-width="3" stroke-linejoin="round"></path><g stroke="#26456A" stroke-width="2.5" fill="none" stroke-linecap="round"><path d="M450 206 L394 104"></path><path d="M450 206 L401 188"></path><path d="M450 206 L428 200"></path></g><path d="M398 252 C356 258 320 266 298 284 C290 292 296 300 306 295 C328 286 352 280 374 276 C386 274 394 264 398 254 Z" fill="#4E8C5A" stroke="#26456A" stroke-width="3" stroke-linejoin="round"></path><g fill="#3E7049" stroke="#26456A" stroke-width="2" stroke-linejoin="round"><path d="M330 278 L334 262 L344 276 Z"></path><path d="M352 274 L356 258 L366 272 Z"></path></g><path d="M400 252 h22 v40 q0 6 -11 6 q-11 0 -11 -6 Z" fill="#3E7049" stroke="#26456A" stroke-width="3" stroke-linejoin="round"></path><path d="M392 258 C360 252 354 214 378 196 C404 178 452 176 478 196 C500 212 502 248 478 258 C448 268 416 266 392 258 Z" fill="#4E8C5A" stroke="#26456A" stroke-width="3" stroke-linejoin="round"></path><path d="M396 256 C420 266 452 266 476 256 C470 270 448 274 432 274 C414 274 404 268 396 256 Z" fill="#7DBE86"></path><path d="M460 254 h22 v40 q0 6 -11 6 q-11 0 -11 -6 Z" fill="#4E8C5A" stroke="#26456A" stroke-width="3" stroke-linejoin="round"></path><g fill="#7DBE86" stroke="#26456A" stroke-width="1.6" stroke-linejoin="round"><path d="M460 296 l4 -7 l4 7 Z"></path><path d="M470 297 l4 -7 l4 7 Z"></path><path d="M480 296 l4 -7 l4 7 Z"></path></g><path d="M466 214 C478 184 492 164 506 152 C514 158 519 167 521 176 C510 190 498 208 490 226 C481 223 472 219 466 214 Z" fill="#4E8C5A" stroke="#26456A" stroke-width="3" stroke-linejoin="round"></path><path d="M500 150 C496 130 507 115 525 115 C541 115 553 127 557 140 L574 149 C579 152 577 160 570 160 L555 158 C551 168 540 174 528 172 C513 170 503 162 500 150 Z" fill="#4E8C5A" stroke="#26456A" stroke-width="3" stroke-linejoin="round"></path><g fill="#CBB089" stroke="#26456A" stroke-width="2.5" stroke-linejoin="round"><path d="M520 118 L505 92 L517 116 Z"></path><path d="M533 117 L527 89 L543 112 Z"></path></g><g fill="#7DBE86" stroke="#26456A" stroke-width="2" stroke-linejoin="round"><path d="M404 196 L410 178 L420 196 Z"></path><path d="M426 188 L432 170 L443 188 Z"></path><path d="M448 188 L455 172 L466 190 Z"></path></g><circle cx="536" cy="138" r="4" fill="#26456A"></circle><circle cx="568" cy="150" r="2.4" fill="#26456A"></circle><path d="M556 162 L538 164" stroke="#26456A" stroke-width="2.5" stroke-linecap="round"></path></svg>