<svg width="860" height="360" viewBox="0 0 860 360" fill="none" xmlns="http://www.w3.org/2000/svg" role="img" aria-label="Illustration of a drink"><rect width="860" height="360" fill="#EAE6DC"></rect><path d="M0 296 H860 V360 H0 Z" fill="#DED9CC"></path><ellipse cx="430" cy="308" rx="64" ry="16" fill="#D4CEBE"></ellipse><path d="M392 184 L468 184 L460 300 Q458 308 450 308 L410 308 Q402 308 400 300 Z" fill="#CFE0EE" stroke="#26456A" stroke-width="3" stroke-linejoin="round"></path><path d="M397 214 L463 214 L458 300 Q456 308 448 308 L412 308 Q404 308 402 300 Z" fill="#E58A4E" opacity="0.85"></path><g fill="#FBFAF6" opacity="0.7" stroke="#E0C39A" stroke-width="1.5"><rect x="410" y="226" width="18" height="16" rx="3" transform="rotate(12 419 234)"></rect><rect x="436" y="250" width="16" height="15" rx="3" transform="rotate(-10 444 257)"></rect></g><line x1="452" y1="160" x2="438" y2="280" stroke="#9E2B3A" stroke-width="6" stroke-linecap="round"></line></svg>