<svg width="860" height="360" viewBox="0 0 860 360" fill="none" xmlns="http://www.w3.org/2000/svg" role="img" aria-label="Illustration of a family"><rect width="860" height="360" fill="#EAE6DC"></rect><path d="M0 296 H860 V360 H0 Z" fill="#DED9CC"></path><ellipse cx="330" cy="322" rx="48" ry="14" fill="#D4CEBE"></ellipse><ellipse cx="430" cy="322" rx="48" ry="14" fill="#D4CEBE"></ellipse><ellipse cx="512" cy="322" rx="30" ry="14" fill="#D4CEBE"></ellipse><ellipse cx="566" cy="322" rx="28" ry="14" fill="#D4CEBE"></ellipse><rect x="307" y="250" width="19" height="72" rx="7" fill="#33424E" stroke="#26456A" stroke-width="3"></rect><rect x="334" y="250" width="19" height="72" rx="7" fill="#33424E" stroke="#26456A" stroke-width="3"></rect><path d="M296 256 Q290 196 308 188 Q330 180 352 188 Q370 196 364 256 Z" fill="#2C5E8C" stroke="#26456A" stroke-width="3" stroke-linejoin="round"></path><path d="M298 202 Q278 232 284 264" fill="none" stroke="#2C5E8C" stroke-width="15" stroke-linecap="round"></path><path d="M362 202 Q382 232 376 264" fill="none" stroke="#2C5E8C" stroke-width="15" stroke-linecap="round"></path><circle cx="282" cy="268" r="7" fill="#E8C4A0" stroke="#26456A" stroke-width="2.5"></circle><circle cx="378" cy="268" r="7" fill="#E8C4A0" stroke="#26456A" stroke-width="2.5"></circle><rect x="321" y="170" width="18" height="22" fill="#E8C4A0" stroke="#26456A" stroke-width="3"></rect><circle cx="330" cy="148" r="30" fill="#E8C4A0" stroke="#26456A" stroke-width="3"></circle><path d="M300 142 Q298 114 330 114 Q362 114 360 142 Q344 130 330 130 Q316 130 300 142 Z" fill="#3A2A1E" stroke="#26456A" stroke-width="2" stroke-linejoin="round"></path><g fill="#26456A"><circle cx="320" cy="148" r="3"></circle><circle cx="340" cy="148" r="3"></circle></g><path d="M322 162 Q330 168 338 162" fill="none" stroke="#26456A" stroke-width="2.5"></path><g stroke="#26456A" stroke-width="3" stroke-linecap="round"><line x1="416" y1="300" x2="416" y2="320"></line><line x1="444" y1="300" x2="444" y2="320"></line></g><path d="M400 192 Q430 184 460 192 L482 302 L378 302 Z" fill="#9E2B3A" stroke="#26456A" stroke-width="3" stroke-linejoin="round"></path><path d="M398 202 Q378 232 384 264" fill="none" stroke="#9E2B3A" stroke-width="15" stroke-linecap="round"></path><path d="M462 202 Q482 232 476 264" fill="none" stroke="#9E2B3A" stroke-width="15" stroke-linecap="round"></path><circle cx="382" cy="268" r="7" fill="#E8C4A0" stroke="#26456A" stroke-width="2.5"></circle><circle cx="478" cy="268" r="7" fill="#E8C4A0" stroke="#26456A" stroke-width="2.5"></circle><rect x="421" y="170" width="18" height="22" fill="#E8C4A0" stroke="#26456A" stroke-width="3"></rect><circle cx="430" cy="148" r="30" fill="#E8C4A0" stroke="#26456A" stroke-width="3"></circle><path d="M399 150 Q396 112 430 110 Q464 112 461 150 L460 196 L450 196 Q452 150 446 132 Q430 122 414 132 Q408 150 410 196 L400 196 Z" fill="#6A4A2E" stroke="#26456A" stroke-width="2" stroke-linejoin="round"></path><g fill="#26456A"><circle cx="420" cy="148" r="3"></circle><circle cx="440" cy="148" r="3"></circle></g><path d="M422 162 Q430 168 438 162" fill="none" stroke="#26456A" stroke-width="2.5"></path><rect x="495" y="288" width="15" height="34" rx="6" fill="#33424E" stroke="#26456A" stroke-width="3"></rect><rect x="514" y="288" width="15" height="34" rx="6" fill="#33424E" stroke="#26456A" stroke-width="3"></rect><path d="M485 292 Q480 246 495 240 Q512 234 529 240 Q544 246 539 292 Z" fill="#E7B45A" stroke="#26456A" stroke-width="3" stroke-linejoin="round"></path><path d="M486 252 Q472 276 476 296" fill="none" stroke="#E7B45A" stroke-width="12" stroke-linecap="round"></path><path d="M538 252 Q552 276 548 296" fill="none" stroke="#E7B45A" stroke-width="12" stroke-linecap="round"></path><rect x="505" y="232" width="14" height="16" fill="#E8C4A0" stroke="#26456A" stroke-width="3"></rect><circle cx="512" cy="214" r="24" fill="#E8C4A0" stroke="#26456A" stroke-width="3"></circle><path d="M488 208 Q488 186 512 186 Q536 186 536 208 Q523 198 512 198 Q501 198 488 208 Z" fill="#3A2A1E" stroke="#26456A" stroke-width="2" stroke-linejoin="round"></path><g fill="#26456A"><circle cx="504" cy="214" r="2.6"></circle><circle cx="520" cy="214" r="2.6"></circle></g><path d="M506 226 Q512 231 518 226" fill="none" stroke="#26456A" stroke-width="2.2"></path><rect x="549" y="288" width="15" height="34" rx="6" fill="#33424E" stroke="#26456A" stroke-width="3"></rect><rect x="568" y="288" width="15" height="34" rx="6" fill="#33424E" stroke="#26456A" stroke-width="3"></rect><path d="M539 292 Q534 246 549 240 Q566 234 583 240 Q598 246 593 292 Z" fill="#2E7D5B" stroke="#26456A" stroke-width="3" stroke-linejoin="round"></path><path d="M540 252 Q526 276 530 296" fill="none" stroke="#2E7D5B" stroke-width="12" stroke-linecap="round"></path><path d="M592 252 Q606 276 602 296" fill="none" stroke="#2E7D5B" stroke-width="12" stroke-linecap="round"></path><rect x="559" y="232" width="14" height="16" fill="#E8C4A0" stroke="#26456A" stroke-width="3"></rect><circle cx="566" cy="214" r="24" fill="#E8C4A0" stroke="#26456A" stroke-width="3"></circle><path d="M542 208 Q542 186 566 186 Q590 186 590 208 Q577 198 566 198 Q555 198 542 208 Z" fill="#6A4A2E" stroke="#26456A" stroke-width="2" stroke-linejoin="round"></path><g fill="#26456A"><circle cx="558" cy="214" r="2.6"></circle><circle cx="574" cy="214" r="2.6"></circle></g><path d="M560 226 Q566 231 572 226" fill="none" stroke="#26456A" stroke-width="2.2"></path></svg>