<svg width="860" height="360" viewBox="0 0 860 360" fill="none" xmlns="http://www.w3.org/2000/svg" role="img" aria-label="Illustration of a father with child"><rect width="860" height="360" fill="#EAE6DC"></rect><path d="M0 296 H860 V360 H0 Z" fill="#DED9CC"></path><ellipse cx="380" cy="322" rx="46" ry="14" fill="#D4CEBE"></ellipse><ellipse cx="490" cy="322" rx="34" ry="14" fill="#D4CEBE"></ellipse><rect x="357" y="250" width="19" height="72" rx="7" fill="#33424E" stroke="#26456A" stroke-width="3"></rect><rect x="384" y="250" width="19" height="72" rx="7" fill="#33424E" stroke="#26456A" stroke-width="3"></rect><path d="M346 256 Q340 196 358 188 Q380 180 402 188 Q420 196 414 256 Z" fill="#2C5E8C" stroke="#26456A" stroke-width="3" stroke-linejoin="round"></path><path d="M348 202 Q328 232 334 264" fill="none" stroke="#2C5E8C" stroke-width="15" stroke-linecap="round"></path><path d="M412 202 Q432 232 426 264" fill="none" stroke="#2C5E8C" stroke-width="15" stroke-linecap="round"></path><circle cx="332" cy="268" r="7" fill="#E8C4A0" stroke="#26456A" stroke-width="2.5"></circle><circle cx="428" cy="268" r="7" fill="#E8C4A0" stroke="#26456A" stroke-width="2.5"></circle><rect x="371" y="170" width="18" height="22" fill="#E8C4A0" stroke="#26456A" stroke-width="3"></rect><circle cx="380" cy="148" r="30" fill="#E8C4A0" stroke="#26456A" stroke-width="3"></circle><path d="M350 142 Q348 114 380 114 Q412 114 410 142 Q394 130 380 130 Q366 130 350 142 Z" fill="#3A2A1E" stroke="#26456A" stroke-width="2" stroke-linejoin="round"></path><g fill="#26456A"><circle cx="370" cy="148" r="3"></circle><circle cx="390" cy="148" r="3"></circle></g><path d="M372 162 Q380 168 388 162" fill="none" stroke="#26456A" stroke-width="2.5"></path><rect x="473" y="288" width="15" height="34" rx="6" fill="#33424E" stroke="#26456A" stroke-width="3"></rect><rect x="492" y="288" width="15" height="34" rx="6" fill="#33424E" stroke="#26456A" stroke-width="3"></rect><path d="M463 292 Q458 246 473 240 Q490 234 507 240 Q522 246 517 292 Z" fill="#9E2B3A" stroke="#26456A" stroke-width="3" stroke-linejoin="round"></path><path d="M464 252 Q450 276 454 296" fill="none" stroke="#9E2B3A" stroke-width="12" stroke-linecap="round"></path><path d="M516 252 Q530 276 526 296" fill="none" stroke="#9E2B3A" stroke-width="12" stroke-linecap="round"></path><rect x="483" y="232" width="14" height="16" fill="#E8C4A0" stroke="#26456A" stroke-width="3"></rect><circle cx="490" cy="214" r="24" fill="#E8C4A0" stroke="#26456A" stroke-width="3"></circle><path d="M466 208 Q466 186 490 186 Q514 186 514 208 Q501 198 490 198 Q479 198 466 208 Z" fill="#3A2A1E" stroke="#26456A" stroke-width="2" stroke-linejoin="round"></path><g fill="#26456A"><circle cx="482" cy="214" r="2.6"></circle><circle cx="498" cy="214" r="2.6"></circle></g><path d="M484 226 Q490 231 496 226" fill="none" stroke="#26456A" stroke-width="2.2"></path></svg>