<svg width="860" height="360" viewBox="0 0 860 360" fill="none" xmlns="http://www.w3.org/2000/svg" role="img" aria-label="Illustration of fire at night"><rect width="860" height="360" fill="#101A26"></rect><defs><linearGradient id="fire1" x1="0" y1="0" x2="0" y2="1"><stop offset="0" stop-color="#16263A"></stop><stop offset="1" stop-color="#0E1722"></stop></linearGradient></defs><rect width="860" height="360" fill="url(#fire1)"></rect><path d="M0 296 H860 V360 H0 Z" fill="#0C141D"></path><ellipse cx="430" cy="300" rx="200" ry="40" fill="#F0C56E" opacity="0.18"></ellipse><rect x="356" y="288" width="148" height="16" rx="8" fill="#7A5A3C" stroke="#26456A" stroke-width="3" transform="rotate(-12 430 296)"></rect><rect x="356" y="288" width="148" height="16" rx="8" fill="#6A4E34" stroke="#26456A" stroke-width="3" transform="rotate(12 430 296)"></rect><path d="M430 150 C478 204 472 264 430 292 C388 264 382 204 430 150 Z" fill="#C23A24"></path><path d="M430 184 C462 222 458 266 430 290 C402 266 398 222 430 184 Z" fill="#E7702A"></path><path d="M430 216 C450 240 448 270 430 288 C412 270 410 240 430 216 Z" fill="#F0C04E"></path><g fill="#F0C56E"><circle cx="470" cy="180" r="3"></circle><circle cx="392" cy="200" r="2.5"></circle><circle cx="450" cy="150" r="2"></circle><circle cx="408" cy="160" r="2"></circle></g></svg>