<svg width="860" height="360" viewBox="0 0 860 360" fill="none" xmlns="http://www.w3.org/2000/svg" role="img" aria-label="Illustration of a forest">
  <rect width="860" height="360" fill="#EAE6DC"></rect>

  <circle cx="140" cy="86" r="30" fill="#E7B45A" opacity="0.85"></circle>

  <path d="M0 300 H860 V360 H0 Z" fill="#7D9684"></path>
  <ellipse cx="430" cy="304" rx="240" ry="18" fill="#6E8472"></ellipse>

  
  <g opacity="0.92">
    <rect x="300" y="232" width="9" height="74" rx="3" fill="#5E6F66"></rect>
    <circle cx="304" cy="216" r="40" fill="#9DB1A2" stroke="#26456A" stroke-width="3"></circle>
  </g>
  
  <g stroke="#26456A" stroke-width="3" stroke-linejoin="round">
    <rect x="566" y="276" width="14" height="30" rx="2" fill="#7A5A3C" stroke="none"></rect>
    <path d="M527 282 L573 196 L619 282 Z" fill="#5E7A5A"></path>
    <path d="M533 248 L573 168 L613 248 Z" fill="#6E8A66"></path>
    <path d="M539 214 L573 146 L607 214 Z" fill="#5E7A5A"></path>
  </g>
  
  <g stroke="#26456A" stroke-width="3" stroke-linejoin="round">
    <rect x="421" y="282" width="18" height="26" rx="2" fill="#7A5A3C" stroke="none"></rect>
    <path d="M364 288 L430 168 L496 288 Z" fill="#5E7A5A"></path>
    <path d="M372 240 L430 132 L488 240 Z" fill="#6E8A66"></path>
    <path d="M380 192 L430 104 L480 192 Z" fill="#5E7A5A"></path>
  </g>
  
  <g>
    <rect x="207" y="262" width="10" height="44" rx="3" fill="#5E6F66"></rect>
    <circle cx="212" cy="246" r="44" fill="#8FA593" stroke="#26456A" stroke-width="3"></circle>
  </g>
  
  <g>
    <rect x="664" y="270" width="9" height="36" rx="3" fill="#5E6F66"></rect>
    <circle cx="668" cy="256" r="36" fill="#8FA593" stroke="#26456A" stroke-width="3"></circle>
  </g>
</svg>