<svg width="860" height="360" viewBox="0 0 860 360" fill="none" xmlns="http://www.w3.org/2000/svg" role="img" aria-label="Illustration of a forest at night">
  <rect width="860" height="360" fill="#101A26"></rect>
  <defs>
    <linearGradient id="fr-sky" x1="0" y1="0" x2="0" y2="1">
      <stop offset="0" stop-color="#16263A"></stop>
      <stop offset="1" stop-color="#0E1722"></stop>
    </linearGradient>
    <radialGradient id="fr-fly" cx="0.5" cy="0.5" r="0.5">
      <stop offset="0" stop-color="#F0C56E" stop-opacity="0.9"></stop>
      <stop offset="1" stop-color="#F0C56E" stop-opacity="0"></stop>
    </radialGradient>
  </defs>
  <rect width="860" height="306" fill="url(#fr-sky)"></rect>

  <g fill="#A7C4E0">
    <circle cx="120" cy="64" r="1.6" opacity="0.9"></circle>
    <circle cx="250" cy="100" r="1.2" opacity="0.7"></circle>
    <circle cx="760" cy="60" r="1.6" opacity="0.9"></circle>
    <circle cx="800" cy="120" r="1.2" opacity="0.6"></circle>
  </g>
  <g>
    <circle cx="722" cy="80" r="28" fill="#D6E2EF"></circle>
    <circle cx="736" cy="72" r="24" fill="#16263A"></circle>
  </g>

  <path d="M0 300 H860 V360 H0 Z" fill="#0C141D"></path>
  <ellipse cx="430" cy="304" rx="240" ry="18" fill="#10202E"></ellipse>

  <g opacity="0.92">
    <rect x="300" y="232" width="9" height="74" rx="3" fill="#22343F"></rect>
    <circle cx="304" cy="216" r="40" fill="#26414F" stroke="#5C84B0" stroke-width="3"></circle>
  </g>
  <g stroke="#5C84B0" stroke-width="3" stroke-linejoin="round">
    <rect x="566" y="276" width="14" height="30" rx="2" fill="#3A2D20" stroke="none"></rect>
    <path d="M527 282 L573 196 L619 282 Z" fill="#223A45"></path>
    <path d="M533 248 L573 168 L613 248 Z" fill="#274350"></path>
    <path d="M539 214 L573 146 L607 214 Z" fill="#223A45"></path>
  </g>
  <g stroke="#5C84B0" stroke-width="3" stroke-linejoin="round">
    <rect x="421" y="282" width="18" height="26" rx="2" fill="#3A2D20" stroke="none"></rect>
    <path d="M364 288 L430 168 L496 288 Z" fill="#223A45"></path>
    <path d="M372 240 L430 132 L488 240 Z" fill="#274350"></path>
    <path d="M380 192 L430 104 L480 192 Z" fill="#223A45"></path>
  </g>
  <g>
    <rect x="207" y="262" width="10" height="44" rx="3" fill="#22343F"></rect>
    <circle cx="212" cy="246" r="44" fill="#26414F" stroke="#5C84B0" stroke-width="3"></circle>
  </g>
  <g>
    <rect x="664" y="270" width="9" height="36" rx="3" fill="#22343F"></rect>
    <circle cx="668" cy="256" r="36" fill="#26414F" stroke="#5C84B0" stroke-width="3"></circle>
  </g>

  
  <g>
    <circle cx="350" cy="250" r="9" fill="url(#fr-fly)"></circle><circle cx="350" cy="250" r="2.4" fill="#F7E0A6"></circle>
    <circle cx="500" cy="220" r="9" fill="url(#fr-fly)"></circle><circle cx="500" cy="220" r="2.4" fill="#F7E0A6"></circle>
    <circle cx="262" cy="200" r="8" fill="url(#fr-fly)"></circle><circle cx="262" cy="200" r="2.2" fill="#F7E0A6"></circle>
    <circle cx="612" cy="252" r="8" fill="url(#fr-fly)"></circle><circle cx="612" cy="252" r="2.2" fill="#F7E0A6"></circle>
    <circle cx="440" cy="284" r="7" fill="url(#fr-fly)"></circle><circle cx="440" cy="284" r="2" fill="#F7E0A6"></circle>
  </g>
</svg>