<svg width="860" height="360" viewBox="0 0 860 360" fill="none" xmlns="http://www.w3.org/2000/svg" role="img" aria-label="Illustration of a hair"><rect width="860" height="360" fill="#EAE6DC"></rect><path d="M0 296 H860 V360 H0 Z" fill="#DED9CC"></path><ellipse cx="430" cy="318" rx="80" ry="16" fill="#D4CEBE"></ellipse><rect x="410" y="278" width="40" height="40" fill="#E8C4A0" stroke="#26456A" stroke-width="3"></rect><ellipse cx="430" cy="226" rx="58" ry="64" fill="#E8C4A0" stroke="#26456A" stroke-width="3"></ellipse><path d="M372 244 Q358 150 430 144 Q502 150 488 244 Q496 200 470 184 Q466 150 430 150 Q394 150 390 184 Q364 200 372 244 Z" fill="#7A5A3C" stroke="#26456A" stroke-width="3" stroke-linejoin="round"></path><path d="M372 240 Q366 292 388 302 L386 244 Z" fill="#7A5A3C" stroke="#26456A" stroke-width="2.5"></path><path d="M488 240 Q494 292 472 302 L474 244 Z" fill="#7A5A3C" stroke="#26456A" stroke-width="2.5"></path><g fill="#26456A"><circle cx="412" cy="234" r="3.5"></circle><circle cx="448" cy="234" r="3.5"></circle></g></svg>