<svg width="860" height="360" viewBox="0 0 860 360" fill="none" xmlns="http://www.w3.org/2000/svg" role="img" aria-label="Illustration of a horse"><rect width="860" height="360" fill="#EAE6DC"></rect><path d="M0 296 H860 V360 H0 Z" fill="#DED9CC"></path><ellipse cx="430" cy="312" rx="120" ry="16" fill="#D4CEBE"></ellipse><g fill="#6B4E34" stroke="#26456A" stroke-width="3" stroke-linejoin="round"><path d="M386 236 h15 v54 q0 6 -7.5 6 q-7.5 0 -7.5 -6 Z"></path><path d="M474 236 h15 v54 q0 6 -7.5 6 q-7.5 0 -7.5 -6 Z"></path></g><g fill="#7A5A3C" stroke="#26456A" stroke-width="3" stroke-linejoin="round"><path d="M360 236 h16 v58 q0 6 -8 6 q-8 0 -8 -6 Z"></path><path d="M496 236 h16 v58 q0 6 -8 6 q-8 0 -8 -6 Z"></path></g><g fill="#3F2E1C"><rect x="357" y="290" width="22" height="8" rx="2"></rect><rect x="493" y="290" width="22" height="8" rx="2"></rect><rect x="384" y="288" width="19" height="7" rx="2"></rect><rect x="472" y="288" width="19" height="7" rx="2"></rect></g><path d="M356 190 C330 198 320 230 326 264 C330 278 342 280 346 266 C340 238 350 212 368 200 Z" fill="#5A4026" stroke="#26456A" stroke-width="3" stroke-linejoin="round"></path><path d="M352 186 C348 176 360 168 378 170 C414 172 440 176 456 180 C462 150 486 124 510 114 C518 110 528 110 536 116 C552 126 566 138 566 150 C566 158 558 164 548 166 C536 168 526 164 522 158 C514 176 510 196 508 210 C507 224 504 234 496 236 L372 236 C356 236 350 230 350 216 Z" fill="#7A5A3C" stroke="#26456A" stroke-width="3" stroke-linejoin="round"></path><path d="M456 180 C462 150 486 124 510 114 C514 120 512 132 504 142 C490 156 478 170 472 188 C466 186 460 184 456 180 Z" fill="#5A4026" stroke="#26456A" stroke-width="2.5" stroke-linejoin="round"></path><path d="M516 116 L520 96 L533 113 Z" fill="#7A5A3C" stroke="#26456A" stroke-width="2.5" stroke-linejoin="round"></path><circle cx="542" cy="138" r="3.4" fill="#26456A"></circle><circle cx="560" cy="155" r="2.4" fill="#26456A"></circle></svg>