<svg width="860" height="360" viewBox="0 0 860 360" fill="none" xmlns="http://www.w3.org/2000/svg" role="img" aria-label="Illustration of a hospital at night"><rect width="860" height="360" fill="#101A26"></rect><defs><linearGradient id="hossky" x1="0" y1="0" x2="0" y2="1"><stop offset="0" stop-color="#16263A"></stop><stop offset="1" stop-color="#0E1722"></stop></linearGradient></defs><rect width="860" height="296" fill="url(#hossky)"></rect><g fill="#A7C4E0"><circle cx="120" cy="60" r="1.6"></circle><circle cx="250" cy="108" r="1.2"></circle><circle cx="330" cy="56" r="1.4"></circle><circle cx="610" cy="100" r="1.4"></circle><circle cx="700" cy="60" r="1.2"></circle><circle cx="790" cy="120" r="1.6"></circle></g><g><circle cx="712" cy="78" r="28" fill="#D6E2EF"></circle><circle cx="726" cy="70" r="24" fill="#16263A"></circle></g><path d="M0 296 H860 V360 H0 Z" fill="#0C141D"></path><ellipse cx="430" cy="300" rx="240" ry="18" fill="#10202E"></ellipse><rect x="316" y="176" width="228" height="120" fill="#2A3D50" stroke="#5C84B0" stroke-width="3"></rect><rect x="332" y="196" width="36" height="28" fill="#F0C56E" stroke="#5C84B0" stroke-width="2.5"></rect><rect x="384" y="196" width="36" height="28" fill="#1E2E3C" stroke="#5C84B0" stroke-width="2.5"></rect><rect x="436" y="196" width="36" height="28" fill="#1E2E3C" stroke="#5C84B0" stroke-width="2.5"></rect><rect x="488" y="196" width="36" height="28" fill="#F0C56E" stroke="#5C84B0" stroke-width="2.5"></rect><rect x="332" y="242" width="36" height="28" fill="#F0C56E" stroke="#5C84B0" stroke-width="2.5"></rect><rect x="488" y="242" width="36" height="28" fill="#F0C56E" stroke="#5C84B0" stroke-width="2.5"></rect><rect x="394" y="244" width="72" height="52" fill="#241A22" stroke="#5C84B0" stroke-width="3"></rect><rect x="362" y="128" width="56" height="56" fill="#2C4358" stroke="#5C84B0" stroke-width="3"></rect><g fill="#9E2B3A"><rect x="384" y="140" width="12" height="32"></rect><rect x="374" y="150" width="32" height="12"></rect></g></svg>