<svg width="860" height="360" viewBox="0 0 860 360" fill="none" xmlns="http://www.w3.org/2000/svg" role="img" aria-label="Illustration of a hospital"><rect width="860" height="360" fill="#EAE6DC"></rect><circle cx="140" cy="86" r="30" fill="#E7B45A" opacity="0.85"></circle><path d="M0 296 H860 V360 H0 Z" fill="#DED9CC"></path><ellipse cx="430" cy="300" rx="240" ry="18" fill="#D4CEBE"></ellipse><rect x="316" y="176" width="228" height="120" fill="#FBFAF6" stroke="#26456A" stroke-width="3"></rect><rect x="332" y="196" width="36" height="28" fill="#CFE0EE" stroke="#26456A" stroke-width="2.5"></rect><rect x="384" y="196" width="36" height="28" fill="#CFE0EE" stroke="#26456A" stroke-width="2.5"></rect><rect x="436" y="196" width="36" height="28" fill="#CFE0EE" stroke="#26456A" stroke-width="2.5"></rect><rect x="488" y="196" width="36" height="28" fill="#CFE0EE" stroke="#26456A" stroke-width="2.5"></rect><rect x="332" y="242" width="36" height="28" fill="#CFE0EE" stroke="#26456A" stroke-width="2.5"></rect><rect x="488" y="242" width="36" height="28" fill="#CFE0EE" stroke="#26456A" stroke-width="2.5"></rect><rect x="394" y="244" width="72" height="52" fill="#7A5A3C" stroke="#26456A" stroke-width="3"></rect><rect x="362" y="128" width="56" height="56" fill="#FBFAF6" stroke="#26456A" stroke-width="3"></rect><g fill="#9E2B3A"><rect x="384" y="140" width="12" height="32"></rect><rect x="374" y="150" width="32" height="12"></rect></g></svg>