<svg width="860" height="360" viewBox="0 0 860 360" fill="none" xmlns="http://www.w3.org/2000/svg" role="img" aria-label="Illustration of a hotel"><rect width="860" height="360" fill="#EAE6DC"></rect><circle cx="140" cy="86" r="30" fill="#E7B45A" opacity="0.85"></circle><path d="M0 296 H860 V360 H0 Z" fill="#DED9CC"></path><ellipse cx="430" cy="300" rx="150" ry="18" fill="#D4CEBE"></ellipse><rect x="338" y="128" width="184" height="168" fill="#FBFAF6" stroke="#26456A" stroke-width="3"></rect><rect x="356" y="146" width="40" height="20" fill="#CFE0EE" stroke="#26456A" stroke-width="2.5"></rect><rect x="410" y="146" width="40" height="20" fill="#CFE0EE" stroke="#26456A" stroke-width="2.5"></rect><rect x="464" y="146" width="40" height="20" fill="#CFE0EE" stroke="#26456A" stroke-width="2.5"></rect><rect x="356" y="176" width="40" height="20" fill="#CFE0EE" stroke="#26456A" stroke-width="2.5"></rect><rect x="410" y="176" width="40" height="20" fill="#CFE0EE" stroke="#26456A" stroke-width="2.5"></rect><rect x="464" y="176" width="40" height="20" fill="#CFE0EE" stroke="#26456A" stroke-width="2.5"></rect><rect x="356" y="206" width="40" height="20" fill="#CFE0EE" stroke="#26456A" stroke-width="2.5"></rect><rect x="410" y="206" width="40" height="20" fill="#CFE0EE" stroke="#26456A" stroke-width="2.5"></rect><rect x="464" y="206" width="40" height="20" fill="#CFE0EE" stroke="#26456A" stroke-width="2.5"></rect><rect x="356" y="236" width="40" height="20" fill="#CFE0EE" stroke="#26456A" stroke-width="2.5"></rect><rect x="410" y="236" width="40" height="20" fill="#CFE0EE" stroke="#26456A" stroke-width="2.5"></rect><rect x="464" y="236" width="40" height="20" fill="#CFE0EE" stroke="#26456A" stroke-width="2.5"></rect><path d="M380 276 L480 276 L490 296 L370 296 Z" fill="#9E2B3A" stroke="#26456A" stroke-width="3" stroke-linejoin="round"></path><rect x="412" y="280" width="36" height="16" fill="#7A5A3C"></rect><rect x="360" y="104" width="140" height="26" rx="4" fill="#2C5E8C" stroke="#26456A" stroke-width="3"></rect><text x="430" y="123" font-family="Georgia,serif" font-size="17" fill="#FBFAF6" text-anchor="middle" font-weight="700">HOTEL</text></svg>