<svg width="860" height="360" viewBox="0 0 860 360" fill="none" xmlns="http://www.w3.org/2000/svg" role="img" aria-label="Illustration of a hotel at night"><rect width="860" height="360" fill="#101A26"></rect><defs><linearGradient id="hotsky" x1="0" y1="0" x2="0" y2="1"><stop offset="0" stop-color="#16263A"></stop><stop offset="1" stop-color="#0E1722"></stop></linearGradient></defs><rect width="860" height="296" fill="url(#hotsky)"></rect><g fill="#A7C4E0"><circle cx="120" cy="60" r="1.6"></circle><circle cx="250" cy="108" r="1.2"></circle><circle cx="330" cy="56" r="1.4"></circle><circle cx="610" cy="100" r="1.4"></circle><circle cx="700" cy="60" r="1.2"></circle><circle cx="790" cy="120" r="1.6"></circle></g><g><circle cx="712" cy="78" r="28" fill="#D6E2EF"></circle><circle cx="726" cy="70" r="24" fill="#16263A"></circle></g><path d="M0 296 H860 V360 H0 Z" fill="#0C141D"></path><ellipse cx="430" cy="300" rx="150" ry="18" fill="#10202E"></ellipse><rect x="338" y="128" width="184" height="168" fill="#2A3D50" stroke="#5C84B0" stroke-width="3"></rect><rect x="356" y="146" width="40" height="20" fill="#1E2E3C" stroke="#5C84B0" stroke-width="2.5"></rect><rect x="410" y="146" width="40" height="20" fill="#1E2E3C" stroke="#5C84B0" stroke-width="2.5"></rect><rect x="464" y="146" width="40" height="20" fill="#F0C56E" stroke="#5C84B0" stroke-width="2.5"></rect><rect x="356" y="176" width="40" height="20" fill="#F0C56E" stroke="#5C84B0" stroke-width="2.5"></rect><rect x="410" y="176" width="40" height="20" fill="#1E2E3C" stroke="#5C84B0" stroke-width="2.5"></rect><rect x="464" y="176" width="40" height="20" fill="#1E2E3C" stroke="#5C84B0" stroke-width="2.5"></rect><rect x="356" y="206" width="40" height="20" fill="#F0C56E" stroke="#5C84B0" stroke-width="2.5"></rect><rect x="410" y="206" width="40" height="20" fill="#1E2E3C" stroke="#5C84B0" stroke-width="2.5"></rect><rect x="464" y="206" width="40" height="20" fill="#F0C56E" stroke="#5C84B0" stroke-width="2.5"></rect><rect x="356" y="236" width="40" height="20" fill="#1E2E3C" stroke="#5C84B0" stroke-width="2.5"></rect><rect x="410" y="236" width="40" height="20" fill="#1E2E3C" stroke="#5C84B0" stroke-width="2.5"></rect><rect x="464" y="236" width="40" height="20" fill="#F0C56E" stroke="#5C84B0" stroke-width="2.5"></rect><path d="M380 276 L480 276 L490 296 L370 296 Z" fill="#3A2530" stroke="#5C84B0" stroke-width="3" stroke-linejoin="round"></path><rect x="412" y="280" width="36" height="16" fill="#241A22"></rect><rect x="360" y="104" width="140" height="26" rx="4" fill="#2C4358" stroke="#5C84B0" stroke-width="3"></rect><text x="430" y="123" font-family="Georgia,serif" font-size="17" fill="#F0C56E" text-anchor="middle" font-weight="700">HOTEL</text></svg>