<svg width="860" height="360" viewBox="0 0 860 360" fill="none" xmlns="http://www.w3.org/2000/svg" role="img" aria-label="Illustration of a house at night">
  <rect width="860" height="360" fill="#101A26"></rect>
  <defs>
    <linearGradient id="sky" x1="0" y1="0" x2="0" y2="1">
      <stop offset="0" stop-color="#16263A"></stop>
      <stop offset="1" stop-color="#0E1722"></stop>
    </linearGradient>
  </defs>
  <rect width="860" height="296" fill="url(#sky)"></rect>

  
  <g fill="#A7C4E0">
    <circle cx="120" cy="70" r="1.6" opacity="0.9"></circle>
    <circle cx="210" cy="120" r="1.2" opacity="0.7"></circle>
    <circle cx="300" cy="150" r="1.4" opacity="0.7"></circle>
    <circle cx="560" cy="150" r="1.4" opacity="0.7"></circle>
    <circle cx="650" cy="120" r="1.2" opacity="0.7"></circle>
    <circle cx="740" cy="70" r="1.6" opacity="0.9"></circle>
    <circle cx="180" cy="178" r="1.1" opacity="0.6"></circle>
    <circle cx="680" cy="178" r="1.1" opacity="0.6"></circle>
  </g>

  
  <g>
    <circle cx="150" cy="98" r="30" fill="#D6E2EF"></circle>
    <circle cx="166" cy="90" r="26" fill="#16263A"></circle>
  </g>

  
  <path d="M0 296 H860 V360 H0 Z" fill="#0C141D"></path>
  <ellipse cx="430" cy="300" rx="250" ry="22" fill="#10202E"></ellipse>

  
  <g opacity="0.5">
    <rect x="175" y="214" width="9" height="86" rx="3" fill="#2C3B47"></rect>
    <circle cx="180" cy="196" r="40" fill="#26414F"></circle>
    <circle cx="154" cy="214" r="30" fill="#2C4856"></circle>
    <circle cx="206" cy="214" r="30" fill="#2C4856"></circle>
  </g>
  <g opacity="0.5">
    <rect x="676" y="214" width="9" height="86" rx="3" fill="#2C3B47"></rect>
    <circle cx="680" cy="196" r="40" fill="#26414F"></circle>
    <circle cx="654" cy="214" r="30" fill="#2C4856"></circle>
    <circle cx="706" cy="214" r="30" fill="#2C4856"></circle>
  </g>

  
  <rect x="310" y="178" width="240" height="122" fill="#2A3D50"></rect>
  <rect x="310" y="178" width="240" height="122" stroke="#5C84B0" stroke-width="3"></rect>

  
  <path d="M296 182 L430 96 L564 182 Z" fill="#33506E"></path>
  <path d="M296 182 L430 96 L564 182" stroke="#5C84B0" stroke-width="3" stroke-linejoin="round"></path>

  
  <rect x="402" y="222" width="56" height="78" rx="4" fill="#3A2530"></rect>
  <circle cx="446" cy="262" r="4" fill="#8FA9C2"></circle>

  
  <g stroke="#5C84B0" stroke-width="3">
    <rect x="334" y="212" width="46" height="46" rx="3" fill="#F0C56E"></rect>
    <line x1="357" y1="212" x2="357" y2="258"></line>
    <line x1="334" y1="235" x2="380" y2="235"></line>
  </g>
  <g stroke="#5C84B0" stroke-width="3">
    <rect x="480" y="212" width="46" height="46" rx="3" fill="#F0C56E"></rect>
    <line x1="503" y1="212" x2="503" y2="258"></line>
    <line x1="480" y1="235" x2="526" y2="235"></line>
  </g>

  
  <g>
    <circle cx="276" cy="288" r="22" fill="#223A45"></circle>
    <circle cx="300" cy="292" r="16" fill="#274350"></circle>
  </g>
  <g>
    <circle cx="584" cy="288" r="22" fill="#223A45"></circle>
    <circle cx="560" cy="292" r="16" fill="#274350"></circle>
  </g>
</svg>