<svg width="860" height="360" viewBox="0 0 860 360" fill="none" xmlns="http://www.w3.org/2000/svg" role="img" aria-label="Illustration of ice"><rect width="860" height="360" fill="#EAE6DC"></rect><path d="M0 296 H860 V360 H0 Z" fill="#DED9CC"></path><ellipse cx="430" cy="308" rx="120" ry="16" fill="#D4CEBE"></ellipse><g stroke="#26456A" stroke-width="3" stroke-linejoin="round"><path d="M358 252 L410 234 L462 252 L410 270 Z" fill="#CDE6F2"></path><path d="M358 252 L358 302 L410 320 L410 270 Z" fill="#A6CFE6"></path><path d="M462 252 L462 302 L410 320 L410 270 Z" fill="#BFDCEE"></path><path d="M452 238 L488 226 L524 238 L488 250 Z" fill="#CDE6F2"></path><path d="M452 238 L452 276 L488 288 L488 250 Z" fill="#A6CFE6"></path><path d="M524 238 L524 276 L488 288 L488 250 Z" fill="#BFDCEE"></path></g><g stroke="#FBFAF6" stroke-width="2.5" stroke-linecap="round"><line x1="378" y1="262" x2="392" y2="262"></line><line x1="385" y1="256" x2="385" y2="268"></line></g></svg>