<svg width="860" height="360" viewBox="0 0 860 360" fill="none" xmlns="http://www.w3.org/2000/svg" role="img" aria-label="Illustration of an island"><rect width="860" height="360" fill="#EAE6DC"></rect><circle cx="140" cy="86" r="30" fill="#E7B45A" opacity="0.85"></circle><rect x="0" y="250" width="860" height="110" fill="#6EA8DA"></rect><path d="M340 270 Q430 244 520 270 Q480 286 430 286 Q380 286 340 270 Z" fill="#E0C68A" stroke="#26456A" stroke-width="3" stroke-linejoin="round"></path><path d="M444 268 Q436 232 452 200" stroke="#8A6238" stroke-width="9" fill="none" stroke-linecap="round"></path><g fill="#5E7A5A" stroke="#26456A" stroke-width="2"><path d="M452 200 Q418 188 400 198 Q428 200 452 208 Z"></path><path d="M452 200 Q486 188 504 198 Q476 200 452 208 Z"></path><path d="M452 200 Q442 172 452 158 Q462 172 452 200 Z"></path></g></svg>