<svg width="860" height="360" viewBox="0 0 860 360" fill="none" xmlns="http://www.w3.org/2000/svg" role="img" aria-label="Illustration of an island at night"><rect width="860" height="360" fill="#101A26"></rect><defs><linearGradient id="isl1" x1="0" y1="0" x2="0" y2="1"><stop offset="0" stop-color="#16263A"></stop><stop offset="1" stop-color="#0E1722"></stop></linearGradient></defs><rect width="860" height="360" fill="url(#isl1)"></rect><g fill="#A7C4E0"><circle cx="120" cy="60" r="1.6"></circle><circle cx="250" cy="108" r="1.2"></circle><circle cx="330" cy="56" r="1.4"></circle><circle cx="610" cy="100" r="1.4"></circle><circle cx="700" cy="60" r="1.2"></circle><circle cx="790" cy="120" r="1.6"></circle><circle cx="180" cy="170" r="1.1"></circle><circle cx="540" cy="150" r="1.2"></circle></g><g><circle cx="430" cy="90" r="30" fill="#D6E2EF"></circle><circle cx="445" cy="82" r="26" fill="#16263A"></circle></g><rect x="0" y="250" width="860" height="110" fill="#16344F"></rect><g fill="#F0C56E" opacity="0.7"><rect x="412" y="262" width="36" height="4" rx="2"></rect><rect x="408" y="280" width="44" height="4" rx="2" opacity="0.6"></rect><rect x="414" y="300" width="30" height="4" rx="2" opacity="0.5"></rect></g><path d="M340 270 Q430 244 520 270 Q480 286 430 286 Q380 286 340 270 Z" fill="#3A3320" stroke="#26456A" stroke-width="3" stroke-linejoin="round"></path><path d="M444 268 Q436 232 452 200" stroke="#3A2D20" stroke-width="9" fill="none" stroke-linecap="round"></path><g fill="#2E5C42" stroke="#26456A" stroke-width="2"><path d="M452 200 Q418 188 400 198 Q428 200 452 208 Z"></path><path d="M452 200 Q486 188 504 198 Q476 200 452 208 Z"></path><path d="M452 200 Q442 172 452 158 Q462 172 452 200 Z"></path></g></svg>