<svg width="860" height="360" viewBox="0 0 860 360" fill="none" xmlns="http://www.w3.org/2000/svg" role="img" aria-label="Illustration of a large house"><rect width="860" height="360" fill="#EAE6DC"></rect><circle cx="140" cy="86" r="30" fill="#E7B45A" opacity="0.85"></circle><path d="M0 296 H860 V360 H0 Z" fill="#DED9CC"></path><ellipse cx="430" cy="300" rx="250" ry="18" fill="#D4CEBE"></ellipse><rect x="350" y="168" width="160" height="128" fill="#FBFAF6" stroke="#26456A" stroke-width="3"></rect><rect x="284" y="206" width="80" height="90" fill="#FBFAF6" stroke="#26456A" stroke-width="3"></rect><rect x="496" y="206" width="80" height="90" fill="#FBFAF6" stroke="#26456A" stroke-width="3"></rect><path d="M340 168 L430 116 L520 168 Z" fill="#9E2B3A" stroke="#26456A" stroke-width="3" stroke-linejoin="round"></path><path d="M278 206 L324 176 L370 206 Z" fill="#9E2B3A" stroke="#26456A" stroke-width="3" stroke-linejoin="round"></path><path d="M490 206 L536 176 L582 206 Z" fill="#9E2B3A" stroke="#26456A" stroke-width="3" stroke-linejoin="round"></path><rect x="406" y="248" width="48" height="48" fill="#7A5A3C" stroke="#26456A" stroke-width="3"></rect><rect x="372" y="196" width="38" height="30" fill="#CFE0EE" stroke="#26456A" stroke-width="2.5"></rect><rect x="450" y="196" width="38" height="30" fill="#CFE0EE" stroke="#26456A" stroke-width="2.5"></rect><rect x="300" y="224" width="36" height="28" fill="#CFE0EE" stroke="#26456A" stroke-width="2.5"></rect><rect x="508" y="224" width="36" height="28" fill="#CFE0EE" stroke="#26456A" stroke-width="2.5"></rect><rect x="332" y="130" width="14" height="22" fill="#D8D2C4" stroke="#26456A" stroke-width="2.5"></rect></svg>