<svg width="860" height="360" viewBox="0 0 860 360" fill="none" xmlns="http://www.w3.org/2000/svg" role="img" aria-label="Illustration of a large house at night"><rect width="860" height="360" fill="#101A26"></rect><defs><linearGradient id="mnsky" x1="0" y1="0" x2="0" y2="1"><stop offset="0" stop-color="#16263A"></stop><stop offset="1" stop-color="#0E1722"></stop></linearGradient></defs><rect width="860" height="296" fill="url(#mnsky)"></rect><g fill="#A7C4E0"><circle cx="120" cy="60" r="1.6"></circle><circle cx="250" cy="108" r="1.2"></circle><circle cx="330" cy="56" r="1.4"></circle><circle cx="610" cy="100" r="1.4"></circle><circle cx="700" cy="60" r="1.2"></circle><circle cx="790" cy="120" r="1.6"></circle></g><g><circle cx="712" cy="78" r="28" fill="#D6E2EF"></circle><circle cx="726" cy="70" r="24" fill="#16263A"></circle></g><path d="M0 296 H860 V360 H0 Z" fill="#0C141D"></path><ellipse cx="430" cy="300" rx="250" ry="18" fill="#10202E"></ellipse><rect x="350" y="168" width="160" height="128" fill="#2A3D50" stroke="#5C84B0" stroke-width="3"></rect><rect x="284" y="206" width="80" height="90" fill="#2A3D50" stroke="#5C84B0" stroke-width="3"></rect><rect x="496" y="206" width="80" height="90" fill="#2A3D50" stroke="#5C84B0" stroke-width="3"></rect><path d="M340 168 L430 116 L520 168 Z" fill="#3A2530" stroke="#5C84B0" stroke-width="3" stroke-linejoin="round"></path><path d="M278 206 L324 176 L370 206 Z" fill="#3A2530" stroke="#5C84B0" stroke-width="3" stroke-linejoin="round"></path><path d="M490 206 L536 176 L582 206 Z" fill="#3A2530" stroke="#5C84B0" stroke-width="3" stroke-linejoin="round"></path><rect x="406" y="248" width="48" height="48" fill="#241A22" stroke="#5C84B0" stroke-width="3"></rect><rect x="372" y="196" width="38" height="30" fill="#F0C56E" stroke="#5C84B0" stroke-width="2.5"></rect><rect x="450" y="196" width="38" height="30" fill="#F0C56E" stroke="#5C84B0" stroke-width="2.5"></rect><rect x="300" y="224" width="36" height="28" fill="#1E2E3C" stroke="#5C84B0" stroke-width="2.5"></rect><rect x="508" y="224" width="36" height="28" fill="#F0C56E" stroke="#5C84B0" stroke-width="2.5"></rect><rect x="332" y="130" width="14" height="22" fill="#33424E" stroke="#5C84B0" stroke-width="2.5"></rect></svg>