<svg width="860" height="360" viewBox="0 0 860 360" fill="none" xmlns="http://www.w3.org/2000/svg" role="img" aria-label="Illustration of a market"><rect width="860" height="360" fill="#EAE6DC"></rect><circle cx="140" cy="86" r="30" fill="#E7B45A" opacity="0.85"></circle><path d="M0 296 H860 V360 H0 Z" fill="#DED9CC"></path><ellipse cx="430" cy="300" rx="270" ry="18" fill="#D4CEBE"></ellipse><rect x="210" y="220" width="140" height="76" fill="#C9A36B" stroke="#26456A" stroke-width="3"></rect><path d="M198 220 L362 220 L350 188 L210 188 Z" fill="#9E2B3A" stroke="#26456A" stroke-width="3" stroke-linejoin="round"></path><rect x="198" y="204" width="16" height="16" fill="#FBFAF6" opacity="0.85"></rect><rect x="230" y="204" width="16" height="16" fill="#FBFAF6" opacity="0.85"></rect><rect x="262" y="204" width="16" height="16" fill="#FBFAF6" opacity="0.85"></rect><rect x="294" y="204" width="16" height="16" fill="#FBFAF6" opacity="0.85"></rect><rect x="326" y="204" width="16" height="16" fill="#FBFAF6" opacity="0.85"></rect><g fill="#C98A4E"><circle cx="240" cy="236" r="10"></circle><circle cx="264" cy="238" r="10"></circle><circle cx="288" cy="236" r="10"></circle><circle cx="316" cy="238" r="10"></circle></g><rect x="360" y="220" width="140" height="76" fill="#C9A36B" stroke="#26456A" stroke-width="3"></rect><path d="M348 220 L512 220 L500 188 L360 188 Z" fill="#2C5E8C" stroke="#26456A" stroke-width="3" stroke-linejoin="round"></path><rect x="348" y="204" width="16" height="16" fill="#FBFAF6" opacity="0.85"></rect><rect x="380" y="204" width="16" height="16" fill="#FBFAF6" opacity="0.85"></rect><rect x="412" y="204" width="16" height="16" fill="#FBFAF6" opacity="0.85"></rect><rect x="444" y="204" width="16" height="16" fill="#FBFAF6" opacity="0.85"></rect><rect x="476" y="204" width="16" height="16" fill="#FBFAF6" opacity="0.85"></rect><g fill="#C98A4E"><circle cx="390" cy="236" r="10"></circle><circle cx="414" cy="238" r="10"></circle><circle cx="438" cy="236" r="10"></circle><circle cx="466" cy="238" r="10"></circle></g><rect x="510" y="220" width="140" height="76" fill="#C9A36B" stroke="#26456A" stroke-width="3"></rect><path d="M498 220 L662 220 L650 188 L510 188 Z" fill="#3E7D5A" stroke="#26456A" stroke-width="3" stroke-linejoin="round"></path><rect x="498" y="204" width="16" height="16" fill="#FBFAF6" opacity="0.85"></rect><rect x="530" y="204" width="16" height="16" fill="#FBFAF6" opacity="0.85"></rect><rect x="562" y="204" width="16" height="16" fill="#FBFAF6" opacity="0.85"></rect><rect x="594" y="204" width="16" height="16" fill="#FBFAF6" opacity="0.85"></rect><rect x="626" y="204" width="16" height="16" fill="#FBFAF6" opacity="0.85"></rect><g fill="#C98A4E"><circle cx="540" cy="236" r="10"></circle><circle cx="564" cy="238" r="10"></circle><circle cx="588" cy="236" r="10"></circle><circle cx="616" cy="238" r="10"></circle></g></svg>