<svg width="860" height="360" viewBox="0 0 860 360" fill="none" xmlns="http://www.w3.org/2000/svg" role="img" aria-label="Illustration of a market at night"><rect width="860" height="360" fill="#101A26"></rect><defs><linearGradient id="mksky" x1="0" y1="0" x2="0" y2="1"><stop offset="0" stop-color="#16263A"></stop><stop offset="1" stop-color="#0E1722"></stop></linearGradient></defs><rect width="860" height="296" fill="url(#mksky)"></rect><g fill="#A7C4E0"><circle cx="120" cy="60" r="1.6"></circle><circle cx="250" cy="108" r="1.2"></circle><circle cx="330" cy="56" r="1.4"></circle><circle cx="610" cy="100" r="1.4"></circle><circle cx="700" cy="60" r="1.2"></circle><circle cx="790" cy="120" r="1.6"></circle></g><g><circle cx="712" cy="78" r="28" fill="#D6E2EF"></circle><circle cx="726" cy="70" r="24" fill="#16263A"></circle></g><path d="M0 296 H860 V360 H0 Z" fill="#0C141D"></path><ellipse cx="430" cy="300" rx="270" ry="18" fill="#10202E"></ellipse><rect x="210" y="220" width="140" height="76" fill="#241A12" stroke="#5C84B0" stroke-width="3"></rect><path d="M198 220 L362 220 L350 188 L210 188 Z" fill="#3A2530" stroke="#5C84B0" stroke-width="3" stroke-linejoin="round"></path><rect x="198" y="204" width="16" height="16" fill="#2C4358" opacity="0.85"></rect><rect x="230" y="204" width="16" height="16" fill="#2C4358" opacity="0.85"></rect><rect x="262" y="204" width="16" height="16" fill="#2C4358" opacity="0.85"></rect><rect x="294" y="204" width="16" height="16" fill="#2C4358" opacity="0.85"></rect><rect x="326" y="204" width="16" height="16" fill="#2C4358" opacity="0.85"></rect><g fill="#3A5048"><circle cx="240" cy="236" r="10"></circle><circle cx="264" cy="238" r="10"></circle><circle cx="288" cy="236" r="10"></circle><circle cx="316" cy="238" r="10"></circle></g><rect x="360" y="220" width="140" height="76" fill="#241A12" stroke="#5C84B0" stroke-width="3"></rect><path d="M348 220 L512 220 L500 188 L360 188 Z" fill="#3A2530" stroke="#5C84B0" stroke-width="3" stroke-linejoin="round"></path><rect x="348" y="204" width="16" height="16" fill="#2C4358" opacity="0.85"></rect><rect x="380" y="204" width="16" height="16" fill="#2C4358" opacity="0.85"></rect><rect x="412" y="204" width="16" height="16" fill="#2C4358" opacity="0.85"></rect><rect x="444" y="204" width="16" height="16" fill="#2C4358" opacity="0.85"></rect><rect x="476" y="204" width="16" height="16" fill="#2C4358" opacity="0.85"></rect><g fill="#3A5048"><circle cx="390" cy="236" r="10"></circle><circle cx="414" cy="238" r="10"></circle><circle cx="438" cy="236" r="10"></circle><circle cx="466" cy="238" r="10"></circle></g><rect x="510" y="220" width="140" height="76" fill="#241A12" stroke="#5C84B0" stroke-width="3"></rect><path d="M498 220 L662 220 L650 188 L510 188 Z" fill="#3A2530" stroke="#5C84B0" stroke-width="3" stroke-linejoin="round"></path><rect x="498" y="204" width="16" height="16" fill="#2C4358" opacity="0.85"></rect><rect x="530" y="204" width="16" height="16" fill="#2C4358" opacity="0.85"></rect><rect x="562" y="204" width="16" height="16" fill="#2C4358" opacity="0.85"></rect><rect x="594" y="204" width="16" height="16" fill="#2C4358" opacity="0.85"></rect><rect x="626" y="204" width="16" height="16" fill="#2C4358" opacity="0.85"></rect><g fill="#3A5048"><circle cx="540" cy="236" r="10"></circle><circle cx="564" cy="238" r="10"></circle><circle cx="588" cy="236" r="10"></circle><circle cx="616" cy="238" r="10"></circle></g><g><circle cx="430" cy="150" r="6" fill="#F0C56E"></circle><circle cx="320" cy="160" r="5" fill="#F0C56E"></circle><circle cx="540" cy="160" r="5" fill="#F0C56E"></circle><path d="M180 150 Q430 130 680 150" stroke="#F0C56E" stroke-width="1.5" opacity="0.5" fill="none"></path></g></svg>