<svg width="860" height="360" viewBox="0 0 860 360" fill="none" xmlns="http://www.w3.org/2000/svg" role="img" aria-label="Illustration of meat"><rect width="860" height="360" fill="#EAE6DC"></rect><path d="M0 296 H860 V360 H0 Z" fill="#DED9CC"></path><ellipse cx="430" cy="308" rx="100" ry="16" fill="#D4CEBE"></ellipse><path d="M338 280 Q330 240 380 232 Q450 222 500 250 Q524 264 512 286 Q480 306 420 304 Q360 304 338 280 Z" fill="#A85A44" stroke="#26456A" stroke-width="3" stroke-linejoin="round"></path><path d="M338 280 Q330 240 380 232 Q360 256 372 282 Q356 288 338 280 Z" fill="#8A4636"></path><path d="M500 250 Q526 240 536 252 Q542 262 528 268 Q514 270 504 262" fill="#FBFAF6" stroke="#26456A" stroke-width="2.5" stroke-linejoin="round"></path><path d="M380 258 Q430 250 480 264" fill="none" stroke="#8A4636" stroke-width="2.5" opacity="0.6"></path></svg>