<svg width="860" height="360" viewBox="0 0 860 360" fill="none" xmlns="http://www.w3.org/2000/svg" role="img" aria-label="Illustration of a mountain at night"><rect width="860" height="360" fill="#101A26"></rect><defs><linearGradient id="mtn1" x1="0" y1="0" x2="0" y2="1"><stop offset="0" stop-color="#16263A"></stop><stop offset="1" stop-color="#0E1722"></stop></linearGradient></defs><rect width="860" height="360" fill="url(#mtn1)"></rect><g fill="#A7C4E0"><circle cx="120" cy="60" r="1.6"></circle><circle cx="250" cy="108" r="1.2"></circle><circle cx="330" cy="56" r="1.4"></circle><circle cx="610" cy="100" r="1.4"></circle><circle cx="700" cy="60" r="1.2"></circle><circle cx="790" cy="120" r="1.6"></circle><circle cx="180" cy="170" r="1.1"></circle><circle cx="540" cy="150" r="1.2"></circle></g><g><circle cx="712" cy="78" r="30" fill="#D6E2EF"></circle><circle cx="727" cy="70" r="26" fill="#16263A"></circle></g><path d="M0 296 H860 V360 H0 Z" fill="#0C141D"></path><path d="M120 296 L300 120 L420 296 Z" fill="#2C4356" stroke="#26456A" stroke-width="3" stroke-linejoin="round"></path><path d="M380 296 L560 96 L740 296 Z" fill="#2C4356" stroke="#26456A" stroke-width="3" stroke-linejoin="round"></path><path d="M262 176 L300 120 L338 176 Q318 162 300 168 Q282 162 262 176 Z" fill="#C7D6E6"></path><path d="M520 152 L560 96 L600 152 Q576 138 560 144 Q540 138 520 152 Z" fill="#C7D6E6"></path></svg>