<svg width="860" height="360" viewBox="0 0 860 360" fill="none" xmlns="http://www.w3.org/2000/svg" role="img" aria-label="Illustration of a mouth"><rect width="860" height="360" fill="#EAE6DC"></rect><path d="M0 296 H860 V360 H0 Z" fill="#DED9CC"></path><ellipse cx="430" cy="300" rx="96" ry="16" fill="#D4CEBE"></ellipse><path d="M340 232 Q380 248 430 244 Q480 248 520 232 Q480 286 430 286 Q380 286 340 232 Z" fill="#B83B4A" stroke="#26456A" stroke-width="3" stroke-linejoin="round"></path><path d="M340 232 Q380 208 430 222 Q480 208 520 232 Q480 244 430 240 Q380 244 340 232 Z" fill="#9E2B3A" stroke="#26456A" stroke-width="3" stroke-linejoin="round"></path><path d="M360 233 Q430 246 500 233 Q430 240 360 233 Z" fill="#FBFAF6"></path><line x1="350" y1="232" x2="510" y2="232" stroke="#26456A" stroke-width="2.5"></line></svg>