<svg width="860" height="360" viewBox="0 0 860 360" fill="none" xmlns="http://www.w3.org/2000/svg" role="img" aria-label="Illustration of a night sky"><rect width="860" height="360" fill="#101A26"></rect><defs><linearGradient id="sp" x1="0" y1="0" x2="0" y2="1"><stop offset="0" stop-color="#16263A"></stop><stop offset="1" stop-color="#0E1722"></stop></linearGradient></defs><rect width="860" height="360" fill="url(#sp)"></rect><g fill="#A7C4E0"><circle cx="120" cy="60" r="1.6"></circle><circle cx="220" cy="110" r="1.2"></circle><circle cx="300" cy="54" r="1.4"></circle><circle cx="560" cy="60" r="1.4"></circle><circle cx="650" cy="110" r="1.2"></circle><circle cx="740" cy="56" r="1.6"></circle><circle cx="180" cy="180" r="1.1"></circle><circle cx="680" cy="180" r="1.1"></circle><circle cx="430" cy="44" r="1.3"></circle></g><g fill="#A7C4E0"><circle cx="250" cy="150" r="1.5"></circle><circle cx="600" cy="160" r="1.5"></circle><circle cx="500" cy="100" r="1.2"></circle><circle cx="360" cy="130" r="1.2"></circle><circle cx="700" cy="200" r="1.3"></circle><circle cx="160" cy="120" r="1.3"></circle></g><g><circle cx="450" cy="150" r="58" fill="#D6E2EF"></circle><circle cx="476" cy="136" r="50" fill="#16263A"></circle></g><path d="M0 300 Q200 282 430 296 Q660 282 860 296 V360 H0 Z" fill="#0A1119"></path></svg>