<svg width="860" height="360" viewBox="0 0 860 360" fill="none" xmlns="http://www.w3.org/2000/svg" role="img" aria-label="Illustration of a office"><rect width="860" height="360" fill="#EAE6DC"></rect><circle cx="140" cy="86" r="30" fill="#E7B45A" opacity="0.85"></circle><path d="M0 296 H860 V360 H0 Z" fill="#DED9CC"></path><ellipse cx="430" cy="300" rx="150" ry="18" fill="#D4CEBE"></ellipse><rect x="338" y="120" width="184" height="176" fill="#FBFAF6" stroke="#26456A" stroke-width="3"></rect><rect x="356" y="138" width="40" height="20" fill="#CFE0EE" stroke="#26456A" stroke-width="2.5"></rect><rect x="410" y="138" width="40" height="20" fill="#CFE0EE" stroke="#26456A" stroke-width="2.5"></rect><rect x="464" y="138" width="40" height="20" fill="#CFE0EE" stroke="#26456A" stroke-width="2.5"></rect><rect x="356" y="168" width="40" height="20" fill="#CFE0EE" stroke="#26456A" stroke-width="2.5"></rect><rect x="410" y="168" width="40" height="20" fill="#CFE0EE" stroke="#26456A" stroke-width="2.5"></rect><rect x="464" y="168" width="40" height="20" fill="#CFE0EE" stroke="#26456A" stroke-width="2.5"></rect><rect x="356" y="198" width="40" height="20" fill="#CFE0EE" stroke="#26456A" stroke-width="2.5"></rect><rect x="410" y="198" width="40" height="20" fill="#CFE0EE" stroke="#26456A" stroke-width="2.5"></rect><rect x="464" y="198" width="40" height="20" fill="#CFE0EE" stroke="#26456A" stroke-width="2.5"></rect><rect x="356" y="228" width="40" height="20" fill="#CFE0EE" stroke="#26456A" stroke-width="2.5"></rect><rect x="410" y="228" width="40" height="20" fill="#CFE0EE" stroke="#26456A" stroke-width="2.5"></rect><rect x="464" y="228" width="40" height="20" fill="#CFE0EE" stroke="#26456A" stroke-width="2.5"></rect><rect x="356" y="258" width="40" height="20" fill="#CFE0EE" stroke="#26456A" stroke-width="2.5"></rect><rect x="410" y="258" width="40" height="20" fill="#CFE0EE" stroke="#26456A" stroke-width="2.5"></rect><rect x="464" y="258" width="40" height="20" fill="#CFE0EE" stroke="#26456A" stroke-width="2.5"></rect><rect x="404" y="276" width="52" height="20" fill="#7A5A3C" stroke="#26456A" stroke-width="3"></rect></svg>