<svg width="860" height="360" viewBox="0 0 860 360" fill="none" xmlns="http://www.w3.org/2000/svg" role="img" aria-label="Illustration of two parents"><rect width="860" height="360" fill="#EAE6DC"></rect><path d="M0 296 H860 V360 H0 Z" fill="#DED9CC"></path><ellipse cx="360" cy="322" rx="50" ry="14" fill="#D4CEBE"></ellipse><ellipse cx="500" cy="322" rx="52" ry="14" fill="#D4CEBE"></ellipse><rect x="337" y="250" width="19" height="72" rx="7" fill="#33424E" stroke="#26456A" stroke-width="3"></rect><rect x="364" y="250" width="19" height="72" rx="7" fill="#33424E" stroke="#26456A" stroke-width="3"></rect><path d="M326 256 Q320 196 338 188 Q360 180 382 188 Q400 196 394 256 Z" fill="#2C5E8C" stroke="#26456A" stroke-width="3" stroke-linejoin="round"></path><path d="M328 202 Q308 232 314 264" fill="none" stroke="#2C5E8C" stroke-width="15" stroke-linecap="round"></path><path d="M392 202 Q412 232 406 264" fill="none" stroke="#2C5E8C" stroke-width="15" stroke-linecap="round"></path><circle cx="312" cy="268" r="7" fill="#E8C4A0" stroke="#26456A" stroke-width="2.5"></circle><circle cx="408" cy="268" r="7" fill="#E8C4A0" stroke="#26456A" stroke-width="2.5"></circle><rect x="351" y="170" width="18" height="22" fill="#E8C4A0" stroke="#26456A" stroke-width="3"></rect><circle cx="360" cy="148" r="30" fill="#E8C4A0" stroke="#26456A" stroke-width="3"></circle><path d="M330 142 Q328 114 360 114 Q392 114 390 142 Q374 130 360 130 Q346 130 330 142 Z" fill="#3A2A1E" stroke="#26456A" stroke-width="2" stroke-linejoin="round"></path><g fill="#26456A"><circle cx="350" cy="148" r="3"></circle><circle cx="370" cy="148" r="3"></circle></g><path d="M352 162 Q360 168 368 162" fill="none" stroke="#26456A" stroke-width="2.5"></path><g stroke="#26456A" stroke-width="3" stroke-linecap="round"><line x1="486" y1="300" x2="486" y2="320"></line><line x1="514" y1="300" x2="514" y2="320"></line></g><path d="M470 192 Q500 184 530 192 L552 302 L448 302 Z" fill="#9E2B3A" stroke="#26456A" stroke-width="3" stroke-linejoin="round"></path><path d="M468 202 Q448 232 454 264" fill="none" stroke="#9E2B3A" stroke-width="15" stroke-linecap="round"></path><path d="M532 202 Q552 232 546 264" fill="none" stroke="#9E2B3A" stroke-width="15" stroke-linecap="round"></path><circle cx="452" cy="268" r="7" fill="#E8C4A0" stroke="#26456A" stroke-width="2.5"></circle><circle cx="548" cy="268" r="7" fill="#E8C4A0" stroke="#26456A" stroke-width="2.5"></circle><rect x="491" y="170" width="18" height="22" fill="#E8C4A0" stroke="#26456A" stroke-width="3"></rect><circle cx="500" cy="148" r="30" fill="#E8C4A0" stroke="#26456A" stroke-width="3"></circle><path d="M469 150 Q466 112 500 110 Q534 112 531 150 L530 196 L520 196 Q522 150 516 132 Q500 122 484 132 Q478 150 480 196 L470 196 Z" fill="#6A4A2E" stroke="#26456A" stroke-width="2" stroke-linejoin="round"></path><g fill="#26456A"><circle cx="490" cy="148" r="3"></circle><circle cx="510" cy="148" r="3"></circle></g><path d="M492 162 Q500 168 508 162" fill="none" stroke="#26456A" stroke-width="2.5"></path></svg>