<svg width="860" height="360" viewBox="0 0 860 360" fill="none" xmlns="http://www.w3.org/2000/svg" role="img" aria-label="Illustration of a party"><rect width="860" height="360" fill="#EAE6DC"></rect><path d="M0 296 H860 V360 H0 Z" fill="#DED9CC"></path><path d="M120 122 Q430 156 740 122" fill="none" stroke="#26456A" stroke-width="2"></path><g stroke="#26456A" stroke-width="1.5"><path d="M180 130 L210 132 L196 158 Z" fill="#9E2B3A"></path><path d="M276 136 L306 138 L292 164 Z" fill="#E7B45A"></path><path d="M560 138 L590 136 L576 164 Z" fill="#2C5E8C"></path><path d="M656 132 L686 130 L672 158 Z" fill="#9E2B3A"></path></g><g stroke="#26456A" stroke-width="2.5"><line x1="400" y1="244" x2="426" y2="306"></line><line x1="460" y1="228" x2="438" y2="306"></line><line x1="430" y1="278" x2="432" y2="306"></line></g><ellipse cx="400" cy="206" rx="40" ry="48" fill="#9E2B3A" stroke="#26456A" stroke-width="3"></ellipse><ellipse cx="462" cy="186" rx="38" ry="46" fill="#2C5E8C" stroke="#26456A" stroke-width="3"></ellipse><ellipse cx="430" cy="244" rx="34" ry="40" fill="#E7B45A" stroke="#26456A" stroke-width="3"></ellipse></svg>