<svg width="860" height="360" viewBox="0 0 860 360" fill="none" xmlns="http://www.w3.org/2000/svg" role="img" aria-label="Illustration of a pirate"><rect width="860" height="360" fill="#EAE6DC"></rect><path d="M0 296 H860 V360 H0 Z" fill="#DED9CC"></path><ellipse cx="430" cy="322" rx="48" ry="14" fill="#D4CEBE"></ellipse><rect x="407" y="250" width="19" height="72" rx="7" fill="#2A2A2E" stroke="#26456A" stroke-width="3"></rect><rect x="434" y="250" width="19" height="72" rx="7" fill="#2A2A2E" stroke="#26456A" stroke-width="3"></rect><path d="M396 256 Q390 196 408 188 Q430 180 452 188 Q470 196 464 256 Z" fill="#5A2A2A" stroke="#26456A" stroke-width="3" stroke-linejoin="round"></path><path d="M398 202 Q378 232 384 264" fill="none" stroke="#5A2A2A" stroke-width="15" stroke-linecap="round"></path><path d="M462 202 Q482 232 476 264" fill="none" stroke="#5A2A2A" stroke-width="15" stroke-linecap="round"></path><circle cx="382" cy="268" r="7" fill="#E8C4A0" stroke="#26456A" stroke-width="2.5"></circle><circle cx="478" cy="268" r="7" fill="#E8C4A0" stroke="#26456A" stroke-width="2.5"></circle><rect x="421" y="170" width="18" height="22" fill="#E8C4A0" stroke="#26456A" stroke-width="3"></rect><circle cx="430" cy="148" r="30" fill="#E8C4A0" stroke="#26456A" stroke-width="3"></circle><path d="M400 142 Q398 114 430 114 Q462 114 460 142 Q444 130 430 130 Q416 130 400 142 Z" fill="#1A1A1A" stroke="#26456A" stroke-width="2" stroke-linejoin="round"></path><g fill="#26456A"><circle cx="420" cy="148" r="3"></circle><circle cx="440" cy="148" r="3"></circle></g><path d="M422 162 Q430 168 438 162" fill="none" stroke="#26456A" stroke-width="2.5"></path><path d="M396 126 Q430 96 464 126 Q464 134 430 134 Q396 134 396 126 Z" fill="#1A2733" stroke="#26456A" stroke-width="3" stroke-linejoin="round"></path><path d="M414 110 Q430 106 446 110 M430 104 L430 122 M422 113 L438 113" stroke="#FBFAF6" stroke-width="2.5" fill="none"></path><path d="M420 144 L444 138" stroke="#26456A" stroke-width="3"></path><circle cx="420" cy="148" r="7" fill="#1A2733"></circle></svg>