<svg width="860" height="360" viewBox="0 0 860 360" fill="none" xmlns="http://www.w3.org/2000/svg" role="img" aria-label="Illustration of a planet"><rect width="860" height="360" fill="#101A26"></rect><defs><linearGradient id="sp" x1="0" y1="0" x2="0" y2="1"><stop offset="0" stop-color="#16263A"></stop><stop offset="1" stop-color="#0E1722"></stop></linearGradient></defs><rect width="860" height="360" fill="url(#sp)"></rect><g fill="#A7C4E0"><circle cx="120" cy="60" r="1.6"></circle><circle cx="220" cy="110" r="1.2"></circle><circle cx="300" cy="54" r="1.4"></circle><circle cx="560" cy="60" r="1.4"></circle><circle cx="650" cy="110" r="1.2"></circle><circle cx="740" cy="56" r="1.6"></circle><circle cx="180" cy="180" r="1.1"></circle><circle cx="680" cy="180" r="1.1"></circle><circle cx="430" cy="44" r="1.3"></circle></g><ellipse cx="430" cy="208" rx="146" ry="36" fill="none" stroke="#C9A86E" stroke-width="9" opacity="0.55"></ellipse><circle cx="430" cy="196" r="78" fill="#3E6E96" stroke="#A7C4E0" stroke-width="3"></circle><path d="M360 176 Q430 192 500 176 M366 220 Q430 236 494 220" fill="none" stroke="#2C557A" stroke-width="6" opacity="0.7"></path><circle cx="404" cy="172" r="14" fill="#5A86AE" opacity="0.7"></circle><path d="M300 218 Q430 256 560 218" fill="none" stroke="#C9A86E" stroke-width="9" opacity="0.95"></path></svg>