<svg width="860" height="360" viewBox="0 0 860 360" fill="none" xmlns="http://www.w3.org/2000/svg" role="img" aria-label="Illustration of a princess"><rect width="860" height="360" fill="#EAE6DC"></rect><path d="M0 296 H860 V360 H0 Z" fill="#DED9CC"></path><ellipse cx="430" cy="322" rx="52" ry="14" fill="#D4CEBE"></ellipse><g stroke="#26456A" stroke-width="3" stroke-linecap="round"><line x1="416" y1="300" x2="416" y2="320"></line><line x1="444" y1="300" x2="444" y2="320"></line></g><path d="M400 192 Q430 184 460 192 L482 302 L378 302 Z" fill="#D86A9A" stroke="#26456A" stroke-width="3" stroke-linejoin="round"></path><path d="M398 202 Q378 232 384 264" fill="none" stroke="#D86A9A" stroke-width="15" stroke-linecap="round"></path><path d="M462 202 Q482 232 476 264" fill="none" stroke="#D86A9A" stroke-width="15" stroke-linecap="round"></path><circle cx="382" cy="268" r="7" fill="#E8C4A0" stroke="#26456A" stroke-width="2.5"></circle><circle cx="478" cy="268" r="7" fill="#E8C4A0" stroke="#26456A" stroke-width="2.5"></circle><rect x="421" y="170" width="18" height="22" fill="#E8C4A0" stroke="#26456A" stroke-width="3"></rect><circle cx="430" cy="148" r="30" fill="#E8C4A0" stroke="#26456A" stroke-width="3"></circle><path d="M399 150 Q396 112 430 110 Q464 112 461 150 L460 196 L450 196 Q452 150 446 132 Q430 122 414 132 Q408 150 410 196 L400 196 Z" fill="#C99A5A" stroke="#26456A" stroke-width="2" stroke-linejoin="round"></path><g fill="#26456A"><circle cx="420" cy="148" r="3"></circle><circle cx="440" cy="148" r="3"></circle></g><path d="M422 162 Q430 168 438 162" fill="none" stroke="#26456A" stroke-width="2.5"></path><path d="M410 116 L416 104 L424 114 L430 100 L436 114 L444 104 L450 116 Z" fill="#E7B45A" stroke="#26456A" stroke-width="2" stroke-linejoin="round"></path><circle cx="430" cy="106" r="2.5" fill="#D86A9A"></circle></svg>