<svg width="860" height="360" viewBox="0 0 860 360" fill="none" xmlns="http://www.w3.org/2000/svg" role="img" aria-label="Illustration of a prison at night"><rect width="860" height="360" fill="#101A26"></rect><defs><linearGradient id="prsky" x1="0" y1="0" x2="0" y2="1"><stop offset="0" stop-color="#16263A"></stop><stop offset="1" stop-color="#0E1722"></stop></linearGradient></defs><rect width="860" height="296" fill="url(#prsky)"></rect><g fill="#A7C4E0"><circle cx="120" cy="60" r="1.6"></circle><circle cx="250" cy="108" r="1.2"></circle><circle cx="330" cy="56" r="1.4"></circle><circle cx="610" cy="100" r="1.4"></circle><circle cx="700" cy="60" r="1.2"></circle><circle cx="790" cy="120" r="1.6"></circle></g><g><circle cx="712" cy="78" r="28" fill="#D6E2EF"></circle><circle cx="726" cy="70" r="24" fill="#16263A"></circle></g><path d="M0 296 H860 V360 H0 Z" fill="#0C141D"></path><ellipse cx="430" cy="300" rx="250" ry="18" fill="#10202E"></ellipse><rect x="300" y="178" width="260" height="118" fill="#23323E" stroke="#5C84B0" stroke-width="3"></rect><rect x="330" y="200" width="48" height="52" fill="#11202A" stroke="#5C84B0" stroke-width="3"></rect><g stroke="#5C84B0" stroke-width="3"><line x1="346" y1="200" x2="346" y2="252"></line><line x1="362" y1="200" x2="362" y2="252"></line></g><rect x="406" y="200" width="48" height="52" fill="#F0C56E" stroke="#5C84B0" stroke-width="3"></rect><g stroke="#5C84B0" stroke-width="3"><line x1="422" y1="200" x2="422" y2="252"></line><line x1="438" y1="200" x2="438" y2="252"></line></g><rect x="482" y="200" width="48" height="52" fill="#11202A" stroke="#5C84B0" stroke-width="3"></rect><g stroke="#5C84B0" stroke-width="3"><line x1="498" y1="200" x2="498" y2="252"></line><line x1="514" y1="200" x2="514" y2="252"></line></g><rect x="408" y="266" width="44" height="30" fill="#241A22" stroke="#5C84B0" stroke-width="3"></rect><rect x="288" y="160" width="284" height="18" fill="#1A2730" stroke="#5C84B0" stroke-width="3"></rect><path d="M120 110 L300 220" stroke="#F0C56E" stroke-width="2" opacity="0.4"></path><circle cx="120" cy="108" r="6" fill="#F0C56E" opacity="0.7"></circle></svg>