<svg width="860" height="360" viewBox="0 0 860 360" fill="none" xmlns="http://www.w3.org/2000/svg" role="img" aria-label="Illustration of a prison"><rect width="860" height="360" fill="#EAE6DC"></rect><circle cx="140" cy="86" r="30" fill="#E7B45A" opacity="0.85"></circle><path d="M0 296 H860 V360 H0 Z" fill="#DED9CC"></path><ellipse cx="430" cy="300" rx="250" ry="18" fill="#D4CEBE"></ellipse><rect x="300" y="178" width="260" height="118" fill="#B9B3A6" stroke="#26456A" stroke-width="3"></rect><rect x="330" y="200" width="48" height="52" fill="#5A6470" stroke="#26456A" stroke-width="3"></rect><g stroke="#26456A" stroke-width="3"><line x1="346" y1="200" x2="346" y2="252"></line><line x1="362" y1="200" x2="362" y2="252"></line></g><rect x="406" y="200" width="48" height="52" fill="#5A6470" stroke="#26456A" stroke-width="3"></rect><g stroke="#26456A" stroke-width="3"><line x1="422" y1="200" x2="422" y2="252"></line><line x1="438" y1="200" x2="438" y2="252"></line></g><rect x="482" y="200" width="48" height="52" fill="#5A6470" stroke="#26456A" stroke-width="3"></rect><g stroke="#26456A" stroke-width="3"><line x1="498" y1="200" x2="498" y2="252"></line><line x1="514" y1="200" x2="514" y2="252"></line></g><rect x="408" y="266" width="44" height="30" fill="#7A5A3C" stroke="#26456A" stroke-width="3"></rect><rect x="288" y="160" width="284" height="18" fill="#9A948A" stroke="#26456A" stroke-width="3"></rect></svg>