<svg width="860" height="360" viewBox="0 0 860 360" fill="none" xmlns="http://www.w3.org/2000/svg" role="img" aria-label="Illustration of rain at night"><rect width="860" height="360" fill="#101A26"></rect><defs><linearGradient id="rn1" x1="0" y1="0" x2="0" y2="1"><stop offset="0" stop-color="#16263A"></stop><stop offset="1" stop-color="#0E1722"></stop></linearGradient></defs><rect width="860" height="360" fill="url(#rn1)"></rect><g><circle cx="720" cy="70" r="30" fill="#D6E2EF"></circle><circle cx="735" cy="62" r="26" fill="#16263A"></circle></g><path d="M0 296 H860 V360 H0 Z" fill="#0C141D"></path><g fill="#1E2A36"><circle cx="360" cy="140" r="36"></circle><circle cx="402" cy="149" r="30"></circle><circle cx="321" cy="152" r="25.5"></circle><rect x="294" y="146" width="132" height="30" rx="15"></rect></g><g fill="#1E2A36"><circle cx="560" cy="170" r="28.799999999999997"></circle><circle cx="593.6" cy="177.2" r="24"></circle><circle cx="528.8" cy="179.6" r="20.4"></circle><rect x="507.2" y="174.8" width="105.6" height="24" rx="12"></rect></g><g stroke="#5C84B0" stroke-width="3" stroke-linecap="round" opacity="0.8"><line x1="240" y1="210" x2="230" y2="236"></line><line x1="278" y1="224" x2="268" y2="250"></line><line x1="316" y1="238" x2="306" y2="264"></line><line x1="330" y1="252" x2="320" y2="278"></line><line x1="368" y1="210" x2="358" y2="236"></line><line x1="406" y1="224" x2="396" y2="250"></line><line x1="420" y1="238" x2="410" y2="264"></line><line x1="458" y1="252" x2="448" y2="278"></line><line x1="496" y1="210" x2="486" y2="236"></line><line x1="510" y1="224" x2="500" y2="250"></line><line x1="548" y1="238" x2="538" y2="264"></line><line x1="586" y1="252" x2="576" y2="278"></line><line x1="600" y1="210" x2="590" y2="236"></line><line x1="638" y1="224" x2="628" y2="250"></line></g><g fill="none" stroke="#5C84B0" stroke-width="2.5" opacity="0.7"><ellipse cx="380" cy="312" rx="40" ry="7"></ellipse><ellipse cx="520" cy="320" rx="30" ry="6"></ellipse></g><g fill="#A7C4E0"><circle cx="120" cy="90" r="1.4"></circle><circle cx="220" cy="60" r="1.2"></circle></g></svg>