<svg width="860" height="360" viewBox="0 0 860 360" fill="none" xmlns="http://www.w3.org/2000/svg" role="img" aria-label="Illustration of a restaurant at night"><rect width="860" height="360" fill="#19262F"></rect><rect y="262" width="860" height="98" fill="#13202A"></rect><line x1="0" y1="262" x2="860" y2="262" stroke="#5C84B0" stroke-width="2.5" opacity="0.4"></line><rect x="110" y="120" width="150" height="116" fill="#16263A" stroke="#5C84B0" stroke-width="3"></rect><g fill="#A7C4E0"><circle cx="155" cy="154.8" r="1.4"></circle><circle cx="200" cy="178" r="1.2"></circle></g><g><circle cx="218" cy="152.48000000000002" r="13" fill="#D6E2EF"></circle><circle cx="227" cy="147.84" r="11" fill="#16263A"></circle></g><line x1="185" y1="120" x2="185" y2="236" stroke="#5C84B0" stroke-width="2.5"></line><line x1="110" y1="178" x2="260" y2="178" stroke="#5C84B0" stroke-width="2.5"></line><line x1="470" y1="40" x2="470" y2="100" stroke="#5C84B0" stroke-width="2.5"></line><path d="M448 122 L458 100 L482 100 L492 122 Z" fill="#F0C56E" stroke="#5C84B0" stroke-width="3" stroke-linejoin="round"></path><ellipse cx="470" cy="144" rx="64" ry="40" fill="#F0C56E" opacity="0.16"></ellipse><ellipse cx="470" cy="252" rx="120" ry="20" fill="#243646" stroke="#5C84B0" stroke-width="3"></ellipse><rect x="462" y="252" width="16" height="46" fill="#241A12" stroke="#5C84B0" stroke-width="3"></rect><rect x="430" y="296" width="80" height="10" rx="4" fill="#241A12" stroke="#5C84B0" stroke-width="3"></rect><ellipse cx="438" cy="248" rx="26" ry="7" fill="#2C4358" stroke="#5C84B0" stroke-width="2"></ellipse><ellipse cx="506" cy="248" rx="26" ry="7" fill="#2C4358" stroke="#5C84B0" stroke-width="2"></ellipse><path d="M470 248 L470 220" stroke="#3A6E4A" stroke-width="3"></path><circle cx="470" cy="216" r="7" fill="#3A6E4A"></circle><rect x="300" y="232" width="34" height="20" fill="#241A12" stroke="#5C84B0" stroke-width="2.5"></rect><rect x="306" y="252" width="8" height="46" fill="#241A12"></rect><rect x="606" y="232" width="34" height="20" fill="#241A12" stroke="#5C84B0" stroke-width="2.5"></rect><rect x="626" y="252" width="8" height="46" fill="#241A12"></rect></svg>