<svg width="860" height="360" viewBox="0 0 860 360" fill="none" xmlns="http://www.w3.org/2000/svg" role="img" aria-label="Illustration of a restaurant"><rect width="860" height="360" fill="#ECE5D5"></rect><rect y="262" width="860" height="98" fill="#C9A36B"></rect><line x1="0" y1="262" x2="860" y2="262" stroke="#26456A" stroke-width="2.5" opacity="0.5"></line><rect x="110" y="120" width="150" height="116" fill="#BFD8EE" stroke="#26456A" stroke-width="3"></rect><circle cx="215" cy="154.8" r="14" fill="#E7B45A"></circle><path d="M110 201.2 Q170 178 260 203.51999999999998 L260 236 L110 236 Z" fill="#8FA593"></path><line x1="185" y1="120" x2="185" y2="236" stroke="#26456A" stroke-width="2.5"></line><line x1="110" y1="178" x2="260" y2="178" stroke="#26456A" stroke-width="2.5"></line><line x1="470" y1="40" x2="470" y2="100" stroke="#26456A" stroke-width="2.5"></line><path d="M448 122 L458 100 L482 100 L492 122 Z" fill="#CFE0EE" stroke="#26456A" stroke-width="3" stroke-linejoin="round"></path><ellipse cx="470" cy="252" rx="120" ry="20" fill="#FBFAF6" stroke="#26456A" stroke-width="3"></ellipse><rect x="462" y="252" width="16" height="46" fill="#8A6238" stroke="#26456A" stroke-width="3"></rect><rect x="430" y="296" width="80" height="10" rx="4" fill="#8A6238" stroke="#26456A" stroke-width="3"></rect><ellipse cx="438" cy="248" rx="26" ry="7" fill="#ECE7DC" stroke="#26456A" stroke-width="2"></ellipse><ellipse cx="506" cy="248" rx="26" ry="7" fill="#ECE7DC" stroke="#26456A" stroke-width="2"></ellipse><path d="M470 248 L470 220" stroke="#5E7A5A" stroke-width="3"></path><circle cx="470" cy="216" r="7" fill="#9E2B3A"></circle><rect x="300" y="232" width="34" height="20" fill="#8A6238" stroke="#26456A" stroke-width="2.5"></rect><rect x="306" y="252" width="8" height="46" fill="#8A6238"></rect><rect x="606" y="232" width="34" height="20" fill="#8A6238" stroke="#26456A" stroke-width="2.5"></rect><rect x="626" y="252" width="8" height="46" fill="#8A6238"></rect></svg>