<svg width="860" height="360" viewBox="0 0 860 360" fill="none" xmlns="http://www.w3.org/2000/svg" role="img" aria-label="Illustration of a river"><rect width="860" height="360" fill="#EAE6DC"></rect><circle cx="140" cy="86" r="30" fill="#E7B45A" opacity="0.85"></circle><path d="M0 200 Q215 176 430 196 Q645 176 860 196 V360 H0 Z" fill="#9DB1A2"></path><path d="M0 248 Q215 226 430 244 Q645 226 860 244 V360 H0 Z" fill="#8FA593"></path><path d="M386 360 Q430 300 404 262 Q384 230 440 206 Q472 192 470 184 L506 192 Q500 214 470 230 Q436 256 470 300 Q480 330 466 360 Z" fill="#6EA8DA" stroke="#4E86B8" stroke-width="2"></path><g stroke="#FFFFFF" stroke-width="2.5" opacity="0.5" stroke-linecap="round"><path d="M450 220 q10 -6 20 0"></path><path d="M444 280 q10 -6 20 0"></path></g></svg>