<svg width="860" height="360" viewBox="0 0 860 360" fill="none" xmlns="http://www.w3.org/2000/svg" role="img" aria-label="Illustration of a road at night">
  <rect width="860" height="360" fill="#101A26"></rect>
  <defs>
    <linearGradient id="rd-sky" x1="0" y1="0" x2="0" y2="1">
      <stop offset="0" stop-color="#16263A"></stop>
      <stop offset="1" stop-color="#0E1722"></stop>
    </linearGradient>
  </defs>
  <rect width="860" height="200" fill="url(#rd-sky)"></rect>

  <g fill="#A7C4E0">
    <circle cx="120" cy="60" r="1.6" opacity="0.9"></circle>
    <circle cx="250" cy="108" r="1.2" opacity="0.7"></circle>
    <circle cx="330" cy="56" r="1.4" opacity="0.8"></circle>
    <circle cx="610" cy="100" r="1.4" opacity="0.7"></circle>
    <circle cx="700" cy="60" r="1.2" opacity="0.7"></circle>
    <circle cx="780" cy="120" r="1.6" opacity="0.9"></circle>
  </g>

  <g>
    <circle cx="700" cy="80" r="28" fill="#D6E2EF"></circle>
    <circle cx="714" cy="72" r="24" fill="#16263A"></circle>
  </g>

  <path d="M0 200 Q215 172 430 196 Q645 172 860 196 V360 H0 Z" fill="#16293A"></path>
  <path d="M0 240 Q215 218 430 238 Q645 218 860 238 V360 H0 Z" fill="#11212E"></path>
  <path d="M0 300 H860 V360 H0 Z" fill="#0C141D"></path>

  <g opacity="0.85">
    <rect x="146" y="236" width="8" height="40" rx="3" fill="#22343F"></rect>
    <circle cx="150" cy="226" r="26" fill="#22414B"></circle>
  </g>
  <g opacity="0.85">
    <rect x="706" y="236" width="8" height="40" rx="3" fill="#22343F"></rect>
    <circle cx="710" cy="226" r="26" fill="#22414B"></circle>
  </g>

  <path d="M396 200 L464 200 L636 360 L224 360 Z" fill="#2A3D50" stroke="#5C84B0" stroke-width="3" stroke-linejoin="round"></path>

  <g fill="#F0C56E">
    <rect x="426" y="210" width="8" height="18" rx="2" opacity="0.85"></rect>
    <rect x="424" y="250" width="12" height="26" rx="2" opacity="0.92"></rect>
    <rect x="421" y="300" width="18" height="42" rx="3"></rect>
  </g>
</svg>