<svg width="860" height="360" viewBox="0 0 860 360" fill="none" xmlns="http://www.w3.org/2000/svg" role="img" aria-label="Illustration of a school at night"><rect width="860" height="360" fill="#101A26"></rect><defs><linearGradient id="schsky" x1="0" y1="0" x2="0" y2="1"><stop offset="0" stop-color="#16263A"></stop><stop offset="1" stop-color="#0E1722"></stop></linearGradient></defs><rect width="860" height="296" fill="url(#schsky)"></rect><g fill="#A7C4E0"><circle cx="120" cy="60" r="1.6"></circle><circle cx="250" cy="108" r="1.2"></circle><circle cx="330" cy="56" r="1.4"></circle><circle cx="610" cy="100" r="1.4"></circle><circle cx="700" cy="60" r="1.2"></circle><circle cx="790" cy="120" r="1.6"></circle></g><g><circle cx="712" cy="78" r="28" fill="#D6E2EF"></circle><circle cx="726" cy="70" r="24" fill="#16263A"></circle></g><path d="M0 296 H860 V360 H0 Z" fill="#0C141D"></path><ellipse cx="430" cy="300" rx="280" ry="18" fill="#10202E"></ellipse><rect x="300" y="176" width="260" height="120" fill="#2A3D50" stroke="#5C84B0" stroke-width="3"></rect><rect x="392" y="116" width="76" height="62" fill="#243646" stroke="#5C84B0" stroke-width="3"></rect><path d="M388 116 L430 84 L472 116 Z" fill="#2C4358" stroke="#5C84B0" stroke-width="3" stroke-linejoin="round"></path><circle cx="430" cy="146" r="14" fill="#F0C56E" stroke="#5C84B0" stroke-width="2.5"></circle><line x1="430" y1="146" x2="430" y2="138" stroke="#5C84B0" stroke-width="2"></line><line x1="430" y1="146" x2="437" y2="150" stroke="#5C84B0" stroke-width="2"></line><line x1="472" y1="84" x2="472" y2="62" stroke="#5C84B0" stroke-width="2.5"></line><path d="M472 64 L500 70 L472 78 Z" fill="#3A2530" stroke="#5C84B0" stroke-width="2"></path><rect x="406" y="244" width="48" height="52" fill="#241A22" stroke="#5C84B0" stroke-width="3"></rect><path d="M398 244 L462 244 L466 296 L394 296 Z" fill="#2A3640" stroke="#5C84B0" stroke-width="3" stroke-linejoin="round"></path><rect x="318" y="200" width="40" height="34" fill="#1E2E3C" stroke="#5C84B0" stroke-width="2.5"></rect><rect x="372" y="200" width="40" height="34" fill="#F0C56E" stroke="#5C84B0" stroke-width="2.5"></rect><rect x="448" y="200" width="40" height="34" fill="#F0C56E" stroke="#5C84B0" stroke-width="2.5"></rect><rect x="502" y="200" width="40" height="34" fill="#1E2E3C" stroke="#5C84B0" stroke-width="2.5"></rect><rect x="318" y="250" width="40" height="34" fill="#F0C56E" stroke="#5C84B0" stroke-width="2.5"></rect><rect x="502" y="250" width="40" height="34" fill="#1E2E3C" stroke="#5C84B0" stroke-width="2.5"></rect></svg>