<svg width="860" height="360" viewBox="0 0 860 360" fill="none" xmlns="http://www.w3.org/2000/svg" role="img" aria-label="Illustration of a school"><rect width="860" height="360" fill="#EAE6DC"></rect><circle cx="140" cy="86" r="30" fill="#E7B45A" opacity="0.85"></circle><path d="M0 296 H860 V360 H0 Z" fill="#DED9CC"></path><ellipse cx="430" cy="300" rx="280" ry="18" fill="#D4CEBE"></ellipse><rect x="300" y="176" width="260" height="120" fill="#FBFAF6" stroke="#26456A" stroke-width="3"></rect><rect x="392" y="116" width="76" height="62" fill="#CFE0EE" stroke="#26456A" stroke-width="3"></rect><path d="M388 116 L430 84 L472 116 Z" fill="#2C5E8C" stroke="#26456A" stroke-width="3" stroke-linejoin="round"></path><circle cx="430" cy="146" r="14" fill="#FBFAF6" stroke="#26456A" stroke-width="2.5"></circle><line x1="430" y1="146" x2="430" y2="138" stroke="#26456A" stroke-width="2"></line><line x1="430" y1="146" x2="437" y2="150" stroke="#26456A" stroke-width="2"></line><line x1="472" y1="84" x2="472" y2="62" stroke="#26456A" stroke-width="2.5"></line><path d="M472 64 L500 70 L472 78 Z" fill="#9E2B3A" stroke="#26456A" stroke-width="2"></path><rect x="406" y="244" width="48" height="52" fill="#7A5A3C" stroke="#26456A" stroke-width="3"></rect><path d="M398 244 L462 244 L466 296 L394 296 Z" fill="#C7C0B0" stroke="#26456A" stroke-width="3" stroke-linejoin="round"></path><rect x="318" y="200" width="40" height="34" fill="#CFE0EE" stroke="#26456A" stroke-width="2.5"></rect><rect x="372" y="200" width="40" height="34" fill="#CFE0EE" stroke="#26456A" stroke-width="2.5"></rect><rect x="448" y="200" width="40" height="34" fill="#CFE0EE" stroke="#26456A" stroke-width="2.5"></rect><rect x="502" y="200" width="40" height="34" fill="#CFE0EE" stroke="#26456A" stroke-width="2.5"></rect><rect x="318" y="250" width="40" height="34" fill="#CFE0EE" stroke="#26456A" stroke-width="2.5"></rect><rect x="502" y="250" width="40" height="34" fill="#CFE0EE" stroke="#26456A" stroke-width="2.5"></rect></svg>