<svg width="860" height="360" viewBox="0 0 860 360" fill="none" xmlns="http://www.w3.org/2000/svg" role="img" aria-label="Illustration of the sea at night">
  <rect width="860" height="360" fill="#101A26"></rect>
  <defs>
    <linearGradient id="se-sky" x1="0" y1="0" x2="0" y2="1">
      <stop offset="0" stop-color="#16263A"></stop>
      <stop offset="1" stop-color="#0E1722"></stop>
    </linearGradient>
    <linearGradient id="se-water" x1="0" y1="0" x2="0" y2="1">
      <stop offset="0" stop-color="#1F4E79"></stop>
      <stop offset="1" stop-color="#16263A"></stop>
    </linearGradient>
  </defs>
  <rect width="860" height="198" fill="url(#se-sky)"></rect>

  <g fill="#A7C4E0">
    <circle cx="120" cy="60" r="1.6" opacity="0.9"></circle>
    <circle cx="230" cy="110" r="1.2" opacity="0.7"></circle>
    <circle cx="320" cy="64" r="1.4" opacity="0.8"></circle>
    <circle cx="760" cy="120" r="1.2" opacity="0.7"></circle>
    <circle cx="800" cy="56" r="1.6" opacity="0.9"></circle>
  </g>
  <g>
    <circle cx="560" cy="84" r="30" fill="#D6E2EF"></circle>
    <circle cx="576" cy="76" r="26" fill="#16263A"></circle>
  </g>

  <rect x="0" y="198" width="860" height="162" fill="url(#se-water)"></rect>

  
  <g fill="#F0C56E" opacity="0.8">
    <rect x="540" y="206" width="40" height="5" rx="2.5" opacity="0.9"></rect>
    <rect x="536" y="222" width="48" height="5" rx="2.5" opacity="0.7"></rect>
    <rect x="544" y="240" width="32" height="5" rx="2.5" opacity="0.8"></rect>
    <rect x="532" y="260" width="56" height="5" rx="2.5" opacity="0.55"></rect>
    <rect x="546" y="282" width="28" height="5" rx="2.5" opacity="0.6"></rect>
    <rect x="528" y="306" width="64" height="5" rx="2.5" opacity="0.4"></rect>
  </g>

  
  <g>
    <path d="M180 198 L182 138 L226 188 Z" fill="#2A3D50" stroke="#5C84B0" stroke-width="3" stroke-linejoin="round"></path>
    <path d="M178 188 L178 138 L144 188 Z" fill="#243646" stroke="#5C84B0" stroke-width="3" stroke-linejoin="round"></path>
    <line x1="180" y1="134" x2="180" y2="196" stroke="#5C84B0" stroke-width="3"></line>
    <path d="M138 196 L226 196 L212 214 L152 214 Z" fill="#22343F" stroke="#5C84B0" stroke-width="3" stroke-linejoin="round"></path>
    <circle cx="180" cy="158" r="3.5" fill="#F0C56E"></circle>
  </g>

  <g fill="none" stroke="#3E6E96" stroke-width="3.5" stroke-linecap="round" opacity="0.7">
    <path d="M250 280 q16 -11 32 0 t32 0"></path>
    <path d="M120 318 q16 -11 32 0 t32 0"></path>
    <path d="M650 300 q16 -11 32 0 t32 0"></path>
  </g>
</svg>