<svg width="860" height="360" viewBox="0 0 860 360" fill="none" xmlns="http://www.w3.org/2000/svg" role="img" aria-label="Illustration of a shop"><rect width="860" height="360" fill="#EAE6DC"></rect><circle cx="140" cy="86" r="30" fill="#E7B45A" opacity="0.85"></circle><path d="M0 296 H860 V360 H0 Z" fill="#DED9CC"></path><ellipse cx="430" cy="300" rx="230" ry="18" fill="#D4CEBE"></ellipse><rect x="320" y="186" width="220" height="110" fill="#FBFAF6" stroke="#26456A" stroke-width="3"></rect><rect x="336" y="226" width="120" height="70" fill="#CFE0EE" stroke="#26456A" stroke-width="3"></rect><rect x="470" y="226" width="54" height="70" fill="#7A5A3C" stroke="#26456A" stroke-width="3"></rect><path d="M312 186 L548 186 L548 210 L312 210 Z" fill="#9E2B3A" stroke="#26456A" stroke-width="3"></path><g fill="#C24250"><path d="M320 210 L336 210 L328 226 Z"></path><path d="M352 210 L368 210 L360 226 Z"></path><path d="M384 210 L400 210 L392 226 Z"></path><path d="M416 210 L432 210 L424 226 Z"></path><path d="M448 210 L464 210 L456 226 Z"></path><path d="M480 210 L496 210 L488 226 Z"></path><path d="M512 210 L528 210 L520 226 Z"></path></g><rect x="356" y="160" width="128" height="22" rx="4" fill="#2C5E8C" stroke="#26456A" stroke-width="2.5"></rect></svg>