<svg width="860" height="360" viewBox="0 0 860 360" fill="none" xmlns="http://www.w3.org/2000/svg" role="img" aria-label="Illustration of a shop at night"><rect width="860" height="360" fill="#101A26"></rect><defs><linearGradient id="shosky" x1="0" y1="0" x2="0" y2="1"><stop offset="0" stop-color="#16263A"></stop><stop offset="1" stop-color="#0E1722"></stop></linearGradient></defs><rect width="860" height="296" fill="url(#shosky)"></rect><g fill="#A7C4E0"><circle cx="120" cy="60" r="1.6"></circle><circle cx="250" cy="108" r="1.2"></circle><circle cx="330" cy="56" r="1.4"></circle><circle cx="610" cy="100" r="1.4"></circle><circle cx="700" cy="60" r="1.2"></circle><circle cx="790" cy="120" r="1.6"></circle></g><g><circle cx="712" cy="78" r="28" fill="#D6E2EF"></circle><circle cx="726" cy="70" r="24" fill="#16263A"></circle></g><path d="M0 296 H860 V360 H0 Z" fill="#0C141D"></path><ellipse cx="430" cy="300" rx="230" ry="18" fill="#10202E"></ellipse><rect x="320" y="186" width="220" height="110" fill="#2A3D50" stroke="#5C84B0" stroke-width="3"></rect><rect x="336" y="226" width="120" height="70" fill="#F0C56E" stroke="#5C84B0" stroke-width="3"></rect><rect x="470" y="226" width="54" height="70" fill="#241A22" stroke="#5C84B0" stroke-width="3"></rect><path d="M312 186 L548 186 L548 210 L312 210 Z" fill="#3A2530" stroke="#5C84B0" stroke-width="3"></path><g fill="#7E1F2C"><path d="M320 210 L336 210 L328 226 Z"></path><path d="M352 210 L368 210 L360 226 Z"></path><path d="M384 210 L400 210 L392 226 Z"></path><path d="M416 210 L432 210 L424 226 Z"></path><path d="M448 210 L464 210 L456 226 Z"></path><path d="M480 210 L496 210 L488 226 Z"></path><path d="M512 210 L528 210 L520 226 Z"></path></g><rect x="356" y="160" width="128" height="22" rx="4" fill="#2C4358" stroke="#5C84B0" stroke-width="2.5"></rect></svg>