<svg width="860" height="360" viewBox="0 0 860 360" fill="none" xmlns="http://www.w3.org/2000/svg" role="img" aria-label="Illustration of two sisters"><rect width="860" height="360" fill="#EAE6DC"></rect><path d="M0 296 H860 V360 H0 Z" fill="#DED9CC"></path><ellipse cx="370" cy="322" rx="42" ry="14" fill="#D4CEBE"></ellipse><ellipse cx="490" cy="322" rx="42" ry="14" fill="#D4CEBE"></ellipse><rect x="353" y="288" width="15" height="34" rx="6" fill="#33424E" stroke="#26456A" stroke-width="3"></rect><rect x="372" y="288" width="15" height="34" rx="6" fill="#33424E" stroke="#26456A" stroke-width="3"></rect><path d="M343 292 Q338 246 353 240 Q370 234 387 240 Q402 246 397 292 Z" fill="#9E2B3A" stroke="#26456A" stroke-width="3" stroke-linejoin="round"></path><path d="M344 252 Q330 276 334 296" fill="none" stroke="#9E2B3A" stroke-width="12" stroke-linecap="round"></path><path d="M396 252 Q410 276 406 296" fill="none" stroke="#9E2B3A" stroke-width="12" stroke-linecap="round"></path><rect x="363" y="232" width="14" height="16" fill="#E8C4A0" stroke="#26456A" stroke-width="3"></rect><circle cx="370" cy="214" r="24" fill="#E8C4A0" stroke="#26456A" stroke-width="3"></circle><path d="M346 208 Q346 186 370 186 Q394 186 394 208 Q381 198 370 198 Q359 198 346 208 Z" fill="#6A4A2E" stroke="#26456A" stroke-width="2" stroke-linejoin="round"></path><g fill="#26456A"><circle cx="362" cy="214" r="2.6"></circle><circle cx="378" cy="214" r="2.6"></circle></g><path d="M364 226 Q370 231 376 226" fill="none" stroke="#26456A" stroke-width="2.2"></path><rect x="473" y="288" width="15" height="34" rx="6" fill="#33424E" stroke="#26456A" stroke-width="3"></rect><rect x="492" y="288" width="15" height="34" rx="6" fill="#33424E" stroke="#26456A" stroke-width="3"></rect><path d="M463 292 Q458 246 473 240 Q490 234 507 240 Q522 246 517 292 Z" fill="#E7B45A" stroke="#26456A" stroke-width="3" stroke-linejoin="round"></path><path d="M464 252 Q450 276 454 296" fill="none" stroke="#E7B45A" stroke-width="12" stroke-linecap="round"></path><path d="M516 252 Q530 276 526 296" fill="none" stroke="#E7B45A" stroke-width="12" stroke-linecap="round"></path><rect x="483" y="232" width="14" height="16" fill="#E8C4A0" stroke="#26456A" stroke-width="3"></rect><circle cx="490" cy="214" r="24" fill="#E8C4A0" stroke="#26456A" stroke-width="3"></circle><path d="M466 208 Q466 186 490 186 Q514 186 514 208 Q501 198 490 198 Q479 198 466 208 Z" fill="#3A2A1E" stroke="#26456A" stroke-width="2" stroke-linejoin="round"></path><g fill="#26456A"><circle cx="482" cy="214" r="2.6"></circle><circle cx="498" cy="214" r="2.6"></circle></g><path d="M484 226 Q490 231 496 226" fill="none" stroke="#26456A" stroke-width="2.2"></path></svg>