<svg width="860" height="360" viewBox="0 0 860 360" fill="none" xmlns="http://www.w3.org/2000/svg" role="img" aria-label="Illustration of the sky at night"><rect width="860" height="360" fill="#101A26"></rect><defs><linearGradient id="sky1" x1="0" y1="0" x2="0" y2="1"><stop offset="0" stop-color="#16263A"></stop><stop offset="1" stop-color="#0E1722"></stop></linearGradient></defs><rect width="860" height="360" fill="url(#sky1)"></rect><g fill="#A7C4E0"><circle cx="120" cy="60" r="1.6"></circle><circle cx="250" cy="108" r="1.2"></circle><circle cx="330" cy="56" r="1.4"></circle><circle cx="610" cy="100" r="1.4"></circle><circle cx="700" cy="60" r="1.2"></circle><circle cx="790" cy="120" r="1.6"></circle><circle cx="180" cy="170" r="1.1"></circle><circle cx="540" cy="150" r="1.2"></circle></g><g fill="#A7C4E0"><circle cx="430" cy="90" r="1.5"></circle><circle cx="360" cy="200" r="1.3"></circle><circle cx="640" cy="180" r="1.3"></circle><circle cx="280" cy="120" r="1.2"></circle></g><g><circle cx="440" cy="140" r="30" fill="#D6E2EF"></circle><circle cx="455" cy="132" r="26" fill="#16263A"></circle></g><g fill="#1C2E40"><circle cx="620" cy="230" r="21.6"></circle><circle cx="645.2" cy="235.4" r="18"></circle><circle cx="596.6" cy="237.2" r="15.3"></circle><rect x="580.4" y="233.6" width="79.2" height="18" rx="9"></rect></g><g fill="#1A2A3A"><circle cx="250" cy="250" r="19.200000000000003"></circle><circle cx="272.4" cy="254.8" r="16"></circle><circle cx="229.2" cy="256.4" r="13.600000000000001"></circle><rect x="214.8" y="253.2" width="70.4" height="16" rx="8"></rect></g></svg>