<svg width="860" height="360" viewBox="0 0 860 360" fill="none" xmlns="http://www.w3.org/2000/svg" role="img" aria-label="Illustration of a space at night"><rect width="860" height="360" fill="#19262F"></rect><rect y="262" width="860" height="98" fill="#13202A"></rect><line x1="0" y1="262" x2="860" y2="262" stroke="#5C84B0" stroke-width="2.5" opacity="0.4"></line><rect x="110" y="100" width="200" height="150" fill="#16263A" stroke="#5C84B0" stroke-width="3"></rect><g fill="#A7C4E0"><circle cx="170" cy="145" r="1.4"></circle><circle cx="230" cy="175" r="1.2"></circle></g><g><circle cx="254" cy="142" r="13" fill="#D6E2EF"></circle><circle cx="266" cy="136" r="11" fill="#16263A"></circle></g><line x1="210" y1="100" x2="210" y2="250" stroke="#5C84B0" stroke-width="2.5"></line><line x1="110" y1="175" x2="310" y2="175" stroke="#5C84B0" stroke-width="2.5"></line><line x1="640" y1="40" x2="640" y2="108" stroke="#5C84B0" stroke-width="2.5"></line><path d="M618 130 L628 108 L652 108 L662 130 Z" fill="#F0C56E" stroke="#5C84B0" stroke-width="3" stroke-linejoin="round"></path><ellipse cx="640" cy="152" rx="64" ry="40" fill="#F0C56E" opacity="0.16"></ellipse><rect x="556" y="206" width="44" height="58" rx="6" fill="#241A12" stroke="#5C84B0" stroke-width="3"></rect><rect x="552" y="172" width="52" height="40" rx="8" fill="#2C4358" stroke="#5C84B0" stroke-width="3"></rect><rect x="690" y="150" width="34" height="40" rx="4" fill="#241A12" stroke="#5C84B0" stroke-width="3"></rect><g stroke="#3A6E4A" stroke-width="4" fill="none"><path d="M707 150 Q695 130 700 112 M707 150 Q719 132 720 116"></path></g></svg>