<svg width="860" height="360" viewBox="0 0 860 360" fill="none" xmlns="http://www.w3.org/2000/svg" role="img" aria-label="Illustration of a room or space"><rect width="860" height="360" fill="#ECE5D5"></rect><rect y="262" width="860" height="98" fill="#C9A36B"></rect><line x1="0" y1="262" x2="860" y2="262" stroke="#26456A" stroke-width="2.5" opacity="0.5"></line><rect x="110" y="100" width="200" height="150" fill="#BFD8EE" stroke="#26456A" stroke-width="3"></rect><circle cx="250" cy="145" r="14" fill="#E7B45A"></circle><path d="M110 205 Q190 175 310 208 L310 250 L110 250 Z" fill="#8FA593"></path><line x1="210" y1="100" x2="210" y2="250" stroke="#26456A" stroke-width="2.5"></line><line x1="110" y1="175" x2="310" y2="175" stroke="#26456A" stroke-width="2.5"></line><line x1="640" y1="40" x2="640" y2="108" stroke="#26456A" stroke-width="2.5"></line><path d="M618 130 L628 108 L652 108 L662 130 Z" fill="#CFE0EE" stroke="#26456A" stroke-width="3" stroke-linejoin="round"></path><rect x="556" y="206" width="44" height="58" rx="6" fill="#8A6238" stroke="#26456A" stroke-width="3"></rect><rect x="552" y="172" width="52" height="40" rx="8" fill="#CFE0EE" stroke="#26456A" stroke-width="3"></rect><rect x="690" y="150" width="34" height="40" rx="4" fill="#8A6238" stroke="#26456A" stroke-width="3"></rect><g stroke="#5E7A5A" stroke-width="4" fill="none"><path d="M707 150 Q695 130 700 112 M707 150 Q719 132 720 116"></path></g></svg>