<svg width="860" height="360" viewBox="0 0 860 360" fill="none" xmlns="http://www.w3.org/2000/svg" role="img" aria-label="Illustration of a town square"><rect width="860" height="360" fill="#EAE6DC"></rect><circle cx="140" cy="86" r="30" fill="#E7B45A" opacity="0.85"></circle><path d="M0 296 H860 V360 H0 Z" fill="#DED9CC"></path><ellipse cx="430" cy="300" rx="280" ry="18" fill="#D4CEBE"></ellipse><rect x="150" y="200" width="120" height="96" fill="#FBFAF6" stroke="#26456A" stroke-width="3"></rect><rect x="590" y="200" width="120" height="96" fill="#FBFAF6" stroke="#26456A" stroke-width="3"></rect><rect x="168" y="216" width="36" height="28" fill="#CFE0EE" stroke="#26456A" stroke-width="2.5"></rect><rect x="220" y="216" width="36" height="28" fill="#CFE0EE" stroke="#26456A" stroke-width="2.5"></rect><rect x="608" y="216" width="36" height="28" fill="#CFE0EE" stroke="#26456A" stroke-width="2.5"></rect><rect x="660" y="216" width="36" height="28" fill="#CFE0EE" stroke="#26456A" stroke-width="2.5"></rect><ellipse cx="430" cy="296" rx="86" ry="16" fill="#C7C0B0" stroke="#26456A" stroke-width="2.5"></ellipse><rect x="416" y="200" width="28" height="92" fill="#D8D2C4" stroke="#26456A" stroke-width="3"></rect><circle cx="430" cy="186" r="22" fill="#D8D2C4" stroke="#26456A" stroke-width="3"></circle><rect x="404" y="290" width="52" height="10" fill="#D8D2C4" stroke="#26456A" stroke-width="2.5"></rect><rect x="317" y="236" width="6" height="60" fill="#5E6F66"></rect><circle cx="320" cy="230" r="9" fill="#CFE0EE" stroke="#26456A" stroke-width="2.5"></circle><rect x="537" y="236" width="6" height="60" fill="#5E6F66"></rect><circle cx="540" cy="230" r="9" fill="#CFE0EE" stroke="#26456A" stroke-width="2.5"></circle></svg>