<svg width="860" height="360" viewBox="0 0 860 360" fill="none" xmlns="http://www.w3.org/2000/svg" role="img" aria-label="Illustration of a town square at night"><rect width="860" height="360" fill="#101A26"></rect><defs><linearGradient id="sqsky" x1="0" y1="0" x2="0" y2="1"><stop offset="0" stop-color="#16263A"></stop><stop offset="1" stop-color="#0E1722"></stop></linearGradient></defs><rect width="860" height="296" fill="url(#sqsky)"></rect><g fill="#A7C4E0"><circle cx="120" cy="60" r="1.6"></circle><circle cx="250" cy="108" r="1.2"></circle><circle cx="330" cy="56" r="1.4"></circle><circle cx="610" cy="100" r="1.4"></circle><circle cx="700" cy="60" r="1.2"></circle><circle cx="790" cy="120" r="1.6"></circle></g><g><circle cx="712" cy="78" r="28" fill="#D6E2EF"></circle><circle cx="726" cy="70" r="24" fill="#16263A"></circle></g><path d="M0 296 H860 V360 H0 Z" fill="#0C141D"></path><ellipse cx="430" cy="300" rx="280" ry="18" fill="#10202E"></ellipse><rect x="150" y="200" width="120" height="96" fill="#2A3D50" stroke="#5C84B0" stroke-width="3"></rect><rect x="590" y="200" width="120" height="96" fill="#2A3D50" stroke="#5C84B0" stroke-width="3"></rect><rect x="168" y="216" width="36" height="28" fill="#F0C56E" stroke="#5C84B0" stroke-width="2.5"></rect><rect x="220" y="216" width="36" height="28" fill="#1E2E3C" stroke="#5C84B0" stroke-width="2.5"></rect><rect x="608" y="216" width="36" height="28" fill="#1E2E3C" stroke="#5C84B0" stroke-width="2.5"></rect><rect x="660" y="216" width="36" height="28" fill="#F0C56E" stroke="#5C84B0" stroke-width="2.5"></rect><ellipse cx="430" cy="296" rx="86" ry="16" fill="#16242E" stroke="#5C84B0" stroke-width="2.5"></ellipse><rect x="416" y="200" width="28" height="92" fill="#33424E" stroke="#5C84B0" stroke-width="3"></rect><circle cx="430" cy="186" r="22" fill="#33424E" stroke="#5C84B0" stroke-width="3"></circle><rect x="404" y="290" width="52" height="10" fill="#33424E" stroke="#5C84B0" stroke-width="2.5"></rect><rect x="317" y="236" width="6" height="60" fill="#33424E"></rect><circle cx="320" cy="230" r="9" fill="#F0C56E" stroke="#5C84B0" stroke-width="2.5"></circle><rect x="537" y="236" width="6" height="60" fill="#33424E"></rect><circle cx="540" cy="230" r="9" fill="#F0C56E" stroke="#5C84B0" stroke-width="2.5"></circle><ellipse cx="320" cy="296" rx="40" ry="10" fill="#F0C56E" opacity="0.16"></ellipse><ellipse cx="540" cy="296" rx="40" ry="10" fill="#F0C56E" opacity="0.16"></ellipse></svg>