<svg width="860" height="360" viewBox="0 0 860 360" fill="none" xmlns="http://www.w3.org/2000/svg" role="img" aria-label="Illustration of a star"><rect width="860" height="360" fill="#101A26"></rect><defs><linearGradient id="sp" x1="0" y1="0" x2="0" y2="1"><stop offset="0" stop-color="#16263A"></stop><stop offset="1" stop-color="#0E1722"></stop></linearGradient></defs><rect width="860" height="360" fill="url(#sp)"></rect><g fill="#A7C4E0"><circle cx="120" cy="60" r="1.6"></circle><circle cx="220" cy="110" r="1.2"></circle><circle cx="300" cy="54" r="1.4"></circle><circle cx="560" cy="60" r="1.4"></circle><circle cx="650" cy="110" r="1.2"></circle><circle cx="740" cy="56" r="1.6"></circle><circle cx="180" cy="180" r="1.1"></circle><circle cx="680" cy="180" r="1.1"></circle><circle cx="430" cy="44" r="1.3"></circle></g><defs><radialGradient id="stg" cx="0.5" cy="0.5" r="0.5"><stop offset="0" stop-color="#F0C56E" stop-opacity="0.55"></stop><stop offset="1" stop-color="#F0C56E" stop-opacity="0"></stop></radialGradient></defs><circle cx="430" cy="196" r="120" fill="url(#stg)"></circle><path d="M430 124 L448 172 L498 174 L458 205 L472 254 L430 226 L388 254 L402 205 L361 174 L412 172 Z" fill="#F0C56E" stroke="#D69A3A" stroke-width="3" stroke-linejoin="round"></path></svg>