<svg width="860" height="360" viewBox="0 0 860 360" fill="none" xmlns="http://www.w3.org/2000/svg" role="img" aria-label="Illustration of a station at night"><rect width="860" height="360" fill="#101A26"></rect><defs><linearGradient id="stasky" x1="0" y1="0" x2="0" y2="1"><stop offset="0" stop-color="#16263A"></stop><stop offset="1" stop-color="#0E1722"></stop></linearGradient></defs><rect width="860" height="296" fill="url(#stasky)"></rect><g fill="#A7C4E0"><circle cx="120" cy="60" r="1.6"></circle><circle cx="250" cy="108" r="1.2"></circle><circle cx="330" cy="56" r="1.4"></circle><circle cx="610" cy="100" r="1.4"></circle><circle cx="700" cy="60" r="1.2"></circle><circle cx="790" cy="120" r="1.6"></circle></g><g><circle cx="712" cy="78" r="28" fill="#D6E2EF"></circle><circle cx="726" cy="70" r="24" fill="#16263A"></circle></g><path d="M0 296 H860 V360 H0 Z" fill="#0C141D"></path><ellipse cx="430" cy="300" rx="270" ry="18" fill="#10202E"></ellipse><rect x="316" y="176" width="228" height="120" fill="#2A3D50" stroke="#5C84B0" stroke-width="3"></rect><rect x="296" y="160" width="268" height="22" fill="#3A2530" stroke="#5C84B0" stroke-width="3"></rect><circle cx="430" cy="206" r="20" fill="#F0C56E" stroke="#5C84B0" stroke-width="3"></circle><line x1="430" y1="206" x2="430" y2="194" stroke="#5C84B0" stroke-width="2.5"></line><line x1="430" y1="206" x2="440" y2="212" stroke="#5C84B0" stroke-width="2.5"></line><rect x="340" y="196" width="40" height="32" fill="#F0C56E" stroke="#5C84B0" stroke-width="2.5"></rect><rect x="480" y="196" width="40" height="32" fill="#1E2E3C" stroke="#5C84B0" stroke-width="2.5"></rect><rect x="392" y="248" width="76" height="48" fill="#241A22" stroke="#5C84B0" stroke-width="3"></rect></svg>