<svg width="860" height="360" viewBox="0 0 860 360" fill="none" xmlns="http://www.w3.org/2000/svg" role="img" aria-label="Illustration of a street"><rect width="860" height="360" fill="#EAE6DC"></rect><circle cx="140" cy="86" r="30" fill="#E7B45A" opacity="0.85"></circle><path d="M0 296 H860 V360 H0 Z" fill="#DED9CC"></path><path d="M250 360 L406 192 L450 192 L610 360 Z" fill="#9D978A" stroke="#26456A" stroke-width="3" stroke-linejoin="round"></path><g fill="#F4EEDC"><path d="M423 352 L437 352 L440 322 L420 322 Z"></path><path d="M424 306 L435 306 L437 282 L422 282 Z"></path><path d="M426 270 L434 270 L435 250 L425 250 Z"></path><path d="M427 240 L433 240 L434 224 L426 224 Z"></path><path d="M428 216 L432 216 L433 204 L427 204 Z"></path></g><rect x="646" y="150" width="11" height="152" fill="#8C8C8C" stroke="#26456A" stroke-width="3"></rect><rect x="554" y="146" width="152" height="40" rx="6" fill="#2E7D5B" stroke="#26456A" stroke-width="3"></rect><g fill="#FBFAF6"><rect x="570" y="160" width="62" height="7" rx="3.5"></rect><rect x="570" y="172" width="42" height="5" rx="2.5"></rect></g><path d="M706 144 L726 166 L706 188 Z" fill="#2E7D5B" stroke="#26456A" stroke-width="3" stroke-linejoin="round"></path></svg>