<svg width="860" height="360" viewBox="0 0 860 360" fill="none" xmlns="http://www.w3.org/2000/svg" role="img" aria-label="Illustration of a street at night"><rect width="860" height="360" fill="#101A26"></rect><defs><linearGradient id="strsky" x1="0" y1="0" x2="0" y2="1"><stop offset="0" stop-color="#16263A"></stop><stop offset="1" stop-color="#0E1722"></stop></linearGradient></defs><rect width="860" height="296" fill="url(#strsky)"></rect><g fill="#A7C4E0"><circle cx="120" cy="60" r="1.6"></circle><circle cx="250" cy="108" r="1.2"></circle><circle cx="330" cy="56" r="1.4"></circle><circle cx="610" cy="100" r="1.4"></circle><circle cx="790" cy="120" r="1.6"></circle></g><g><circle cx="712" cy="78" r="28" fill="#D6E2EF"></circle><circle cx="726" cy="70" r="24" fill="#16263A"></circle></g><path d="M0 296 H860 V360 H0 Z" fill="#0C141D"></path><path d="M250 360 L406 192 L450 192 L610 360 Z" fill="#2E3A47" stroke="#5C84B0" stroke-width="3" stroke-linejoin="round"></path><g fill="#C9B26B"><path d="M423 352 L437 352 L440 322 L420 322 Z"></path><path d="M424 306 L435 306 L437 282 L422 282 Z"></path><path d="M426 270 L434 270 L435 250 L425 250 Z"></path><path d="M427 240 L433 240 L434 224 L426 224 Z"></path><path d="M428 216 L432 216 L433 204 L427 204 Z"></path></g><rect x="646" y="150" width="11" height="152" fill="#3A3F46" stroke="#5C84B0" stroke-width="3"></rect><ellipse cx="630" cy="166" rx="120" ry="46" fill="#5DBE96" opacity="0.1"></ellipse><rect x="554" y="146" width="152" height="40" rx="6" fill="#245C46" stroke="#5C84B0" stroke-width="3"></rect><g fill="#BFD2E6"><rect x="570" y="160" width="62" height="7" rx="3.5"></rect><rect x="570" y="172" width="42" height="5" rx="2.5"></rect></g><path d="M706 144 L726 166 L706 188 Z" fill="#245C46" stroke="#5C84B0" stroke-width="3" stroke-linejoin="round"></path></svg>