<svg width="860" height="360" viewBox="0 0 860 360" fill="none" xmlns="http://www.w3.org/2000/svg" role="img" aria-label="Illustration of a study"><rect width="860" height="360" fill="#ECE5D5"></rect><rect y="262" width="860" height="98" fill="#C9A36B"></rect><line x1="0" y1="262" x2="860" y2="262" stroke="#26456A" stroke-width="2.5" opacity="0.5"></line><rect x="120" y="118" width="150" height="146" fill="#8A6238" stroke="#26456A" stroke-width="3"></rect><rect x="130" y="130" width="10" height="36" fill="#9E2B3A" stroke="#26456A" stroke-width="1.5"></rect><rect x="144" y="130" width="13" height="36" fill="#2C5E8C" stroke="#26456A" stroke-width="1.5"></rect><rect x="161" y="130" width="16" height="36" fill="#3E7D5A" stroke="#26456A" stroke-width="1.5"></rect><rect x="181" y="130" width="10" height="36" fill="#C98F33" stroke="#26456A" stroke-width="1.5"></rect><rect x="195" y="130" width="13" height="36" fill="#6B2F8C" stroke="#26456A" stroke-width="1.5"></rect><rect x="212" y="130" width="16" height="36" fill="#9E2B3A" stroke="#26456A" stroke-width="1.5"></rect><rect x="130" y="174" width="10" height="36" fill="#2C5E8C" stroke="#26456A" stroke-width="1.5"></rect><rect x="144" y="174" width="13" height="36" fill="#3E7D5A" stroke="#26456A" stroke-width="1.5"></rect><rect x="161" y="174" width="16" height="36" fill="#C98F33" stroke="#26456A" stroke-width="1.5"></rect><rect x="181" y="174" width="10" height="36" fill="#6B2F8C" stroke="#26456A" stroke-width="1.5"></rect><rect x="195" y="174" width="13" height="36" fill="#9E2B3A" stroke="#26456A" stroke-width="1.5"></rect><rect x="212" y="174" width="16" height="36" fill="#2C5E8C" stroke="#26456A" stroke-width="1.5"></rect><rect x="130" y="218" width="10" height="36" fill="#3E7D5A" stroke="#26456A" stroke-width="1.5"></rect><rect x="144" y="218" width="13" height="36" fill="#C98F33" stroke="#26456A" stroke-width="1.5"></rect><rect x="161" y="218" width="16" height="36" fill="#6B2F8C" stroke="#26456A" stroke-width="1.5"></rect><rect x="181" y="218" width="10" height="36" fill="#9E2B3A" stroke="#26456A" stroke-width="1.5"></rect><rect x="195" y="218" width="13" height="36" fill="#2C5E8C" stroke="#26456A" stroke-width="1.5"></rect><rect x="212" y="218" width="16" height="36" fill="#3E7D5A" stroke="#26456A" stroke-width="1.5"></rect><rect x="600" y="124" width="156" height="110" fill="#BFD8EE" stroke="#26456A" stroke-width="3"></rect><circle cx="709.2" cy="157" r="14" fill="#E7B45A"></circle><path d="M600 201 Q662.4 179 756 203.2 L756 234 L600 234 Z" fill="#8FA593"></path><line x1="678" y1="124" x2="678" y2="234" stroke="#26456A" stroke-width="2.5"></line><line x1="600" y1="179" x2="756" y2="179" stroke="#26456A" stroke-width="2.5"></line><rect x="350" y="248" width="200" height="16" fill="#8A6238" stroke="#26456A" stroke-width="3"></rect><rect x="362" y="264" width="12" height="32" fill="#8A6238"></rect><rect x="526" y="264" width="12" height="32" fill="#8A6238"></rect><rect x="372" y="232" width="56" height="18" fill="#FBFAF6" stroke="#26456A" stroke-width="2.5"></rect><path d="M500 248 L500 224 L516 224" fill="none" stroke="#26456A" stroke-width="3"></path><path d="M492 224 L524 224 L518 210 L498 210 Z" fill="#E7B45A" stroke="#26456A" stroke-width="2.5" stroke-linejoin="round"></path></svg>