<svg width="860" height="360" viewBox="0 0 860 360" fill="none" xmlns="http://www.w3.org/2000/svg" role="img" aria-label="Illustration of a study at night"><rect width="860" height="360" fill="#19262F"></rect><rect y="262" width="860" height="98" fill="#13202A"></rect><line x1="0" y1="262" x2="860" y2="262" stroke="#5C84B0" stroke-width="2.5" opacity="0.4"></line><rect x="120" y="118" width="150" height="146" fill="#241A12" stroke="#5C84B0" stroke-width="3"></rect><rect x="130" y="130" width="10" height="36" fill="#9E2B3A" stroke="#5C84B0" stroke-width="1.5"></rect><rect x="144" y="130" width="13" height="36" fill="#2C5E8C" stroke="#5C84B0" stroke-width="1.5"></rect><rect x="161" y="130" width="16" height="36" fill="#3E7D5A" stroke="#5C84B0" stroke-width="1.5"></rect><rect x="181" y="130" width="10" height="36" fill="#C98F33" stroke="#5C84B0" stroke-width="1.5"></rect><rect x="195" y="130" width="13" height="36" fill="#6B2F8C" stroke="#5C84B0" stroke-width="1.5"></rect><rect x="212" y="130" width="16" height="36" fill="#9E2B3A" stroke="#5C84B0" stroke-width="1.5"></rect><rect x="130" y="174" width="10" height="36" fill="#2C5E8C" stroke="#5C84B0" stroke-width="1.5"></rect><rect x="144" y="174" width="13" height="36" fill="#3E7D5A" stroke="#5C84B0" stroke-width="1.5"></rect><rect x="161" y="174" width="16" height="36" fill="#C98F33" stroke="#5C84B0" stroke-width="1.5"></rect><rect x="181" y="174" width="10" height="36" fill="#6B2F8C" stroke="#5C84B0" stroke-width="1.5"></rect><rect x="195" y="174" width="13" height="36" fill="#9E2B3A" stroke="#5C84B0" stroke-width="1.5"></rect><rect x="212" y="174" width="16" height="36" fill="#2C5E8C" stroke="#5C84B0" stroke-width="1.5"></rect><rect x="130" y="218" width="10" height="36" fill="#3E7D5A" stroke="#5C84B0" stroke-width="1.5"></rect><rect x="144" y="218" width="13" height="36" fill="#C98F33" stroke="#5C84B0" stroke-width="1.5"></rect><rect x="161" y="218" width="16" height="36" fill="#6B2F8C" stroke="#5C84B0" stroke-width="1.5"></rect><rect x="181" y="218" width="10" height="36" fill="#9E2B3A" stroke="#5C84B0" stroke-width="1.5"></rect><rect x="195" y="218" width="13" height="36" fill="#2C5E8C" stroke="#5C84B0" stroke-width="1.5"></rect><rect x="212" y="218" width="16" height="36" fill="#3E7D5A" stroke="#5C84B0" stroke-width="1.5"></rect><rect x="600" y="124" width="156" height="110" fill="#16263A" stroke="#5C84B0" stroke-width="3"></rect><g fill="#A7C4E0"><circle cx="646.8" cy="157" r="1.4"></circle><circle cx="693.6" cy="179" r="1.2"></circle></g><g><circle cx="712.3199999999999" cy="154.8" r="13" fill="#D6E2EF"></circle><circle cx="721.6800000000001" cy="150.4" r="11" fill="#16263A"></circle></g><line x1="678" y1="124" x2="678" y2="234" stroke="#5C84B0" stroke-width="2.5"></line><line x1="600" y1="179" x2="756" y2="179" stroke="#5C84B0" stroke-width="2.5"></line><rect x="350" y="248" width="200" height="16" fill="#241A12" stroke="#5C84B0" stroke-width="3"></rect><rect x="362" y="264" width="12" height="32" fill="#241A12"></rect><rect x="526" y="264" width="12" height="32" fill="#241A12"></rect><rect x="372" y="232" width="56" height="18" fill="#2C4358" stroke="#5C84B0" stroke-width="2.5"></rect><path d="M500 248 L500 224 L516 224" fill="none" stroke="#5C84B0" stroke-width="3"></path><path d="M492 224 L524 224 L518 210 L498 210 Z" fill="#F0C56E" stroke="#5C84B0" stroke-width="2.5" stroke-linejoin="round"></path><ellipse cx="508" cy="244" rx="48" ry="22" fill="#F0C56E" opacity="0.18"></ellipse></svg>