<svg width="860" height="360" viewBox="0 0 860 360" fill="none" xmlns="http://www.w3.org/2000/svg" role="img" aria-label="Illustration of a suit"><rect width="860" height="360" fill="#EAE6DC"></rect><path d="M0 296 H860 V360 H0 Z" fill="#DED9CC"></path><ellipse cx="430" cy="322" rx="104" ry="15" fill="#D4CEBE"></ellipse><path d="M350 206 C350 192 362 184 376 184 L416 202 L430 216 L444 202 L484 184 C498 184 510 192 510 206 L502 322 L358 322 Z" fill="#1A2733" stroke="#26456A" stroke-width="3" stroke-linejoin="round"></path><path d="M416 202 L430 216 L444 202 L448 322 L412 322 Z" fill="#FBFAF6" stroke="#26456A" stroke-width="2" stroke-linejoin="round"></path><path d="M376 184 L416 202 L420 238 L398 212 Z" fill="#0F1822" stroke="#26456A" stroke-width="2.5" stroke-linejoin="round"></path><path d="M484 184 L444 202 L440 238 L462 212 Z" fill="#0F1822" stroke="#26456A" stroke-width="2.5" stroke-linejoin="round"></path><path d="M416 202 L430 196 L444 202 L430 216 Z" fill="#FBFAF6" stroke="#26456A" stroke-width="2" stroke-linejoin="round"></path><path d="M430 214 L421 230 L429 300 L431 300 L439 230 Z" fill="#9E2B3A" stroke="#26456A" stroke-width="2" stroke-linejoin="round"></path><path d="M422 216 L430 206 L438 216 L433 226 L427 226 Z" fill="#9E2B3A" stroke="#26456A" stroke-width="2" stroke-linejoin="round"></path><circle cx="446" cy="268" r="3.1" fill="#26456A"></circle><circle cx="446" cy="294" r="3.1" fill="#26456A"></circle><path d="M474 244 l16 0 l-8 12 Z" fill="#FBFAF6" stroke="#26456A" stroke-width="1.6" stroke-linejoin="round"></path></svg>