<svg width="860" height="360" viewBox="0 0 860 360" fill="none" xmlns="http://www.w3.org/2000/svg" role="img" aria-label="Illustration of a cup of tea"><rect width="860" height="360" fill="#EAE6DC"></rect><path d="M0 296 H860 V360 H0 Z" fill="#DED9CC"></path><ellipse cx="430" cy="304" rx="94" ry="16" fill="#D4CEBE"></ellipse><g fill="none" stroke="#C2BBAB" stroke-width="4" stroke-linecap="round" opacity="0.8"><path d="M410 198 C400 182 416 170 408 154"></path><path d="M452 198 C462 182 446 170 454 154"></path></g><ellipse cx="430" cy="300" rx="86" ry="14" fill="#FBFAF6" stroke="#26456A" stroke-width="3"></ellipse><path d="M380 222 L480 222 L468 286 Q430 300 392 286 Z" fill="#FBFAF6" stroke="#26456A" stroke-width="3" stroke-linejoin="round"></path><path d="M480 234 Q512 232 512 258 Q512 282 478 282" fill="none" stroke="#26456A" stroke-width="12" stroke-linecap="round"></path><path d="M480 234 Q512 232 512 258 Q512 282 478 282" fill="none" stroke="#FBFAF6" stroke-width="7" stroke-linecap="round"></path><ellipse cx="430" cy="222" rx="50" ry="11" fill="#FBFAF6" stroke="#26456A" stroke-width="3"></ellipse><ellipse cx="430" cy="222" rx="38" ry="7" fill="#9A6A48"></ellipse></svg>