<svg width="860" height="360" viewBox="0 0 860 360" fill="none" xmlns="http://www.w3.org/2000/svg" role="img" aria-label="Illustration of a teacher"><rect width="860" height="360" fill="#EAE6DC"></rect><path d="M0 296 H860 V360 H0 Z" fill="#DED9CC"></path><rect x="118" y="120" width="220" height="150" rx="6" fill="#2E5346" stroke="#26456A" stroke-width="3"></rect><g stroke="#CFE0D6" stroke-width="3" stroke-linecap="round" opacity="0.8"><line x1="146" y1="160" x2="300" y2="160"></line><line x1="146" y1="186" x2="280" y2="186"></line><line x1="146" y1="212" x2="300" y2="212"></line><line x1="146" y1="238" x2="250" y2="238"></line></g><ellipse cx="520" cy="322" rx="46" ry="14" fill="#D4CEBE"></ellipse><rect x="497" y="250" width="19" height="72" rx="7" fill="#33424E" stroke="#26456A" stroke-width="3"></rect><rect x="524" y="250" width="19" height="72" rx="7" fill="#33424E" stroke="#26456A" stroke-width="3"></rect><path d="M486 256 Q480 196 498 188 Q520 180 542 188 Q560 196 554 256 Z" fill="#2E7D5B" stroke="#26456A" stroke-width="3" stroke-linejoin="round"></path><path d="M488 202 Q468 232 474 264" fill="none" stroke="#2E7D5B" stroke-width="15" stroke-linecap="round"></path><path d="M552 202 Q572 232 566 264" fill="none" stroke="#2E7D5B" stroke-width="15" stroke-linecap="round"></path><circle cx="472" cy="268" r="7" fill="#E8C4A0" stroke="#26456A" stroke-width="2.5"></circle><circle cx="568" cy="268" r="7" fill="#E8C4A0" stroke="#26456A" stroke-width="2.5"></circle><rect x="511" y="170" width="18" height="22" fill="#E8C4A0" stroke="#26456A" stroke-width="3"></rect><circle cx="520" cy="148" r="30" fill="#E8C4A0" stroke="#26456A" stroke-width="3"></circle><path d="M490 142 Q488 114 520 114 Q552 114 550 142 Q534 130 520 130 Q506 130 490 142 Z" fill="#3A2A1E" stroke="#26456A" stroke-width="2" stroke-linejoin="round"></path><g fill="#26456A"><circle cx="510" cy="148" r="3"></circle><circle cx="530" cy="148" r="3"></circle></g><path d="M512 162 Q520 168 528 162" fill="none" stroke="#26456A" stroke-width="2.5"></path><line x1="478" y1="250" x2="372" y2="208" stroke="#7A5A3C" stroke-width="4" stroke-linecap="round"></line></svg>