<svg width="860" height="360" viewBox="0 0 860 360" fill="none" xmlns="http://www.w3.org/2000/svg" role="img" aria-label="Illustration of a tooth"><rect width="860" height="360" fill="#EAE6DC"></rect><path d="M0 296 H860 V360 H0 Z" fill="#DED9CC"></path><ellipse cx="430" cy="316" rx="70" ry="16" fill="#D4CEBE"></ellipse><path d="M384 196 Q384 166 430 166 Q476 166 476 196 Q476 230 462 270 Q456 300 444 300 Q434 300 432 274 Q430 260 428 274 Q426 300 416 300 Q404 300 398 270 Q384 230 384 196 Z" fill="#FBFAF6" stroke="#26456A" stroke-width="3" stroke-linejoin="round"></path><path d="M404 208 Q430 220 456 208" fill="none" stroke="#26456A" stroke-width="2" opacity="0.35"></path><ellipse cx="408" cy="198" rx="9" ry="6" fill="#ffffff" opacity="0.6"></ellipse></svg>