<svg width="860" height="360" viewBox="0 0 860 360" fill="none" xmlns="http://www.w3.org/2000/svg" role="img" aria-label="Illustration of wall"><rect width="860" height="360" fill="#EAE6DC"></rect><path d="M0 296 H860 V360 H0 Z" fill="#DED9CC"></path><ellipse cx="430" cy="300" rx="150" ry="16" fill="#D4CEBE"></ellipse><rect x="300" y="200" width="260" height="104" fill="#C97B5A" stroke="#26456A" stroke-width="3"></rect><g stroke="#EAE6DC" stroke-width="3"><line x1="300" y1="226" x2="560" y2="226"></line><line x1="300" y1="252" x2="560" y2="252"></line><line x1="300" y1="278" x2="560" y2="278"></line><line x1="364" y1="200" x2="364" y2="226"></line><line x1="430" y1="200" x2="430" y2="226"></line><line x1="496" y1="200" x2="496" y2="226"></line><line x1="330" y1="226" x2="330" y2="252"></line><line x1="396" y1="226" x2="396" y2="252"></line><line x1="462" y1="226" x2="462" y2="252"></line><line x1="528" y1="226" x2="528" y2="252"></line><line x1="364" y1="252" x2="364" y2="278"></line><line x1="430" y1="252" x2="430" y2="278"></line><line x1="496" y1="252" x2="496" y2="278"></line><line x1="330" y1="278" x2="330" y2="304"></line><line x1="396" y1="278" x2="396" y2="304"></line><line x1="462" y1="278" x2="462" y2="304"></line><line x1="528" y1="278" x2="528" y2="304"></line></g></svg>