<svg width="860" height="360" viewBox="0 0 860 360" fill="none" xmlns="http://www.w3.org/2000/svg" role="img" aria-label="Illustration of a glass of water"><rect width="860" height="360" fill="#EAE6DC"></rect><path d="M0 296 H860 V360 H0 Z" fill="#DED9CC"></path><ellipse cx="430" cy="308" rx="70" ry="16" fill="#D4CEBE"></ellipse><path d="M392 178 L468 178 L460 300 Q458 308 450 308 L410 308 Q402 308 400 300 Z" fill="#CFE0EE" stroke="#26456A" stroke-width="3" stroke-linejoin="round"></path><path d="M397 224 L463 224 L458 300 Q456 308 448 308 L412 308 Q404 308 402 300 Z" fill="#9BC7E8" opacity="0.85"></path><path d="M397 224 Q430 234 463 224" fill="none" stroke="#7AAFD6" stroke-width="2.5"></path><g fill="#FFFFFF" opacity="0.6"><circle cx="420" cy="256" r="3"></circle><circle cx="442" cy="276" r="2.5"></circle><circle cx="428" cy="288" r="2"></circle></g></svg>