<svg width="860" height="360" viewBox="0 0 860 360" fill="none" xmlns="http://www.w3.org/2000/svg" role="img" aria-label="Illustration of a wedding"><rect width="860" height="360" fill="#EAE6DC"></rect><path d="M0 296 H860 V360 H0 Z" fill="#DED9CC"></path><ellipse cx="430" cy="312" rx="110" ry="16" fill="#D4CEBE"></ellipse><g stroke="#26456A" stroke-width="3" stroke-linejoin="round" fill="#FBFAF6"><rect x="356" y="270" width="148" height="42" rx="6"></rect><rect x="378" y="232" width="104" height="40" rx="6"></rect><rect x="396" y="196" width="68" height="38" rx="6"></rect></g><g fill="#9E2B3A"><circle cx="380" cy="290" r="4"></circle><circle cx="410" cy="290" r="4"></circle><circle cx="440" cy="290" r="4"></circle><circle cx="470" cy="290" r="4"></circle><circle cx="400" cy="252" r="3.5"></circle><circle cx="430" cy="252" r="3.5"></circle><circle cx="460" cy="252" r="3.5"></circle></g><path d="M430 176 C424 166 410 168 412 180 C414 188 430 196 430 196 C430 196 446 188 448 180 C450 168 436 166 430 176 Z" fill="#9E2B3A" stroke="#26456A" stroke-width="2.5" stroke-linejoin="round"></path></svg>