<svg width="860" height="360" viewBox="0 0 860 360" fill="none" xmlns="http://www.w3.org/2000/svg" role="img" aria-label="Illustration of a window"><rect width="860" height="360" fill="#E2DCCC"></rect><rect x="300" y="96" width="260" height="220" rx="6" fill="#8A6238" stroke="#26456A" stroke-width="4"></rect><rect x="318" y="114" width="224" height="184" fill="#BFD8EE" stroke="#26456A" stroke-width="3"></rect><circle cx="490" cy="158" r="20" fill="#E7B45A"></circle><path d="M318 250 Q400 224 542 252 L542 298 L318 298 Z" fill="#8FA593"></path><g fill="#9E2B3A"><path d="M330 114 Q340 150 330 186 L350 186 Q346 150 350 114 Z"></path><path d="M530 114 Q520 150 530 186 L510 186 Q514 150 510 114 Z"></path></g><line x1="430" y1="114" x2="430" y2="298" stroke="#26456A" stroke-width="3.5"></line><line x1="318" y1="206" x2="542" y2="206" stroke="#26456A" stroke-width="3.5"></line><rect x="288" y="312" width="284" height="14" fill="#7A5A3C" stroke="#26456A" stroke-width="3"></rect></svg>