<svg width="860" height="360" viewBox="0 0 860 360" fill="none" xmlns="http://www.w3.org/2000/svg" role="img" aria-label="Illustration of winter at night"><rect width="860" height="360" fill="#101A26"></rect><defs><linearGradient id="win1" x1="0" y1="0" x2="0" y2="1"><stop offset="0" stop-color="#16263A"></stop><stop offset="1" stop-color="#0E1722"></stop></linearGradient></defs><rect width="860" height="360" fill="url(#win1)"></rect><g fill="#A7C4E0"><circle cx="120" cy="60" r="1.6"></circle><circle cx="250" cy="108" r="1.2"></circle><circle cx="330" cy="56" r="1.4"></circle><circle cx="610" cy="100" r="1.4"></circle><circle cx="700" cy="60" r="1.2"></circle><circle cx="790" cy="120" r="1.6"></circle><circle cx="180" cy="170" r="1.1"></circle><circle cx="540" cy="150" r="1.2"></circle></g><g><circle cx="712" cy="78" r="30" fill="#D6E2EF"></circle><circle cx="727" cy="70" r="26" fill="#16263A"></circle></g><path d="M0 290 Q215 274 430 286 Q645 274 860 286 V360 H0 Z" fill="#1E2E3C"></path><g stroke="#2A2018" stroke-width="8" stroke-linecap="round" fill="none"><path d="M250 290 L250 196"></path><path d="M250 232 L222 206 M250 232 L278 206 M250 214 L232 196 M250 214 L268 196"></path></g><circle cx="540" cy="270" r="34" fill="#C7D6E6" stroke="#26456A" stroke-width="3"></circle><circle cx="540" cy="216" r="26" fill="#C7D6E6" stroke="#26456A" stroke-width="3"></circle><g fill="#26456A"><circle cx="532" cy="212" r="3"></circle><circle cx="548" cy="212" r="3"></circle></g><path d="M548 220 L568 224 L548 228 Z" fill="#E7B45A" stroke="#26456A" stroke-width="1.5"></path><g fill="#26456A"><circle cx="540" cy="262" r="2.5"></circle><circle cx="540" cy="276" r="2.5"></circle></g><g fill="#A7C4E0"><circle cx="160" cy="120" r="3"></circle><circle cx="360" cy="90" r="3"></circle><circle cx="460" cy="150" r="3"></circle><circle cx="640" cy="110" r="3"></circle><circle cx="720" cy="200" r="3"></circle><circle cx="300" cy="180" r="3"></circle><circle cx="600" cy="230" r="3"></circle><circle cx="200" cy="240" r="3"></circle><circle cx="500" cy="60" r="3"></circle></g></svg>