<svg width="860" height="360" viewBox="0 0 860 360" fill="none" xmlns="http://www.w3.org/2000/svg" role="img" aria-label="Illustration of winter"><rect width="860" height="360" fill="#E8EAEC"></rect><circle cx="140" cy="86" r="30" fill="#E7B45A" opacity="0.7"></circle><path d="M0 290 Q215 274 430 286 Q645 274 860 286 V360 H0 Z" fill="#FBFAF6"></path><g stroke="#8A6238" stroke-width="8" stroke-linecap="round" fill="none"><path d="M250 290 L250 196"></path><path d="M250 232 L222 206 M250 232 L278 206 M250 214 L232 196 M250 214 L268 196"></path></g><circle cx="540" cy="270" r="34" fill="#FBFAF6" stroke="#26456A" stroke-width="3"></circle><circle cx="540" cy="216" r="26" fill="#FBFAF6" stroke="#26456A" stroke-width="3"></circle><g fill="#26456A"><circle cx="532" cy="212" r="3"></circle><circle cx="548" cy="212" r="3"></circle></g><path d="M548 220 L568 224 L548 228 Z" fill="#E7B45A" stroke="#26456A" stroke-width="1.5"></path><g fill="#26456A"><circle cx="540" cy="262" r="2.5"></circle><circle cx="540" cy="276" r="2.5"></circle></g><g fill="#FFFFFF"><circle cx="160" cy="120" r="3"></circle><circle cx="360" cy="90" r="3"></circle><circle cx="460" cy="150" r="3"></circle><circle cx="640" cy="110" r="3"></circle><circle cx="720" cy="200" r="3"></circle><circle cx="300" cy="180" r="3"></circle><circle cx="600" cy="230" r="3"></circle><circle cx="200" cy="240" r="3"></circle><circle cx="500" cy="60" r="3"></circle></g></svg>