<svg width="860" height="360" viewBox="0 0 860 360" fill="none" xmlns="http://www.w3.org/2000/svg" role="img" aria-label="Illustration of a witch"><rect width="860" height="360" fill="#EAE6DC"></rect><path d="M0 296 H860 V360 H0 Z" fill="#DED9CC"></path><ellipse cx="430" cy="322" rx="52" ry="14" fill="#D4CEBE"></ellipse><rect x="407" y="250" width="19" height="72" rx="7" fill="#241830" stroke="#26456A" stroke-width="3"></rect><rect x="434" y="250" width="19" height="72" rx="7" fill="#241830" stroke="#26456A" stroke-width="3"></rect><path d="M396 256 Q390 196 408 188 Q430 180 452 188 Q470 196 464 256 Z" fill="#3A2A4A" stroke="#26456A" stroke-width="3" stroke-linejoin="round"></path><path d="M398 202 Q378 232 384 264" fill="none" stroke="#3A2A4A" stroke-width="15" stroke-linecap="round"></path><path d="M462 202 Q482 232 476 264" fill="none" stroke="#3A2A4A" stroke-width="15" stroke-linecap="round"></path><circle cx="382" cy="268" r="7" fill="#E8C4A0" stroke="#26456A" stroke-width="2.5"></circle><circle cx="478" cy="268" r="7" fill="#E8C4A0" stroke="#26456A" stroke-width="2.5"></circle><rect x="421" y="170" width="18" height="22" fill="#E8C4A0" stroke="#26456A" stroke-width="3"></rect><circle cx="430" cy="148" r="30" fill="#E8C4A0" stroke="#26456A" stroke-width="3"></circle><path d="M399 150 Q396 112 430 110 Q464 112 461 150 L460 196 L450 196 Q452 150 446 132 Q430 122 414 132 Q408 150 410 196 L400 196 Z" fill="#1A1A1A" stroke="#26456A" stroke-width="2" stroke-linejoin="round"></path><g fill="#26456A"><circle cx="420" cy="148" r="3"></circle><circle cx="440" cy="148" r="3"></circle></g><path d="M422 162 Q430 168 438 162" fill="none" stroke="#26456A" stroke-width="2.5"></path><path d="M398 126 L432 58 L470 126 Z" fill="#1A2733" stroke="#26456A" stroke-width="3" stroke-linejoin="round"></path><path d="M380 126 L484 126 L484 134 L380 134 Z" fill="#1A2733" stroke="#26456A" stroke-width="3" stroke-linejoin="round"></path><line x1="476" y1="210" x2="508" y2="150" stroke="#7A5A3C" stroke-width="5" stroke-linecap="round"></line><path d="M508 150 L530 132 L520 156 L536 162 L512 168 Z" fill="#E7B45A" stroke="#26456A" stroke-width="2" stroke-linejoin="round"></path></svg>